<?xml version="1.0" encoding="UTF-8"?>
<!DOCTYPE svg PUBLIC "-//W3C//DTD SVG 1.1//EN" "http://www.w3.org/Graphics/SVG/1.1/DTD/svg11.dtd">
<!-- Creator: CorelDRAW 2020 (64-Bit) -->
<svg xmlns="http://www.w3.org/2000/svg" xml:space="preserve" width="119.062mm" height="50.2708mm" version="1.1" style="shape-rendering:geometricPrecision; text-rendering:geometricPrecision; image-rendering:optimizeQuality; fill-rule:evenodd; clip-rule:evenodd"
viewBox="0 0 11906.24 5027.08"
 xmlns:xlink="http://www.w3.org/1999/xlink"
 xmlns:xodm="http://www.corel.com/coreldraw/odm/2003">
 <defs>
  <style type="text/css">
   <![CDATA[
    .fil3 {fill:#FEFEFE;fill-rule:nonzero}
    .fil0 {fill:#EE8A3D;fill-rule:nonzero}
    .fil1 {fill:#696668;fill-rule:nonzero}
    .fil2 {fill:#4F86C5;fill-rule:nonzero}
    .fil4 {fill:#384E9B;fill-rule:nonzero}
   ]]>
  </style>
   <clipPath id="id0">
    <path d="M3795.13 4895.26c-37.92,0 -72.69,-23.78 -84.28,-61.83 -14.4,-46.6 11.59,-96.06 57.94,-110.33 8.78,-2.85 17.56,-3.8 26.34,-3.8 37.58,0 72.35,23.78 83.93,61.82 14.75,46.61 -11.23,96.07 -57.94,110.33 -8.78,2.86 -17.56,3.81 -25.99,3.81zm-107.11 -343.36c-37.57,0 -72.34,-24.73 -84.28,-61.83 -14.4,-46.6 11.59,-96.06 57.94,-110.33 8.78,-2.85 17.56,-4.76 26.34,-4.76 37.58,0 72.35,24.73 84.29,62.78 14.39,46.61 -11.59,96.07 -57.95,110.33 -8.78,2.86 -17.56,3.81 -26.34,3.81zm-107.11 -343.36c-37.57,0 -72.34,-24.73 -83.93,-62.78 -14.4,-45.65 11.59,-95.11 57.95,-110.33 8.78,-2.86 17.56,-3.81 26.34,-3.81 37.57,0 72.34,24.73 83.93,61.83 14.75,46.6 -11.24,96.06 -57.95,110.33 -8.78,2.85 -17.56,4.76 -26.34,4.76zm-106.75 -344.32c-37.58,0 -72.35,-23.78 -84.29,-61.82 -14.4,-46.61 11.59,-96.07 57.95,-110.33 8.78,-2.86 17.56,-3.81 26.34,-3.81 37.57,0 72.34,23.78 84.28,61.83 14.4,46.6 -11.59,96.06 -57.95,110.33 -8.78,2.85 -17.55,3.8 -26.33,3.8zm-107.11 -343.36c-37.58,0 -72.35,-24.73 -83.93,-61.82 -14.4,-46.61 11.23,-96.07 57.94,-110.34 8.78,-2.85 17.56,-4.75 26.34,-4.75 37.57,0 72.34,24.73 83.93,62.77 14.4,46.61 -11.24,96.07 -57.95,110.34 -8.77,2.85 -17.55,3.8 -26.33,3.8zm-106.76 -343.36c-37.58,0 -72.34,-24.73 -84.28,-62.78 -14.4,-45.65 11.58,-95.11 57.94,-110.33 8.78,-2.85 17.56,-3.8 26.34,-3.8 37.57,0 72.34,24.73 84.28,61.82 14.4,46.61 -11.59,96.07 -57.94,110.33 -8.78,2.86 -17.56,4.76 -26.34,4.76zm-107.11 -344.31c-37.58,0 -72.34,-23.78 -83.93,-61.83 -14.75,-46.6 11.24,-96.06 57.94,-110.33 8.78,-2.85 17.56,-3.8 26.34,-3.8 37.58,0 72.34,23.77 83.93,61.82 14.4,46.61 -11.59,96.07 -57.94,110.33 -8.78,2.86 -17.56,3.81 -26.34,3.81zm-106.76 -343.36c-37.57,0 -72.34,-24.73 -84.28,-61.83 -14.4,-46.6 11.59,-96.06 57.94,-110.33 8.78,-2.85 17.56,-4.76 26.34,-4.76 37.58,0 72.34,24.73 84.28,62.78 14.4,46.6 -11.58,96.06 -58.29,110.33 -8.43,2.85 -17.21,3.81 -25.99,3.81zm-107.11 -343.37c-37.57,0 -72.34,-24.73 -83.93,-62.77 -14.75,-46.61 11.24,-95.12 57.94,-110.33 8.78,-2.86 17.56,-3.81 25.99,-3.81 37.58,0 72.7,24.73 84.28,61.83 14.4,46.6 -11.58,96.06 -57.94,110.33 -8.78,2.85 -17.56,4.75 -26.34,4.75zm-106.76 -344.31c-37.57,0 -72.34,-23.78 -84.28,-61.82 -14.4,-46.61 11.59,-96.07 57.95,-110.34 8.77,-2.85 17.55,-3.8 26.33,-3.8 37.58,0 72.35,23.78 84.29,61.82 14.39,46.61 -11.59,96.07 -58.3,110.34 -8.43,2.85 -17.21,3.8 -25.99,3.8l0 0z"/>
   </clipPath>
   <clipPath id="id1">
    <path d="M3956.94 3431.76l-193.69 -604.57c-25.45,-79.83 -37.67,-160.07 -37.67,-237.9 0.1,-134.39 36.03,-261.56 102.6,-365.87 34.74,-54.56 77.97,-102.7 128.76,-142.01l0 145.62c-14.31,16.45 -27.45,34.5 -39.57,53.36 -54.81,85.85 -85.91,193.36 -85.91,308.9 0,67 10.4,136.4 32.56,205.4l92.92 290.05 0 347.02 0 0z"/>
   </clipPath>
 </defs>
 <g id="Слой_x0020_1">
  <metadata id="CorelCorpID_0Corel-Layer"/>
  <path class="fil0" d="M-5427.08 -5491.58l422.38 402.56c4.95,4.96 8.25,9.29 9.9,13.01 1.66,3.72 2.48,6.81 2.48,9.29 0,7.43 -2.68,13.83 -8.05,19.2 -5.37,5.37 -11.77,8.05 -19.2,8.05l-76.8 0c-11.56,0 -21.05,-2.27 -28.48,-6.81 -7.44,-4.54 -12.8,-8.47 -16.11,-11.77l-350.53 -334.44 0 319.58c0,9.08 -3.31,16.92 -9.91,23.53 -6.61,6.61 -14.45,9.91 -23.54,9.91l-50.78 0c-9.09,0 -16.93,-3.3 -23.54,-9.91 -6.6,-6.61 -9.91,-14.45 -9.91,-23.53l0 -800.17c0,-9.08 3.31,-16.93 9.91,-23.54 6.61,-6.6 14.45,-9.9 23.54,-9.9l50.78 0c9.09,0 16.93,3.3 23.54,9.9 6.6,6.61 9.91,14.46 9.91,23.54l0 288.6 330.72 -303.47c3.3,-3.3 8.67,-7.22 16.1,-11.76 7.43,-4.54 16.93,-6.81 28.49,-6.81l71.84 0c7.43,0 13.83,2.68 19.2,8.05 5.36,5.36 8.05,11.76 8.05,19.2 0,2.47 -0.83,5.57 -2.48,9.29 -1.65,3.71 -4.95,8.05 -9.91,13l-397.6 365.4z"/>
  <path id="1" class="fil0" d="M-4934.1 -5201.73c0,-33.03 6.6,-61.94 19.82,-86.71 13.21,-24.77 31.38,-45.83 54.5,-63.17 23.12,-17.34 50.16,-31.38 81.13,-42.11 30.97,-10.74 63.79,-19 98.47,-24.78l174.65 -28.49 0 -16.1c0,-42.11 -13.83,-73.7 -41.49,-94.76 -27.67,-21.05 -62.14,-31.58 -103.43,-31.58 -36.33,0 -63.79,6.61 -82.37,19.82 -18.58,13.21 -34.48,28.9 -47.69,47.07 -4.95,6.6 -10.32,11.14 -16.1,13.62 -5.78,2.48 -13.63,3.72 -23.54,3.72l-37.16 0c-9.08,0 -17.13,-3.31 -24.15,-9.91 -7.02,-6.61 -10.11,-14.45 -9.29,-23.54 1.65,-18.16 8.88,-36.74 21.68,-55.74 12.8,-18.99 30.14,-35.92 52.02,-50.78 21.88,-14.86 47.07,-27.04 75.56,-36.54 28.49,-9.5 58.83,-14.24 91.04,-14.24 37.16,0 71.63,5.36 103.43,16.1 31.79,10.73 59.04,26.42 81.75,47.07 22.71,20.64 40.46,46.24 53.26,76.79 12.8,30.56 19.2,65.65 19.2,105.29l0 377.79c0,9.08 -3.3,16.92 -9.91,23.53 -6.61,6.61 -14.45,9.91 -23.53,9.91l-45.83 0c-9.09,0 -16.93,-3.3 -23.54,-9.91 -6.61,-6.61 -9.91,-14.45 -9.91,-23.53l0 -50.79c-7.43,15.69 -18.99,29.52 -34.68,41.5 -15.69,11.97 -33.65,22.09 -53.88,30.34 -20.23,8.26 -41.29,14.45 -63.17,18.58 -21.89,4.13 -42.32,6.2 -61.32,6.2 -32.2,0 -61.72,-4.55 -88.56,-13.63 -26.84,-9.08 -49.55,-21.26 -68.13,-36.54 -18.58,-15.28 -33.03,-33.65 -43.35,-55.12 -10.32,-21.47 -15.48,-44.59 -15.48,-69.36zm227.91 68.12c29.73,0 56.98,-4.54 81.75,-13.62 24.77,-9.09 46.04,-21.68 63.79,-37.78 17.76,-16.1 31.38,-35.3 40.88,-57.6 9.49,-22.29 14.24,-47.07 14.24,-74.32l0 -30.96 -146.16 23.53c-52.02,8.26 -93.31,21.47 -123.86,39.64 -30.56,18.16 -45.83,41.7 -45.83,70.6 0,9.08 2.06,18.17 6.19,27.25 4.13,9.08 10.73,17.75 19.82,26.01 9.08,8.26 20.85,14.87 35.3,19.82 14.45,4.96 32.41,7.43 53.88,7.43z"/>
  <path id="2" class="fil0" d="M-3827.99 -5910.24c0,28.9 -6.4,55.33 -19.2,79.27 -12.8,23.95 -28.9,47.28 -48.31,69.99 -19.4,22.7 -40.87,45.83 -64.41,69.36 -23.53,23.54 -46.45,49.34 -68.74,77.42 20.64,-4.96 43.35,-7.44 68.12,-7.44 41.29,0 79.28,6.61 113.96,19.82 34.68,13.22 64.62,32.62 89.8,58.22 25.19,25.6 44.8,56.77 58.84,93.52 14.04,36.74 21.06,78.65 21.06,125.72 0,43.77 -7.02,84.02 -21.06,120.77 -14.04,36.75 -33.65,68.12 -58.84,94.14 -25.18,26.01 -55.12,46.24 -89.8,60.69 -34.68,14.45 -72.67,21.68 -113.96,21.68 -41.28,0 -79.27,-7.23 -113.95,-21.68 -34.68,-14.45 -64.62,-34.68 -89.8,-60.69 -25.19,-26.02 -44.8,-57.39 -58.84,-94.14 -14.04,-36.75 -21.06,-77 -21.06,-120.77 0,-63.58 7.44,-119.12 22.3,-166.6 14.86,-47.48 33.65,-88.97 56.36,-124.48 22.71,-35.51 47.07,-66.48 73.08,-92.9 26.01,-26.43 50.37,-50.79 73.08,-73.08 22.71,-22.3 41.49,-43.56 56.36,-63.79 14.86,-20.23 22.29,-41.91 22.29,-65.03 0,-9.08 3.31,-16.93 9.91,-23.54 6.61,-6.6 14.45,-9.9 23.54,-9.9l45.83 0c9.08,0 16.92,3.3 23.53,9.9 6.61,6.61 9.91,14.46 9.91,23.54zm-132.54 395.13c-57.8,0 -100.74,17.55 -128.81,52.64 -28.08,35.1 -42.12,81.13 -42.12,138.11 0,56.98 14.04,103.01 42.12,138.11 28.07,35.1 71.01,52.64 128.81,52.64 57.81,0 100.75,-17.54 128.82,-52.64 28.08,-35.1 42.12,-81.13 42.12,-138.11 0,-56.98 -14.04,-103.01 -42.12,-138.11 -28.07,-35.09 -71.01,-52.64 -128.82,-52.64z"/>
  <path id="3" class="fil0" d="M-3555.49 -5423.45c3.3,-37.99 12.39,-73.49 27.25,-106.53 14.87,-33.03 34.27,-61.93 58.22,-86.7 23.95,-24.77 52.64,-44.18 86.08,-58.22 33.45,-14.04 70.81,-21.05 112.1,-21.05 44.59,0 84.44,7.22 119.53,21.67 35.1,14.45 65.03,35.3 89.8,62.55 24.78,27.25 43.77,60.28 56.98,99.1 13.21,38.81 19.82,82.16 19.82,130.05l0 33.45c0,9.08 -3.3,16.93 -9.91,23.53 -6.61,6.61 -14.45,9.91 -23.53,9.91l-426.1 0 0 7.43c1.65,56.16 18.79,99.3 51.4,129.44 32.62,30.14 73.29,45.21 122.01,45.21 45.42,0 79.48,-6.4 102.19,-19.2 22.71,-12.8 41.08,-27.04 55.12,-42.73 6.61,-6.61 12.39,-11.15 17.34,-13.63 4.96,-2.47 12.39,-3.71 22.3,-3.71l37.16 0c9.08,0 17.34,3.3 24.77,9.91 7.43,6.6 10.32,14.45 8.67,23.53 -2.48,14.87 -9.5,31.18 -21.06,48.93 -11.56,17.75 -28.28,34.27 -50.16,49.55 -21.88,15.27 -49.14,28.07 -81.75,38.39 -32.62,10.33 -70.81,15.49 -114.58,15.49 -41.29,0 -78.45,-7.23 -111.48,-21.68 -33.03,-14.45 -61.72,-34.27 -86.08,-59.46 -24.36,-25.18 -43.97,-54.91 -58.84,-89.18 -14.86,-34.27 -23.95,-71.63 -27.25,-112.1 -4.13,-37.98 -4.13,-75.97 0,-113.95zm110.24 3.71l348.06 0 0 -3.71c0,-50.37 -15.89,-90.63 -47.69,-120.77 -31.79,-30.14 -74.11,-45.21 -126.96,-45.21 -23.95,0 -46.24,3.92 -66.89,11.77 -20.64,7.84 -38.81,18.99 -54.5,33.44 -15.69,14.45 -28.07,32 -37.16,52.64 -9.08,20.65 -14.03,43.36 -14.86,68.13l0 3.71z"/>
  <path id="4" class="fil0" d="M-2763.99 -5650.12c0,-9.09 3.3,-16.93 9.91,-23.54 6.61,-6.6 14.45,-9.91 23.53,-9.91l417.43 0c9.08,0 16.93,3.31 23.53,9.91 6.61,6.61 9.91,14.45 9.91,23.54l0 577.21c0,9.08 -3.3,16.92 -9.91,23.53 -6.6,6.61 -14.45,9.91 -23.53,9.91l-45.83 0c-9.08,0 -16.93,-3.3 -23.54,-9.91 -6.6,-6.61 -9.9,-14.45 -9.9,-23.53l0 -504.13 -258.88 0 0 323.28c0,33.86 -3.51,64.62 -10.53,92.28 -7.02,27.67 -18.58,51.41 -34.68,71.23 -16.11,19.81 -37.37,35.3 -63.79,46.44 -26.43,11.15 -59.05,16.73 -97.86,16.73l-14.86 0c-9.08,0 -16.93,-3.31 -23.54,-9.91 -6.6,-6.61 -9.9,-14.45 -9.9,-23.54l0 -39.63c0,-9.09 3.3,-16.93 9.9,-23.54 6.61,-6.6 14.46,-9.91 23.54,-9.91l14.86 0c37.99,0 63.17,-10.94 75.56,-32.82 12.39,-21.88 18.58,-51.41 18.58,-88.57l0 -395.12z"/>
  <path id="5" class="fil0" d="M-2060.44 -5039.47c-9.08,0 -16.93,-3.3 -23.53,-9.91 -6.61,-6.61 -9.91,-14.45 -9.91,-23.53l0 -577.21c0,-9.09 3.3,-16.93 9.91,-23.54 6.6,-6.6 14.45,-9.91 23.53,-9.91l45.83 0c9.09,0 16.93,3.31 23.54,9.91 6.6,6.61 9.91,14.45 9.91,23.54l0 125.1 133.77 0c39.64,0 75.76,5.78 108.38,17.34 32.62,11.56 60.7,27.87 84.23,48.93 23.53,21.05 41.91,46.65 55.12,76.79 13.21,30.14 19.82,63.38 19.82,99.71 0,36.34 -6.61,69.58 -19.82,99.72 -13.21,30.14 -31.59,55.74 -55.12,76.79 -23.53,21.06 -51.61,37.37 -84.23,48.93 -32.62,11.56 -68.74,17.34 -108.38,17.34l-213.05 0zm369.12 -242.78c0,-24.77 -4.34,-45.83 -13.01,-63.17 -8.67,-17.34 -20.64,-31.38 -35.92,-42.11 -15.27,-10.74 -33.65,-18.58 -55.12,-23.53 -21.47,-4.96 -44.59,-7.44 -69.36,-7.44l-116.43 0 0 272.51 116.43 0c24.77,0 47.89,-2.48 69.36,-7.44 21.47,-4.95 39.85,-12.8 55.12,-23.53 15.28,-10.74 27.25,-24.77 35.92,-42.11 8.67,-17.35 13.01,-38.4 13.01,-63.18z"/>
  <path class="fil0" d="M-5631.02 -4172.59c0.94,-52.68 10.11,-102.3 27.51,-148.87 17.41,-46.57 42.57,-87.02 75.5,-121.35 32.92,-34.34 73.38,-61.62 121.35,-81.85 47.98,-20.23 103.01,-30.34 165.1,-30.34 62.09,0 117.13,10.11 165.1,30.34 47.98,20.23 88.43,47.51 121.36,81.85 32.92,34.33 58.09,74.78 75.49,121.35 17.41,46.57 26.58,96.19 27.52,148.87 2.82,83.73 2.82,167.45 0,251.18 -1.88,52.68 -11.52,102.31 -28.93,148.87 -17.4,46.57 -42.57,87.26 -75.49,122.06 -32.93,34.81 -73.15,62.09 -120.65,81.85 -47.51,19.75 -102.31,29.63 -164.4,29.63 -62.09,0 -116.88,-9.88 -164.39,-29.63 -47.51,-19.76 -87.73,-47.04 -120.65,-81.85 -32.93,-34.8 -58.09,-75.49 -75.5,-122.06 -17.4,-46.56 -27.04,-96.19 -28.92,-148.87 -2.83,-83.73 -2.83,-167.45 0,-251.18zm644.87 7.06c-1.88,-44.22 -9.17,-82.79 -21.87,-115.71 -12.7,-32.93 -30.34,-60.21 -52.91,-81.85 -22.58,-21.63 -49.16,-37.86 -79.73,-48.68 -30.58,-10.82 -64.21,-16.23 -100.9,-16.23 -36.69,0 -70.32,5.41 -100.89,16.23 -30.58,10.82 -57.15,27.05 -79.73,48.68 -22.58,21.64 -40.45,48.92 -53.62,81.85 -13.17,32.92 -20.23,71.49 -21.17,115.71 -1.88,42.33 -2.82,81.84 -2.82,118.53 0,36.69 0.94,76.2 2.82,118.53 0.94,44.22 8,82.79 21.17,115.72 13.17,32.92 31.04,60.2 53.62,81.84 22.58,21.64 49.15,37.86 79.73,48.68 30.57,10.82 64.2,16.23 100.89,16.23 36.69,0 70.32,-5.41 100.9,-16.23 30.57,-10.82 57.15,-27.04 79.73,-48.68 22.57,-21.64 40.21,-48.92 52.91,-81.84 12.7,-32.93 19.99,-71.5 21.87,-115.72 1.89,-42.33 2.83,-81.84 2.83,-118.53 0,-36.69 -0.94,-76.2 -2.83,-118.53z"/>
  <path id="1" class="fil0" d="M-3919.34 -4540.89c10.35,0 19.28,3.77 26.81,11.29 7.52,7.53 11.29,16.46 11.29,26.81l0 911.58c0,10.35 -3.77,19.29 -11.29,26.81 -7.53,7.53 -16.46,11.29 -26.81,11.29l-57.86 0c-10.35,0 -19.28,-3.76 -26.81,-11.29 -7.53,-7.52 -11.29,-16.46 -11.29,-26.81l0 -822.68 -496.71 0 0 822.68c0,10.35 -3.76,19.29 -11.29,26.81 -7.52,7.53 -16.46,11.29 -26.81,11.29l-57.85 0c-10.35,0 -19.29,-3.76 -26.82,-11.29 -7.52,-7.52 -11.28,-16.46 -11.28,-26.81l0 -911.58c0,-10.35 3.76,-19.28 11.28,-26.81 7.53,-7.52 16.47,-11.29 26.82,-11.29l688.62 0z"/>
  <path id="2" class="fil0" d="M-3027.52 -4540.89c10.34,0 19.28,3.77 26.81,11.29 7.52,7.53 11.29,16.46 11.29,26.81l0 50.8c0,10.35 -3.77,19.29 -11.29,26.81 -7.53,7.53 -16.47,11.29 -26.81,11.29l-263.88 0 0 822.68c0,10.35 -3.76,19.29 -11.29,26.81 -7.53,7.53 -16.46,11.29 -26.81,11.29l-57.86 0c-10.35,0 -19.28,-3.76 -26.81,-11.29 -7.52,-7.52 -11.29,-16.46 -11.29,-26.81l0 -822.68 -263.87 0c-10.35,0 -19.29,-3.76 -26.82,-11.29 -7.52,-7.52 -11.28,-16.46 -11.28,-26.81l0 -50.8c0,-10.35 3.76,-19.28 11.28,-26.81 7.53,-7.52 16.47,-11.29 26.82,-11.29l661.81 0z"/>
  <path id="3" class="fil0" d="M-2306.45 -4540.89c10.35,0 19.29,3.77 26.81,11.29 7.53,7.53 11.29,16.46 11.29,26.81l0 50.8c0,8.47 -1.41,17.41 -4.23,26.81 -2.82,9.41 -6.59,19.29 -11.29,29.64l-313.27 808.56c-3.76,8.47 -8.7,16.23 -14.81,23.29 -6.12,7.05 -14.82,10.58 -26.11,10.58l-64.91 0c-9.41,0 -17.4,-3.29 -23.99,-9.88 -6.58,-6.58 -9.88,-14.58 -9.88,-23.99 0,-1.88 0.24,-3.99 0.71,-6.35 0.47,-2.35 1.65,-5.88 3.53,-10.58l314.67 -809.98 -462.84 0c-10.35,0 -19.29,-3.76 -26.81,-11.29 -7.53,-7.52 -11.29,-16.46 -11.29,-26.81l0 -50.8c0,-10.35 3.76,-19.28 11.29,-26.81 7.52,-7.52 16.46,-11.29 26.81,-11.29l574.32 0z"/>
  <path id="4" class="fil0" d="M-1740.59 -3591.21c0,10.35 -3.77,19.29 -11.29,26.81 -7.53,7.53 -16.47,11.29 -26.81,11.29l-57.86 0c-10.35,0 -19.29,-3.76 -26.81,-11.29 -7.53,-7.52 -11.29,-16.46 -11.29,-26.81l0 -777.52 -228.6 173.56c-8.47,7.53 -17.87,10.35 -28.22,8.47 -10.35,-1.88 -18.82,-6.58 -25.4,-14.11l-33.87 -43.74c-6.58,-8.47 -9.17,-17.88 -7.76,-28.23 1.41,-10.34 6.35,-18.81 14.82,-25.4l301.97 -231.42c7.53,-5.64 15.06,-8.94 22.58,-9.88 7.53,-0.94 15.05,-1.41 22.58,-1.41l57.86 0c10.34,0 19.28,3.77 26.81,11.29 7.52,7.53 11.29,16.46 11.29,26.81l0 911.58z"/>
  <path id="5" class="fil0" d="M-5631.02 -4172.59c0.94,-52.68 10.11,-102.3 27.51,-148.87 17.41,-46.57 42.57,-87.02 75.5,-121.35 32.92,-34.34 73.38,-61.62 121.35,-81.85 47.98,-20.23 103.01,-30.34 165.1,-30.34 62.09,0 117.13,10.11 165.1,30.34 47.98,20.23 88.43,47.51 121.36,81.85 32.92,34.33 58.09,74.78 75.49,121.35 17.41,46.57 26.58,96.19 27.52,148.87 2.82,83.73 2.82,167.45 0,251.18 -1.88,52.68 -11.52,102.31 -28.93,148.87 -17.4,46.57 -42.57,87.26 -75.49,122.06 -32.93,34.81 -73.15,62.09 -120.65,81.85 -47.51,19.75 -102.31,29.63 -164.4,29.63 -62.09,0 -116.88,-9.88 -164.39,-29.63 -47.51,-19.76 -87.73,-47.04 -120.65,-81.85 -32.93,-34.8 -58.09,-75.49 -75.5,-122.06 -17.4,-46.56 -27.04,-96.19 -28.92,-148.87 -2.83,-83.73 -2.83,-167.45 0,-251.18zm644.87 7.06c-1.88,-44.22 -9.17,-82.79 -21.87,-115.71 -12.7,-32.93 -30.34,-60.21 -52.91,-81.85 -22.58,-21.63 -49.16,-37.86 -79.73,-48.68 -30.58,-10.82 -64.21,-16.23 -100.9,-16.23 -36.69,0 -70.32,5.41 -100.89,16.23 -30.58,10.82 -57.15,27.05 -79.73,48.68 -22.58,21.64 -40.45,48.92 -53.62,81.85 -13.17,32.92 -20.23,71.49 -21.17,115.71 -1.88,42.33 -2.82,81.84 -2.82,118.53 0,36.69 0.94,76.2 2.82,118.53 0.94,44.22 8,82.79 21.17,115.72 13.17,32.92 31.04,60.2 53.62,81.84 22.58,21.64 49.15,37.86 79.73,48.68 30.57,10.82 64.2,16.23 100.89,16.23 36.69,0 70.32,-5.41 100.9,-16.23 30.57,-10.82 57.15,-27.04 79.73,-48.68 22.57,-21.64 40.21,-48.92 52.91,-81.84 12.7,-32.93 19.99,-71.5 21.87,-115.72 1.89,-42.33 2.83,-81.84 2.83,-118.53 0,-36.69 -0.94,-76.2 -2.83,-118.53z"/>
  <path id="6" class="fil0" d="M-3919.34 -4540.89c10.35,0 19.28,3.77 26.81,11.29 7.52,7.53 11.29,16.46 11.29,26.81l0 911.58c0,10.35 -3.77,19.29 -11.29,26.81 -7.53,7.53 -16.46,11.29 -26.81,11.29l-57.86 0c-10.35,0 -19.28,-3.76 -26.81,-11.29 -7.53,-7.52 -11.29,-16.46 -11.29,-26.81l0 -822.68 -496.71 0 0 822.68c0,10.35 -3.76,19.29 -11.29,26.81 -7.52,7.53 -16.46,11.29 -26.81,11.29l-57.85 0c-10.35,0 -19.29,-3.76 -26.82,-11.29 -7.52,-7.52 -11.28,-16.46 -11.28,-26.81l0 -911.58c0,-10.35 3.76,-19.28 11.28,-26.81 7.53,-7.52 16.47,-11.29 26.82,-11.29l688.62 0z"/>
  <polygon class="fil0" points="-6419.16,-6690.33 -7978.15,-4393.57 -7054.29,-4515.46 -7689.45,-2950.04 -5938.01,-5246.83 -7022.21,-5073.62 "/>
  <polygon class="fil0" points="-7651.6,-3043.37 -7632.71,-3024.49 -7646.89,-3005.9 -7661.05,-3020.06 "/>
  <polygon class="fil0" points="-7642.14,-3066.68 -7618.53,-3043.08 -7632.71,-3024.49 -7651.6,-3043.37 "/>
  <polygon class="fil0" points="-7632.67,-3090.02 -7604.34,-3061.69 -7618.53,-3043.08 -7642.14,-3066.68 "/>
  <polygon class="fil0" points="-7623.19,-3113.37 -7590.14,-3080.32 -7604.34,-3061.69 -7632.67,-3090.02 "/>
  <polygon class="fil0" points="-7613.74,-3136.68 -7575.96,-3098.9 -7590.14,-3080.32 -7623.19,-3113.37 "/>
  <polygon class="fil0" points="-7604.28,-3160 -7561.78,-3117.5 -7575.96,-3098.9 -7613.74,-3136.68 "/>
  <polygon class="fil0" points="-7594.8,-3183.34 -7547.58,-3136.12 -7561.78,-3117.5 -7604.28,-3160 "/>
  <polygon class="fil0" points="-7585.33,-3206.68 -7533.39,-3154.74 -7547.58,-3136.12 -7594.8,-3183.34 "/>
  <polygon class="fil0" points="-7575.87,-3230 -7519.21,-3173.33 -7533.39,-3154.74 -7585.33,-3206.68 "/>
  <polygon class="fil0" points="-7566.41,-3253.33 -7505.02,-3191.94 -7519.21,-3173.33 -7575.87,-3230 "/>
  <polygon class="fil0" points="-7556.94,-3276.66 -7490.82,-3210.55 -7505.02,-3191.94 -7566.41,-3253.33 "/>
  <polygon class="fil0" points="-7547.47,-3300 -7476.63,-3229.16 -7490.82,-3210.55 -7556.94,-3276.66 "/>
  <polygon class="fil0" points="-7538.01,-3323.32 -7462.45,-3247.76 -7476.63,-3229.16 -7547.47,-3300 "/>
  <polygon class="fil0" points="-7528.54,-3346.64 -7448.26,-3266.36 -7462.45,-3247.76 -7538.01,-3323.32 "/>
  <polygon class="fil0" points="-7519.08,-3369.97 -7434.07,-3284.97 -7448.26,-3266.36 -7528.54,-3346.64 "/>
  <polygon class="fil0" points="-7509.61,-3393.31 -7419.88,-3303.58 -7434.07,-3284.97 -7519.08,-3369.97 "/>
  <polygon class="fil0" points="-7500.14,-3416.64 -7405.69,-3322.19 -7419.88,-3303.58 -7509.61,-3393.31 "/>
  <polygon class="fil0" points="-7490.68,-3439.95 -7391.51,-3340.78 -7405.69,-3322.19 -7500.14,-3416.64 "/>
  <polygon class="fil0" points="-7481.21,-3463.3 -7377.31,-3359.4 -7391.51,-3340.78 -7490.68,-3439.95 "/>
  <polygon class="fil0" points="-7471.74,-3486.64 -7363.12,-3378.02 -7377.31,-3359.4 -7481.21,-3463.3 "/>
  <polygon class="fil0" points="-7462.28,-3509.95 -7348.94,-3396.61 -7363.12,-3378.02 -7471.74,-3486.64 "/>
  <polygon class="fil0" points="-7452.82,-3533.26 -7334.76,-3415.2 -7348.94,-3396.61 -7462.28,-3509.95 "/>
  <polygon class="fil0" points="-7443.35,-3556.61 -7320.55,-3433.83 -7334.76,-3415.2 -7452.82,-3533.26 "/>
  <polygon class="fil0" points="-7433.88,-3579.94 -7306.37,-3452.43 -7320.55,-3433.83 -7443.35,-3556.61 "/>
  <polygon class="fil0" points="-7424.42,-3603.27 -7292.18,-3471.03 -7306.37,-3452.43 -7433.88,-3579.94 "/>
  <polygon class="fil0" points="-7414.95,-3626.6 -7278,-3489.64 -7292.18,-3471.03 -7424.42,-3603.27 "/>
  <polygon class="fil0" points="-7405.48,-3649.93 -7263.8,-3508.25 -7278,-3489.64 -7414.95,-3626.6 "/>
  <polygon class="fil0" points="-7396.02,-3673.24 -7249.63,-3526.84 -7263.8,-3508.25 -7405.48,-3649.93 "/>
  <polygon class="fil0" points="-7386.55,-3696.59 -7235.43,-3545.46 -7249.63,-3526.84 -7396.02,-3673.24 "/>
  <polygon class="fil0" points="-7377.09,-3719.9 -7221.25,-3564.06 -7235.43,-3545.46 -7386.55,-3696.59 "/>
  <polygon class="fil0" points="-7367.62,-3743.24 -7207.05,-3582.68 -7221.25,-3564.06 -7377.09,-3719.9 "/>
  <polygon class="fil0" points="-7358.16,-3766.55 -7192.88,-3601.26 -7207.05,-3582.68 -7367.62,-3743.24 "/>
  <path class="fil0" d="M-7967.72 -4408.93l12.35 12.35 -22.78 3.01 10.43 -15.36zm619.04 619.02l170.02 170.01 -14.22 18.64 -165.28 -165.29 9.48 -23.36z"/>
  <path class="fil0" d="M-7954.46 -4428.48l28.08 28.08 -28.99 3.82 -12.35 -12.35 13.26 -19.55zm615.23 615.26l174.74 174.74 -14.17 18.58 -170.02 -170.01 9.45 -23.31z"/>
  <path class="fil0" d="M-7941.21 -4448l43.78 43.78 -28.95 3.82 -28.08 -28.08 13.25 -19.52zm611.45 611.44l179.46 179.46 -14.19 18.62 -174.74 -174.74 9.47 -23.34z"/>
  <path class="fil0" d="M-7927.94 -4467.54l59.5 59.5 -28.99 3.82 -43.78 -43.78 13.27 -19.54zm607.65 607.65l184.18 184.18 -14.19 18.61 -179.46 -179.46 9.47 -23.33z"/>
  <path class="fil0" d="M-7914.67 -4487.08l75.21 75.21 -28.98 3.83 -59.5 -59.5 13.27 -19.54zm603.85 603.86l188.9 188.91 -14.19 18.6 -184.18 -184.18 9.47 -23.33z"/>
  <path class="fil0" d="M-7901.43 -4506.6l90.92 90.91 -28.95 3.82 -75.21 -75.21 13.24 -19.52zm600.06 600.08l193.62 193.63 -14.17 18.58 -188.9 -188.91 9.45 -23.3z"/>
  <path class="fil0" d="M-7888.17 -4526.13l106.62 106.62 -28.96 3.82 -90.92 -90.91 13.26 -19.53zm596.28 596.25l198.35 198.35 -14.21 18.64 -193.62 -193.63 9.48 -23.36z"/>
  <path class="fil0" d="M-7874.91 -4545.67l122.34 122.34 -28.98 3.82 -106.62 -106.62 13.26 -19.54zm592.48 592.48l203.07 203.07 -14.18 18.59 -198.35 -198.35 9.46 -23.31z"/>
  <path class="fil0" d="M-7861.64 -4565.21l138.05 138.05 -28.98 3.83 -122.34 -122.34 13.27 -19.54zm588.68 588.68l207.79 207.8 -14.19 18.61 -203.07 -203.07 9.47 -23.34z"/>
  <path class="fil0" d="M-7848.38 -4584.75l153.77 153.77 -28.98 3.82 -138.05 -138.05 13.26 -19.54zm584.88 584.9l212.51 212.53 -14.18 18.59 -207.79 -207.8 9.46 -23.32z"/>
  <path class="fil0" d="M-7835.13 -4604.28l169.48 169.48 -28.96 3.82 -153.77 -153.77 13.25 -19.53zm581.09 581.1l217.24 217.24 -14.19 18.62 -212.51 -212.53 9.46 -23.33z"/>
  <path class="fil0" d="M-7821.86 -4623.82l185.18 185.2 -28.97 3.82 -169.48 -169.48 13.27 -19.54zm577.29 577.32l221.95 221.97 -14.18 18.59 -217.24 -217.24 9.47 -23.32z"/>
  <path class="fil0" d="M-7808.61 -4643.34l200.91 200.9 -28.98 3.82 -185.18 -185.2 13.25 -19.52zm573.51 573.49l226.69 226.69 -14.21 18.63 -221.95 -221.97 9.47 -23.35z"/>
  <path class="fil0" d="M-7795.35 -4662.88l216.62 216.61 -28.97 3.83 -200.91 -200.9 13.26 -19.54zm569.71 569.71l231.41 231.41 -14.18 18.6 -226.69 -226.69 9.46 -23.32z"/>
  <path class="fil0" d="M-7782.1 -4682.41l232.32 232.32 -28.95 3.82 -216.62 -216.61 13.25 -19.53zm565.92 565.92l236.13 236.13 -14.18 18.6 -231.41 -231.41 9.46 -23.32z"/>
  <path class="fil0" d="M-7768.83 -4701.95l248.03 248.04 -28.98 3.82 -232.32 -232.32 13.27 -19.54zm562.12 562.13l240.86 240.85 -14.2 18.61 -236.13 -236.13 9.47 -23.33z"/>
  <path class="fil0" d="M-7755.56 -4721.5l263.76 263.76 -29 3.83 -248.03 -248.04 13.27 -19.55zm558.33 558.33l245.58 245.57 -14.2 18.63 -240.86 -240.85 9.48 -23.35z"/>
  <path class="fil0" d="M-7742.3 -4741.03l279.46 279.47 -28.96 3.82 -263.76 -263.76 13.26 -19.53zm554.53 554.55l250.29 250.3 -14.17 18.58 -245.58 -245.57 9.46 -23.31z"/>
  <path class="fil0" d="M-7729.05 -4760.56l295.18 295.18 -28.97 3.82 -279.46 -279.47 13.25 -19.53zm550.74 550.74l255.03 255.03 -14.2 18.61 -250.29 -250.3 9.46 -23.34z"/>
  <path class="fil0" d="M-7715.78 -4780.1l310.89 310.9 -28.98 3.82 -295.18 -295.18 13.27 -19.54zm546.94 546.95l259.75 259.75 -14.19 18.61 -255.03 -255.03 9.47 -23.33z"/>
  <path class="fil0" d="M-7702.53 -4799.63l326.61 326.6 -28.97 3.83 -310.89 -310.9 13.25 -19.53zm543.16 543.15l264.47 264.47 -14.19 18.61 -259.75 -259.75 9.47 -23.33z"/>
  <path class="fil0" d="M-7689.27 -4819.16l342.3 342.31 -28.95 3.82 -326.61 -326.6 13.26 -19.53zm539.35 539.38l269.19 269.19 -14.17 18.58 -264.47 -264.47 9.45 -23.3z"/>
  <path class="fil0" d="M-7676 -4838.7l358.02 358.03 -28.99 3.82 -342.3 -342.31 13.27 -19.54zm535.56 535.57l273.91 273.92 -14.2 18.62 -269.19 -269.19 9.48 -23.35z"/>
  <path class="fil0" d="M-7662.76 -4858.21l373.73 373.72 -28.95 3.82 -358.02 -358.03 13.24 -19.51zm531.78 531.76l278.63 278.64 -14.18 18.6 -273.91 -273.92 9.46 -23.32z"/>
  <path class="fil0" d="M-7649.48 -4877.78l389.46 389.46 -29.01 3.83 -373.73 -373.72 13.28 -19.57zm527.97 527.98l283.36 283.36 -14.2 18.63 -278.63 -278.64 9.47 -23.35z"/>
  <path class="fil0" d="M-7636.23 -4897.29l405.15 405.15 -28.94 3.82 -389.46 -389.46 13.25 -19.51zm524.18 524.18l288.08 288.08 -14.18 18.59 -283.36 -283.36 9.46 -23.31z"/>
  <path class="fil0" d="M-7622.98 -4916.82l420.88 420.86 -28.98 3.82 -405.15 -405.15 13.25 -19.53zm520.4 520.38l292.81 292.8 -14.2 18.61 -288.08 -288.08 9.47 -23.33z"/>
  <path class="fil0" d="M-7609.71 -4936.37l436.58 436.59 -28.97 3.82 -420.88 -420.86 13.27 -19.55zm516.59 516.61l297.52 297.53 -14.17 18.59 -292.81 -292.8 9.46 -23.32z"/>
  <path class="fil0" d="M-7596.45 -4955.91l452.31 452.3 -28.99 3.83 -436.58 -436.59 13.26 -19.54zm512.81 512.8l302.25 302.24 -14.21 18.64 -297.52 -297.53 9.48 -23.35z"/>
  <path class="fil0" d="M-7583.2 -4975.43l468.02 468 -28.96 3.82 -452.31 -452.3 13.25 -19.52zm509.01 509l306.98 306.97 -14.18 18.59 -302.25 -302.24 9.45 -23.32z"/>
  <path class="fil0" d="M-7569.94 -4994.96l483.7 483.72 -28.94 3.81 -468.02 -468 13.26 -19.53zm505.21 505.23l311.69 311.69 -14.17 18.58 -306.98 -306.97 9.46 -23.3z"/>
  <path class="fil0" d="M-7556.67 -5014.51l499.44 499.44 -29.01 3.83 -483.7 -483.72 13.27 -19.55zm501.42 501.42l316.42 316.42 -14.21 18.63 -311.69 -311.69 9.48 -23.36z"/>
  <polygon class="fil0" points="-7543.41,-5034.04 -6724.63,-4215.29 -6738.83,-4196.67 -7055.25,-4513.09 -7054.29,-4515.46 -7057.23,-4515.07 -7556.67,-5014.51 "/>
  <polygon class="fil0" points="-7530.15,-5053.59 -6710.46,-4233.88 -6724.63,-4215.29 -7543.41,-5034.04 "/>
  <polygon class="fil0" points="-7516.9,-5073.1 -6696.28,-4252.47 -6710.46,-4233.88 -7530.15,-5053.59 "/>
  <polygon class="fil0" points="-7503.63,-5092.65 -6682.07,-4271.1 -6696.28,-4252.47 -7516.9,-5073.1 "/>
  <polygon class="fil0" points="-7490.37,-5112.18 -6667.89,-4289.7 -6682.07,-4271.1 -7503.63,-5092.65 "/>
  <polygon class="fil0" points="-7477.11,-5131.72 -6653.71,-4308.3 -6667.89,-4289.7 -7490.37,-5112.18 "/>
  <polygon class="fil0" points="-7463.86,-5151.24 -6639.52,-4326.91 -6653.71,-4308.3 -7477.11,-5131.72 "/>
  <polygon class="fil0" points="-7450.6,-5170.78 -6625.33,-4345.52 -6639.52,-4326.91 -7463.86,-5151.24 "/>
  <polygon class="fil0" points="-7437.34,-5190.32 -6611.14,-4364.12 -6625.33,-4345.52 -7450.6,-5170.78 "/>
  <polygon class="fil0" points="-7424.07,-5209.85 -6596.95,-4382.73 -6611.14,-4364.12 -7437.34,-5190.32 "/>
  <polygon class="fil0" points="-7403.99,-5239.44 -6575.46,-4410.91 -6596.95,-4382.73 -7424.07,-5209.85 "/>
  <polygon class="fil0" points="-7383.88,-5269.07 -6553.94,-4439.13 -6575.46,-4410.91 -7403.99,-5239.44 "/>
  <polygon class="fil0" points="-7363.78,-5298.67 -6532.44,-4467.33 -6553.94,-4439.13 -7383.88,-5269.07 "/>
  <polygon class="fil0" points="-7343.69,-5328.28 -6510.93,-4495.53 -6532.44,-4467.33 -7363.78,-5298.67 "/>
  <polygon class="fil0" points="-7323.59,-5357.89 -6489.42,-4523.73 -6510.93,-4495.53 -7343.69,-5328.28 "/>
  <polygon class="fil0" points="-7303.49,-5387.5 -7013.36,-5097.36 -7022.21,-5073.62 -6994.11,-5078.11 -6467.93,-4551.92 -6489.42,-4523.73 -7323.59,-5357.89 "/>
  <path class="fil0" d="M-7283.38 -5417.13l283.54 283.54 -13.52 36.23 -290.13 -290.14 20.11 -29.63zm332.16 332.17l504.81 504.82 -21.52 28.22 -526.18 -526.19 42.89 -6.85z"/>
  <path class="fil0" d="M-7263.29 -5446.73l276.95 276.95 -13.5 36.19 -283.54 -283.54 20.09 -29.6zm354.93 354.92l483.47 483.45 -21.52 28.22 -504.81 -504.82 42.86 -6.85z"/>
  <path class="fil0" d="M-7243.19 -5476.35l270.36 270.35 -13.51 36.22 -276.95 -276.95 20.1 -29.62zm377.71 377.69l462.11 462.09 -21.52 28.21 -483.47 -483.45 42.88 -6.85z"/>
  <path class="fil0" d="M-7223.09 -5505.95l263.76 263.76 -13.5 36.19 -270.36 -270.35 20.1 -29.6zm400.45 400.45l440.75 440.75 -21.48 28.18 -462.11 -462.09 42.84 -6.84z"/>
  <path class="fil0" d="M-7203 -5535.54l257.17 257.16 -13.5 36.19 -263.76 -263.76 20.09 -29.59zm423.2 423.19l419.41 419.41 -21.5 28.19 -440.75 -440.75 42.84 -6.85z"/>
  <path class="fil0" d="M-7182.88 -5565.19l250.56 250.58 -13.51 36.23 -257.17 -257.16 20.12 -29.65zm445.97 445.99l398.03 398.05 -21.51 28.21 -419.41 -419.41 42.89 -6.85z"/>
  <path class="fil0" d="M-7162.79 -5594.78l243.97 243.98 -13.5 36.19 -250.56 -250.58 20.09 -29.59zm468.72 468.74l376.69 376.7 -21.5 28.19 -398.03 -398.05 42.84 -6.84z"/>
  <path class="fil0" d="M-7142.68 -5624.41l237.37 237.38 -13.51 36.23 -243.97 -243.98 20.11 -29.63zm491.5 491.52l355.32 355.33 -21.52 28.22 -376.69 -376.7 42.89 -6.85z"/>
  <path class="fil0" d="M-7122.6 -5654l230.79 230.79 -13.5 36.18 -237.37 -237.38 20.08 -29.59zm514.27 514.26l333.97 333.98 -21.5 28.2 -355.32 -355.33 42.85 -6.85z"/>
  <path class="fil0" d="M-7102.51 -5683.59l224.2 224.2 -13.5 36.18 -230.79 -230.79 20.09 -29.59zm537.01 537.01l312.63 312.63 -21.49 28.19 -333.97 -333.98 42.83 -6.84z"/>
  <path class="fil0" d="M-7082.4 -5713.22l217.6 217.6 -13.51 36.23 -224.2 -224.2 20.11 -29.63zm559.79 559.79l291.26 291.26 -21.52 28.22 -312.63 -312.63 42.89 -6.85z"/>
  <path class="fil0" d="M-7062.32 -5742.81l211.01 211.01 -13.49 36.18 -217.6 -217.6 20.08 -29.59zm582.53 582.53l269.93 269.93 -21.49 28.18 -291.26 -291.26 42.82 -6.85z"/>
  <path class="fil0" d="M-7042.2 -5772.44l204.41 204.4 -13.52 36.24 -211.01 -211.01 20.12 -29.63zm605.33 605.31l248.55 248.54 -21.54 28.24 -269.93 -269.93 42.92 -6.85z"/>
  <path class="fil0" d="M-7022.12 -5802.03l197.83 197.82 -13.5 36.17 -204.41 -204.4 20.08 -29.59zm628.07 628.06l227.22 227.2 -21.49 28.18 -248.55 -248.54 42.82 -6.84z"/>
  <path class="fil0" d="M-7002.01 -5831.65l191.22 191.23 -13.5 36.21 -197.83 -197.82 20.11 -29.62zm650.81 650.83l205.86 205.87 -21.49 28.18 -227.22 -227.2 42.85 -6.85z"/>
  <path class="fil0" d="M-6981.89 -5861.29l184.62 184.63 -13.52 36.24 -191.22 -191.23 20.12 -29.64zm673.58 673.62l184.49 184.5 -21.52 28.22 -205.86 -205.87 42.89 -6.85z"/>
  <path class="fil0" d="M-6961.82 -5890.87l178.04 178.04 -13.49 36.17 -184.62 -184.63 20.07 -29.58zm696.34 696.36l163.15 163.16 -21.49 28.18 -184.49 -184.5 42.83 -6.84z"/>
  <path class="fil0" d="M-6941.71 -5920.5l171.44 171.45 -13.51 36.22 -178.04 -178.04 20.11 -29.63zm719.1 719.14l141.79 141.8 -21.51 28.21 -163.15 -163.16 42.87 -6.85z"/>
  <path class="fil0" d="M-6921.61 -5950.1l164.85 164.85 -13.51 36.2 -171.44 -171.45 20.1 -29.6zm741.87 741.89l120.44 120.44 -21.52 28.21 -141.79 -141.8 42.87 -6.85z"/>
  <path class="fil0" d="M-6901.52 -5979.71l158.26 158.26 -13.5 36.2 -164.85 -164.85 20.09 -29.61zm764.64 764.65l99.08 99.08 -21.5 28.21 -120.44 -120.44 42.86 -6.85z"/>
  <path class="fil0" d="M-6881.42 -6009.31l151.66 151.66 -13.5 36.2 -158.26 -158.26 20.1 -29.6zm787.4 787.4l77.73 77.73 -21.51 28.2 -99.08 -99.08 42.86 -6.85z"/>
  <path class="fil0" d="M-6861.31 -6038.93l145.06 145.07 -13.51 36.21 -151.66 -151.66 20.11 -29.62zm810.15 810.18l56.37 56.37 -21.5 28.2 -77.73 -77.73 42.86 -6.84z"/>
  <path class="fil0" d="M-6841.2 -6068.56l138.46 138.47 -13.51 36.23 -145.06 -145.07 20.11 -29.63zm832.9 832.96l35.02 35.02 -21.51 28.2 -56.37 -56.37 42.86 -6.85z"/>
  <path class="fil0" d="M-6821.12 -6098.15l131.88 131.88 -13.5 36.18 -138.46 -138.47 20.08 -29.59zm855.67 855.7l13.67 13.67 -21.5 28.2 -35.02 -35.02 42.85 -6.85z"/>
  <path class="fil0" d="M-6801.02 -6127.76l125.28 125.29 -13.5 36.2 -131.88 -131.88 20.1 -29.61zm849.24 898.98l-13.67 -13.67 27.44 -4.38 -13.77 18.05z"/>
  <polygon class="fil0" points="-6780.92,-6157.37 -6662.23,-6038.68 -6675.74,-6002.47 -6801.02,-6127.76 "/>
  <polygon class="fil0" points="-6760.84,-6186.96 -6648.74,-6074.86 -6662.23,-6038.68 -6780.92,-6157.37 "/>
  <polygon class="fil0" points="-6740.73,-6216.58 -6635.23,-6111.08 -6648.74,-6074.86 -6760.84,-6186.96 "/>
  <polygon class="fil0" points="-6720.64,-6246.18 -6621.73,-6147.27 -6635.23,-6111.08 -6740.73,-6216.58 "/>
  <polygon class="fil0" points="-6700.53,-6275.81 -6608.21,-6183.49 -6621.73,-6147.27 -6720.64,-6246.18 "/>
  <polygon class="fil0" points="-6680.44,-6305.4 -6594.72,-6219.68 -6608.21,-6183.49 -6700.53,-6275.81 "/>
  <polygon class="fil0" points="-6660.33,-6335.02 -6581.21,-6255.89 -6594.72,-6219.68 -6680.44,-6305.4 "/>
  <polygon class="fil0" points="-6640.22,-6364.65 -6567.7,-6292.12 -6581.21,-6255.89 -6660.33,-6335.02 "/>
  <polygon class="fil0" points="-6620.15,-6394.22 -6554.21,-6328.28 -6567.7,-6292.12 -6640.22,-6364.65 "/>
  <polygon class="fil0" points="-6600.04,-6423.84 -6540.7,-6364.5 -6554.21,-6328.28 -6620.15,-6394.22 "/>
  <polygon class="fil0" points="-6579.94,-6453.46 -6527.19,-6400.71 -6540.7,-6364.5 -6600.04,-6423.84 "/>
  <polygon class="fil0" points="-6559.83,-6483.09 -6513.68,-6436.93 -6527.19,-6400.71 -6579.94,-6453.46 "/>
  <polygon class="fil0" points="-6539.72,-6512.72 -6500.17,-6473.16 -6513.68,-6436.93 -6559.83,-6483.09 "/>
  <polygon class="fil0" points="-6519.64,-6542.3 -6486.67,-6509.34 -6500.17,-6473.16 -6539.72,-6512.72 "/>
  <polygon class="fil0" points="-6499.54,-6571.92 -6473.17,-6545.54 -6486.67,-6509.34 -6519.64,-6542.3 "/>
  <polygon class="fil0" points="-6479.44,-6601.52 -6459.66,-6581.74 -6473.17,-6545.54 -6499.54,-6571.92 "/>
  <polygon class="fil0" points="-6459.35,-6631.13 -6446.16,-6617.94 -6459.66,-6581.74 -6479.44,-6601.52 "/>
  <polygon class="fil0" points="-6439.24,-6660.74 -6432.65,-6654.15 -6446.16,-6617.94 -6459.35,-6631.13 "/>
  <polygon class="fil0" points="-6432.65,-6654.15 -6439.24,-6660.74 -6419.16,-6690.33 "/>
  <path class="fil1" d="M-7624.25 -4690.15c19.76,-29.14 39.26,-58.46 58.62,-87.88l57.31 -88.76 113.35 -178.33 113.82 -178.04 113.91 -177.94 113.68 -178.12 226.27 -356.94 -3.53 -2.33 -238.3 349.04 -118.64 174.83 -118.37 175.05 -118.5 174.94 -118.94 174.67 -58.84 87.73c-19.36,29.42 -38.57,58.91 -57.53,88.58 -19.09,29.6 -37.66,59.55 -56.53,89.29 -18.92,29.71 -37.23,59.8 -55.82,89.71l-18.95 30.48 34.89 -4.51c39.88,-5.15 79.66,-10.76 119.49,-16.2 39.82,-5.39 79.62,-11.07 119.44,-16.79 39.78,-5.61 79.55,-11.6 119.33,-17.5l59.62 -9.1 59.6 -9.49 -0.49 -4.16 -60.2 4.13 -60.15 4.48c-40.08,3.21 -80.18,6.28 -120.22,9.74 -40.05,3.35 -80.11,6.77 -120.13,10.44 -27.87,2.54 -55.74,5.04 -83.57,7.58 13.35,-19.05 26.69,-38.13 39.76,-57.36 19.86,-29.1 40.01,-58 59.62,-87.24z"/>
  <path class="fil1" d="M-6178.11 -5140.47l-119.56 15.48 -119.55 15.7c-39.83,5.08 -79.63,10.73 -119.45,16.2l-59.73 8.25 -59.69 8.57 0.28 2.79 60.12 -5.04 60.07 -5.37c40.01,-3.6 80.08,-7.02 120.05,-10.97l120.02 -11.57 94.61 -9.24 -47.87 64.38c-20.78,28.33 -41.8,56.44 -62.37,84.91l-61.77 85.38 -60.93 85.93 -242.28 344.84 -242.57 344.67 -241.76 345.22 2.29 1.63 249.49 -339.66 248.74 -340.25 248.96 -340.04 61.87 -85.27 61.03 -85.9c20.39,-28.61 40.29,-57.54 60.47,-86.29l59.94 -86.64 14.46 -20.92 -24.87 3.21z"/>
  <path class="fil2" d="M12306.31 -80.73l49.71 -49.71 77.54 0 -130.44 130.44c0.69,-27.01 1.77,-53.92 3.19,-80.73z"/>
  <path class="fil2" d="M12307.95 250.4l380.84 -380.84 77.54 0 -453.03 453.04c-2.08,-23.98 -3.86,-48.05 -5.35,-72.2z"/>
  <path class="fil2" d="M12342.03 549.1l679.5 -679.54 77.54 0 -745.25 745.26c-4.17,-21.82 -8.11,-43.73 -11.79,-65.72z"/>
  <path class="fil2" d="M12401.61 822.22l952.7 -952.66 77.54 0 -1013.19 1013.2c-5.91,-20.09 -11.58,-40.27 -17.05,-60.54z"/>
  <path class="fil2" d="M12482.34 1074.27l1204.71 -1204.71 77.54 0 -1260.77 1260.81c-7.37,-18.6 -14.48,-37.32 -21.48,-56.1z"/>
  <path class="fil2" d="M12585.63 1317.04l-0.01 0c-1.45,-3.01 -2.79,-6.07 -4.23,-9.08l1438.4 -1438.4 77.58 0 -1490.41 1490.41z"/>
  <path class="fil2" d="M12696.94 1525.18l1655.62 -1655.62 77.55 0 -1704.08 1704.12c-9.87,-16.05 -19.53,-32.24 -29.09,-48.5z"/>
  <path class="fil2" d="M12827.42 1727.48l1857.92 -1857.92 77.54 0 -1902.92 1902.89c-10.96,-14.9 -21.86,-29.85 -32.54,-44.97z"/>
  <path class="fil2" d="M12972.24 1915.4l2045.84 -2045.84 77.54 0 -2087.74 2087.74c-12.04,-13.83 -23.86,-27.84 -35.64,-41.9z"/>
  <path class="fil2" d="M13130.73 2089.68l2220.13 -2220.12 77.54 0 -2258.75 2258.75c-13.08,-12.77 -26.08,-25.62 -38.92,-38.63z"/>
  <path class="fil2" d="M13302.74 2250.41l2380.86 -2380.85 77.54 0 -2416.38 2416.37c-14.13,-11.7 -28.12,-23.56 -42.02,-35.52z"/>
  <path class="fil2" d="M13488.58 2397.36l2527.79 -2527.8 77.54 0 -2560.03 2560.07c-15.21,-10.61 -30.31,-21.37 -45.3,-32.27z"/>
  <path class="fil2" d="M13688.32 2530.35l2660.79 -2660.79 77.58 0 -2689.64 2689.61c-16.34,-9.47 -32.6,-19.04 -48.73,-28.82z"/>
  <path class="fil2" d="M13903.22 2648.2l2778.67 -2778.64 77.54 0 -2803.89 2803.89c-17.54,-8.24 -34.97,-16.67 -52.32,-25.25z"/>
  <path class="fil2" d="M14134.07 2750.12l2880.56 -2880.56 77.57 0 -2901.88 2901.89c-18.86,-6.88 -37.58,-14.06 -56.25,-21.33z"/>
  <path class="fil2" d="M14382.87 2834.06l2964.53 -2964.5 77.54 0 -2981.16 2981.16c-20.38,-5.35 -40.71,-10.87 -60.91,-16.66z"/>
  <path class="fil2" d="M14652.43 2897.27l3027.71 -3027.71 77.54 0 -3039.03 3039.07c-22.16,-3.55 -44.24,-7.31 -66.22,-11.36z"/>
  <path class="fil2" d="M14946.58 2935.9l3066.34 -3066.34 30.15 0c1.03,14.85 1.96,29.72 2.77,44.62l-3026.55 3026.55c-24.32,-1.32 -48.56,-2.92 -72.71,-4.83z"/>
  <path class="fil2" d="M15271.94 2943.28l2776.5 -2776.5c-0.89,27.24 -2.18,54.37 -3.83,81.41l-2691.3 2691.26c-27.03,1.64 -54.15,2.94 -81.37,3.83z"/>
  <path class="fil2" d="M15640.46 2907.53l2372.22 -2372.22c-5.14,31.67 -10.78,63.17 -16.95,94.49l-2260.78 2260.78c-31.31,6.17 -62.82,11.81 -94.49,16.95z"/>
  <path class="fil2" d="M16081.25 2799.48l1823.37 -1823.36c-13.47,40.64 -27.86,80.84 -43.08,120.65l-1659.62 1659.62zm-37.51 14.26l-0.29 0.11c-21.72,7.95 -43.54,15.68 -65.51,23.07l-0.53 0.18 -0.07 0.03 -0.45 0.15c-5.41,1.8 -10.89,3.49 -16.31,5.29z"/>
  <path class="fil2" d="M16714.51 2499l889.63 -889.63c-61.71,97.19 -129.09,190.42 -201.68,279.22l-408.89 408.86c-14.15,11.57 -28.33,23.11 -42.7,34.4l-0.27 0.21c-75.7,59.5 -154.54,115.16 -236.09,166.94z"/>
  <path class="fil0" d="M5500.21 -7396.58l422.38 402.56c4.95,4.96 8.25,9.29 9.9,13.01 1.66,3.72 2.48,6.81 2.48,9.29 0,7.43 -2.68,13.83 -8.05,19.2 -5.37,5.37 -11.77,8.05 -19.2,8.05l-76.8 0c-11.56,0 -21.05,-2.27 -28.48,-6.81 -7.44,-4.54 -12.8,-8.47 -16.11,-11.77l-350.53 -334.44 0 319.58c0,9.08 -3.31,16.92 -9.91,23.53 -6.61,6.61 -14.45,9.91 -23.54,9.91l-50.78 0c-9.09,0 -16.93,-3.3 -23.54,-9.91 -6.6,-6.61 -9.91,-14.45 -9.91,-23.53l0 -800.17c0,-9.08 3.31,-16.93 9.91,-23.54 6.61,-6.6 14.45,-9.9 23.54,-9.9l50.78 0c9.09,0 16.93,3.3 23.54,9.9 6.6,6.61 9.91,14.46 9.91,23.54l0 288.6 330.72 -303.47c3.3,-3.3 8.67,-7.22 16.1,-11.76 7.43,-4.54 16.93,-6.81 28.49,-6.81l71.84 0c7.43,0 13.83,2.68 19.2,8.05 5.36,5.36 8.05,11.76 8.05,19.2 0,2.47 -0.83,5.57 -2.48,9.29 -1.65,3.71 -4.95,8.05 -9.91,13l-397.6 365.4z"/>
  <path id="1" class="fil0" d="M5993.19 -7106.73c0,-33.03 6.6,-61.94 19.82,-86.71 13.21,-24.77 31.38,-45.83 54.5,-63.17 23.12,-17.34 50.16,-31.38 81.13,-42.11 30.97,-10.74 63.79,-19 98.47,-24.78l174.65 -28.49 0 -16.1c0,-42.11 -13.83,-73.7 -41.49,-94.76 -27.67,-21.05 -62.14,-31.58 -103.43,-31.58 -36.33,0 -63.79,6.61 -82.37,19.82 -18.58,13.21 -34.48,28.9 -47.69,47.07 -4.95,6.6 -10.32,11.14 -16.1,13.62 -5.78,2.48 -13.63,3.72 -23.54,3.72l-37.16 0c-9.08,0 -17.13,-3.31 -24.15,-9.91 -7.02,-6.61 -10.11,-14.45 -9.29,-23.54 1.65,-18.16 8.88,-36.74 21.68,-55.74 12.8,-18.99 30.14,-35.92 52.02,-50.78 21.88,-14.86 47.07,-27.04 75.56,-36.54 28.49,-9.5 58.83,-14.24 91.04,-14.24 37.16,0 71.63,5.36 103.43,16.1 31.79,10.73 59.04,26.42 81.75,47.07 22.71,20.64 40.46,46.24 53.26,76.79 12.8,30.56 19.2,65.65 19.2,105.29l0 377.79c0,9.08 -3.3,16.92 -9.91,23.53 -6.61,6.61 -14.45,9.91 -23.53,9.91l-45.83 0c-9.09,0 -16.93,-3.3 -23.54,-9.91 -6.61,-6.61 -9.91,-14.45 -9.91,-23.53l0 -50.79c-7.43,15.69 -18.99,29.52 -34.68,41.5 -15.69,11.97 -33.65,22.09 -53.88,30.34 -20.23,8.26 -41.29,14.45 -63.17,18.58 -21.89,4.13 -42.32,6.2 -61.32,6.2 -32.2,0 -61.72,-4.55 -88.56,-13.63 -26.84,-9.08 -49.55,-21.26 -68.13,-36.54 -18.58,-15.28 -33.03,-33.65 -43.35,-55.12 -10.32,-21.47 -15.48,-44.59 -15.48,-69.36zm227.91 68.12c29.73,0 56.98,-4.54 81.75,-13.62 24.77,-9.09 46.04,-21.68 63.79,-37.78 17.76,-16.1 31.38,-35.3 40.88,-57.6 9.49,-22.29 14.24,-47.07 14.24,-74.32l0 -30.96 -146.16 23.53c-52.02,8.26 -93.31,21.47 -123.86,39.64 -30.56,18.16 -45.83,41.7 -45.83,70.6 0,9.08 2.06,18.17 6.19,27.25 4.13,9.08 10.73,17.75 19.82,26.01 9.08,8.26 20.85,14.87 35.3,19.82 14.45,4.96 32.41,7.43 53.88,7.43z"/>
  <path id="2" class="fil0" d="M7099.3 -7815.24c0,28.9 -6.4,55.33 -19.2,79.27 -12.8,23.95 -28.9,47.28 -48.31,69.99 -19.4,22.7 -40.87,45.83 -64.41,69.36 -23.53,23.54 -46.45,49.34 -68.74,77.42 20.64,-4.96 43.35,-7.44 68.12,-7.44 41.29,0 79.28,6.61 113.96,19.82 34.68,13.22 64.62,32.62 89.8,58.22 25.19,25.6 44.8,56.77 58.84,93.52 14.04,36.74 21.06,78.65 21.06,125.72 0,43.77 -7.02,84.02 -21.06,120.77 -14.04,36.75 -33.65,68.12 -58.84,94.14 -25.18,26.01 -55.12,46.24 -89.8,60.69 -34.68,14.45 -72.67,21.68 -113.96,21.68 -41.28,0 -79.27,-7.23 -113.95,-21.68 -34.68,-14.45 -64.62,-34.68 -89.8,-60.69 -25.19,-26.02 -44.8,-57.39 -58.84,-94.14 -14.04,-36.75 -21.06,-77 -21.06,-120.77 0,-63.58 7.44,-119.12 22.3,-166.6 14.86,-47.48 33.65,-88.97 56.36,-124.48 22.71,-35.51 47.07,-66.48 73.08,-92.9 26.01,-26.43 50.37,-50.79 73.08,-73.08 22.71,-22.3 41.49,-43.56 56.36,-63.79 14.86,-20.23 22.29,-41.91 22.29,-65.03 0,-9.08 3.31,-16.93 9.91,-23.54 6.61,-6.6 14.45,-9.9 23.54,-9.9l45.83 0c9.08,0 16.92,3.3 23.53,9.9 6.61,6.61 9.91,14.46 9.91,23.54zm-132.54 395.13c-57.8,0 -100.74,17.55 -128.81,52.64 -28.08,35.1 -42.12,81.13 -42.12,138.11 0,56.98 14.04,103.01 42.12,138.11 28.07,35.1 71.01,52.64 128.81,52.64 57.81,0 100.75,-17.54 128.82,-52.64 28.08,-35.1 42.12,-81.13 42.12,-138.11 0,-56.98 -14.04,-103.01 -42.12,-138.11 -28.07,-35.09 -71.01,-52.64 -128.82,-52.64z"/>
  <path id="3" class="fil0" d="M7371.8 -7328.45c3.3,-37.99 12.39,-73.49 27.25,-106.53 14.87,-33.03 34.27,-61.93 58.22,-86.7 23.95,-24.77 52.64,-44.18 86.08,-58.22 33.45,-14.04 70.81,-21.05 112.1,-21.05 44.59,0 84.44,7.22 119.53,21.67 35.1,14.45 65.03,35.3 89.8,62.55 24.78,27.25 43.77,60.28 56.98,99.1 13.21,38.81 19.82,82.16 19.82,130.05l0 33.45c0,9.08 -3.3,16.93 -9.91,23.53 -6.61,6.61 -14.45,9.91 -23.53,9.91l-426.1 0 0 7.43c1.65,56.16 18.79,99.3 51.4,129.44 32.62,30.14 73.29,45.21 122.01,45.21 45.42,0 79.48,-6.4 102.19,-19.2 22.71,-12.8 41.08,-27.04 55.12,-42.73 6.61,-6.61 12.39,-11.15 17.34,-13.63 4.96,-2.47 12.39,-3.71 22.3,-3.71l37.16 0c9.08,0 17.34,3.3 24.77,9.91 7.43,6.6 10.32,14.45 8.67,23.53 -2.48,14.87 -9.5,31.18 -21.06,48.93 -11.56,17.75 -28.28,34.27 -50.16,49.55 -21.88,15.27 -49.14,28.07 -81.75,38.39 -32.62,10.33 -70.81,15.49 -114.58,15.49 -41.29,0 -78.45,-7.23 -111.48,-21.68 -33.03,-14.45 -61.72,-34.27 -86.08,-59.46 -24.36,-25.18 -43.97,-54.91 -58.84,-89.18 -14.86,-34.27 -23.95,-71.63 -27.25,-112.1 -4.13,-37.98 -4.13,-75.97 0,-113.95zm110.24 3.71l348.06 0 0 -3.71c0,-50.37 -15.89,-90.63 -47.69,-120.77 -31.79,-30.14 -74.11,-45.21 -126.96,-45.21 -23.95,0 -46.24,3.92 -66.89,11.77 -20.64,7.84 -38.81,18.99 -54.5,33.44 -15.69,14.45 -28.07,32 -37.16,52.64 -9.08,20.65 -14.03,43.36 -14.86,68.13l0 3.71z"/>
  <path id="4" class="fil0" d="M8163.3 -7555.12c0,-9.09 3.3,-16.93 9.91,-23.54 6.61,-6.6 14.45,-9.91 23.53,-9.91l417.43 0c9.08,0 16.93,3.31 23.53,9.91 6.61,6.61 9.91,14.45 9.91,23.54l0 577.21c0,9.08 -3.3,16.92 -9.91,23.53 -6.6,6.61 -14.45,9.91 -23.53,9.91l-45.83 0c-9.08,0 -16.93,-3.3 -23.54,-9.91 -6.6,-6.61 -9.9,-14.45 -9.9,-23.53l0 -504.13 -258.88 0 0 323.28c0,33.86 -3.51,64.62 -10.53,92.28 -7.02,27.67 -18.58,51.41 -34.68,71.23 -16.11,19.81 -37.37,35.3 -63.79,46.44 -26.43,11.15 -59.05,16.73 -97.86,16.73l-14.86 0c-9.08,0 -16.93,-3.31 -23.54,-9.91 -6.6,-6.61 -9.9,-14.45 -9.9,-23.54l0 -39.63c0,-9.09 3.3,-16.93 9.9,-23.54 6.61,-6.6 14.46,-9.91 23.54,-9.91l14.86 0c37.99,0 63.17,-10.94 75.56,-32.82 12.39,-21.88 18.58,-51.41 18.58,-88.57l0 -395.12z"/>
  <path id="5" class="fil0" d="M8866.85 -6944.47c-9.08,0 -16.93,-3.3 -23.53,-9.91 -6.61,-6.61 -9.91,-14.45 -9.91,-23.53l0 -577.21c0,-9.09 3.3,-16.93 9.91,-23.54 6.6,-6.6 14.45,-9.91 23.53,-9.91l45.83 0c9.09,0 16.93,3.31 23.54,9.91 6.6,6.61 9.91,14.45 9.91,23.54l0 125.1 133.77 0c39.64,0 75.76,5.78 108.38,17.34 32.62,11.56 60.7,27.87 84.23,48.93 23.53,21.05 41.91,46.65 55.12,76.79 13.21,30.14 19.82,63.38 19.82,99.71 0,36.34 -6.61,69.58 -19.82,99.72 -13.21,30.14 -31.59,55.74 -55.12,76.79 -23.53,21.06 -51.61,37.37 -84.23,48.93 -32.62,11.56 -68.74,17.34 -108.38,17.34l-213.05 0zm369.12 -242.78c0,-24.77 -4.34,-45.83 -13.01,-63.17 -8.67,-17.34 -20.64,-31.38 -35.92,-42.11 -15.27,-10.74 -33.65,-18.58 -55.12,-23.53 -21.47,-4.96 -44.59,-7.44 -69.36,-7.44l-116.43 0 0 272.51 116.43 0c24.77,0 47.89,-2.48 69.36,-7.44 21.47,-4.95 39.85,-12.8 55.12,-23.53 15.28,-10.74 27.25,-24.77 35.92,-42.11 8.67,-17.35 13.01,-38.4 13.01,-63.18z"/>
  <path class="fil0" d="M5296.27 -6077.59c0.94,-52.68 10.11,-102.3 27.51,-148.87 17.41,-46.57 42.57,-87.02 75.5,-121.35 32.92,-34.34 73.38,-61.62 121.35,-81.85 47.98,-20.23 103.01,-30.34 165.1,-30.34 62.09,0 117.13,10.11 165.1,30.34 47.98,20.23 88.43,47.51 121.36,81.85 32.92,34.33 58.09,74.78 75.49,121.35 17.41,46.57 26.58,96.19 27.52,148.87 2.82,83.73 2.82,167.45 0,251.18 -1.88,52.68 -11.52,102.31 -28.93,148.87 -17.4,46.57 -42.57,87.26 -75.49,122.06 -32.93,34.81 -73.15,62.09 -120.65,81.85 -47.51,19.75 -102.31,29.63 -164.4,29.63 -62.09,0 -116.88,-9.88 -164.39,-29.63 -47.51,-19.76 -87.73,-47.04 -120.65,-81.85 -32.93,-34.8 -58.09,-75.49 -75.5,-122.06 -17.4,-46.56 -27.04,-96.19 -28.92,-148.87 -2.83,-83.73 -2.83,-167.45 0,-251.18zm644.87 7.06c-1.88,-44.22 -9.17,-82.79 -21.87,-115.71 -12.7,-32.93 -30.34,-60.21 -52.91,-81.85 -22.58,-21.63 -49.16,-37.86 -79.73,-48.68 -30.58,-10.82 -64.21,-16.23 -100.9,-16.23 -36.69,0 -70.32,5.41 -100.89,16.23 -30.58,10.82 -57.15,27.05 -79.73,48.68 -22.58,21.64 -40.45,48.92 -53.62,81.85 -13.17,32.92 -20.23,71.49 -21.17,115.71 -1.88,42.33 -2.82,81.84 -2.82,118.53 0,36.69 0.94,76.2 2.82,118.53 0.94,44.22 8,82.79 21.17,115.72 13.17,32.92 31.04,60.2 53.62,81.84 22.58,21.64 49.15,37.86 79.73,48.68 30.57,10.82 64.2,16.23 100.89,16.23 36.69,0 70.32,-5.41 100.9,-16.23 30.57,-10.82 57.15,-27.04 79.73,-48.68 22.57,-21.64 40.21,-48.92 52.91,-81.84 12.7,-32.93 19.99,-71.5 21.87,-115.72 1.89,-42.33 2.83,-81.84 2.83,-118.53 0,-36.69 -0.94,-76.2 -2.83,-118.53z"/>
  <path id="1" class="fil0" d="M7007.95 -6445.89c10.35,0 19.28,3.77 26.81,11.29 7.52,7.53 11.29,16.46 11.29,26.81l0 911.58c0,10.35 -3.77,19.29 -11.29,26.81 -7.53,7.53 -16.46,11.29 -26.81,11.29l-57.86 0c-10.35,0 -19.28,-3.76 -26.81,-11.29 -7.53,-7.52 -11.29,-16.46 -11.29,-26.81l0 -822.68 -496.71 0 0 822.68c0,10.35 -3.76,19.29 -11.29,26.81 -7.52,7.53 -16.46,11.29 -26.81,11.29l-57.85 0c-10.35,0 -19.29,-3.76 -26.82,-11.29 -7.52,-7.52 -11.28,-16.46 -11.28,-26.81l0 -911.58c0,-10.35 3.76,-19.28 11.28,-26.81 7.53,-7.52 16.47,-11.29 26.82,-11.29l688.62 0z"/>
  <path id="2" class="fil0" d="M7899.77 -6445.89c10.34,0 19.28,3.77 26.81,11.29 7.52,7.53 11.29,16.46 11.29,26.81l0 50.8c0,10.35 -3.77,19.29 -11.29,26.81 -7.53,7.53 -16.47,11.29 -26.81,11.29l-263.88 0 0 822.68c0,10.35 -3.76,19.29 -11.29,26.81 -7.53,7.53 -16.46,11.29 -26.81,11.29l-57.86 0c-10.35,0 -19.28,-3.76 -26.81,-11.29 -7.52,-7.52 -11.29,-16.46 -11.29,-26.81l0 -822.68 -263.87 0c-10.35,0 -19.29,-3.76 -26.82,-11.29 -7.52,-7.52 -11.28,-16.46 -11.28,-26.81l0 -50.8c0,-10.35 3.76,-19.28 11.28,-26.81 7.53,-7.52 16.47,-11.29 26.82,-11.29l661.81 0z"/>
  <path id="3" class="fil0" d="M8620.84 -6445.89c10.35,0 19.29,3.77 26.81,11.29 7.53,7.53 11.29,16.46 11.29,26.81l0 50.8c0,8.47 -1.41,17.41 -4.23,26.81 -2.82,9.41 -6.59,19.29 -11.29,29.64l-313.27 808.56c-3.76,8.47 -8.7,16.23 -14.81,23.29 -6.12,7.05 -14.82,10.58 -26.11,10.58l-64.91 0c-9.41,0 -17.4,-3.29 -23.99,-9.88 -6.58,-6.58 -9.88,-14.58 -9.88,-23.99 0,-1.88 0.24,-3.99 0.71,-6.35 0.47,-2.35 1.65,-5.88 3.53,-10.58l314.67 -809.98 -462.84 0c-10.35,0 -19.29,-3.76 -26.81,-11.29 -7.53,-7.52 -11.29,-16.46 -11.29,-26.81l0 -50.8c0,-10.35 3.76,-19.28 11.29,-26.81 7.52,-7.52 16.46,-11.29 26.81,-11.29l574.32 0z"/>
  <path id="4" class="fil0" d="M9186.7 -5496.21c0,10.35 -3.77,19.29 -11.29,26.81 -7.53,7.53 -16.47,11.29 -26.81,11.29l-57.86 0c-10.35,0 -19.29,-3.76 -26.81,-11.29 -7.53,-7.52 -11.29,-16.46 -11.29,-26.81l0 -777.52 -228.6 173.56c-8.47,7.53 -17.87,10.35 -28.22,8.47 -10.35,-1.88 -18.82,-6.58 -25.4,-14.11l-33.87 -43.74c-6.58,-8.47 -9.17,-17.88 -7.76,-28.23 1.41,-10.34 6.35,-18.81 14.82,-25.4l301.97 -231.42c7.53,-5.64 15.06,-8.94 22.58,-9.88 7.53,-0.94 15.05,-1.41 22.58,-1.41l57.86 0c10.34,0 19.28,3.77 26.81,11.29 7.52,7.53 11.29,16.46 11.29,26.81l0 911.58z"/>
  <path id="5" class="fil0" d="M5296.27 -6077.59c0.94,-52.68 10.11,-102.3 27.51,-148.87 17.41,-46.57 42.57,-87.02 75.5,-121.35 32.92,-34.34 73.38,-61.62 121.35,-81.85 47.98,-20.23 103.01,-30.34 165.1,-30.34 62.09,0 117.13,10.11 165.1,30.34 47.98,20.23 88.43,47.51 121.36,81.85 32.92,34.33 58.09,74.78 75.49,121.35 17.41,46.57 26.58,96.19 27.52,148.87 2.82,83.73 2.82,167.45 0,251.18 -1.88,52.68 -11.52,102.31 -28.93,148.87 -17.4,46.57 -42.57,87.26 -75.49,122.06 -32.93,34.81 -73.15,62.09 -120.65,81.85 -47.51,19.75 -102.31,29.63 -164.4,29.63 -62.09,0 -116.88,-9.88 -164.39,-29.63 -47.51,-19.76 -87.73,-47.04 -120.65,-81.85 -32.93,-34.8 -58.09,-75.49 -75.5,-122.06 -17.4,-46.56 -27.04,-96.19 -28.92,-148.87 -2.83,-83.73 -2.83,-167.45 0,-251.18zm644.87 7.06c-1.88,-44.22 -9.17,-82.79 -21.87,-115.71 -12.7,-32.93 -30.34,-60.21 -52.91,-81.85 -22.58,-21.63 -49.16,-37.86 -79.73,-48.68 -30.58,-10.82 -64.21,-16.23 -100.9,-16.23 -36.69,0 -70.32,5.41 -100.89,16.23 -30.58,10.82 -57.15,27.05 -79.73,48.68 -22.58,21.64 -40.45,48.92 -53.62,81.85 -13.17,32.92 -20.23,71.49 -21.17,115.71 -1.88,42.33 -2.82,81.84 -2.82,118.53 0,36.69 0.94,76.2 2.82,118.53 0.94,44.22 8,82.79 21.17,115.72 13.17,32.92 31.04,60.2 53.62,81.84 22.58,21.64 49.15,37.86 79.73,48.68 30.57,10.82 64.2,16.23 100.89,16.23 36.69,0 70.32,-5.41 100.9,-16.23 30.57,-10.82 57.15,-27.04 79.73,-48.68 22.57,-21.64 40.21,-48.92 52.91,-81.84 12.7,-32.93 19.99,-71.5 21.87,-115.72 1.89,-42.33 2.83,-81.84 2.83,-118.53 0,-36.69 -0.94,-76.2 -2.83,-118.53z"/>
  <path id="6" class="fil0" d="M7007.95 -6445.89c10.35,0 19.28,3.77 26.81,11.29 7.52,7.53 11.29,16.46 11.29,26.81l0 911.58c0,10.35 -3.77,19.29 -11.29,26.81 -7.53,7.53 -16.46,11.29 -26.81,11.29l-57.86 0c-10.35,0 -19.28,-3.76 -26.81,-11.29 -7.53,-7.52 -11.29,-16.46 -11.29,-26.81l0 -822.68 -496.71 0 0 822.68c0,10.35 -3.76,19.29 -11.29,26.81 -7.52,7.53 -16.46,11.29 -26.81,11.29l-57.85 0c-10.35,0 -19.29,-3.76 -26.82,-11.29 -7.52,-7.52 -11.28,-16.46 -11.28,-26.81l0 -911.58c0,-10.35 3.76,-19.28 11.28,-26.81 7.53,-7.52 16.47,-11.29 26.82,-11.29l688.62 0z"/>
  <polygon class="fil0" points="4508.13,-8595.33 2949.14,-6298.57 3873,-6420.46 3237.84,-4855.04 4989.28,-7151.83 3905.08,-6978.62 "/>
  <polygon class="fil0" points="3247.3,-4878.39 3252.01,-4873.67 3237.84,-4855.08 "/>
  <polygon class="fil0" points="3256.76,-4901.72 3266.2,-4892.28 3252.01,-4873.67 3247.3,-4878.39 "/>
  <polygon class="fil0" points="3266.24,-4925.06 3280.4,-4910.9 3266.2,-4892.28 3256.76,-4901.72 "/>
  <polygon class="fil0" points="3275.69,-4948.37 3294.58,-4929.49 3280.4,-4910.9 3266.24,-4925.06 "/>
  <polygon class="fil0" points="3285.15,-4971.68 3308.76,-4948.08 3294.58,-4929.49 3275.69,-4948.37 "/>
  <polygon class="fil0" points="3294.62,-4995.02 3322.95,-4966.69 3308.76,-4948.08 3285.15,-4971.68 "/>
  <polygon class="fil0" points="3304.1,-5018.37 3337.15,-4985.32 3322.95,-4966.69 3294.62,-4995.02 "/>
  <polygon class="fil0" points="3313.55,-5041.68 3351.33,-5003.9 3337.15,-4985.32 3304.1,-5018.37 "/>
  <polygon class="fil0" points="3323.01,-5065 3365.51,-5022.5 3351.33,-5003.9 3313.55,-5041.68 "/>
  <polygon class="fil0" points="3332.49,-5088.34 3379.71,-5041.12 3365.51,-5022.5 3323.01,-5065 "/>
  <polygon class="fil0" points="3341.96,-5111.68 3393.9,-5059.74 3379.71,-5041.12 3332.49,-5088.34 "/>
  <polygon class="fil0" points="3351.42,-5135 3408.08,-5078.33 3393.9,-5059.74 3341.96,-5111.68 "/>
  <polygon class="fil0" points="3360.88,-5158.33 3422.27,-5096.94 3408.08,-5078.33 3351.42,-5135 "/>
  <polygon class="fil0" points="3370.35,-5181.66 3436.47,-5115.55 3422.27,-5096.94 3360.88,-5158.33 "/>
  <polygon class="fil0" points="3379.82,-5205 3450.66,-5134.16 3436.47,-5115.55 3370.35,-5181.66 "/>
  <polygon class="fil0" points="3389.28,-5228.32 3464.84,-5152.76 3450.66,-5134.16 3379.82,-5205 "/>
  <polygon class="fil0" points="3398.75,-5251.64 3479.03,-5171.36 3464.84,-5152.76 3389.28,-5228.32 "/>
  <polygon class="fil0" points="3408.21,-5274.97 3493.22,-5189.97 3479.03,-5171.36 3398.75,-5251.64 "/>
  <polygon class="fil0" points="3417.68,-5298.31 3507.41,-5208.58 3493.22,-5189.97 3408.21,-5274.97 "/>
  <polygon class="fil0" points="3427.15,-5321.64 3521.6,-5227.19 3507.41,-5208.58 3417.68,-5298.31 "/>
  <polygon class="fil0" points="3436.61,-5344.95 3535.78,-5245.78 3521.6,-5227.19 3427.15,-5321.64 "/>
  <polygon class="fil0" points="3446.08,-5368.3 3549.98,-5264.4 3535.78,-5245.78 3436.61,-5344.95 "/>
  <polygon class="fil0" points="3455.55,-5391.64 3564.17,-5283.02 3549.98,-5264.4 3446.08,-5368.3 "/>
  <polygon class="fil0" points="3465.01,-5414.95 3578.35,-5301.61 3564.17,-5283.02 3455.55,-5391.64 "/>
  <polygon class="fil0" points="3474.47,-5438.26 3592.53,-5320.2 3578.35,-5301.61 3465.01,-5414.95 "/>
  <polygon class="fil0" points="3483.94,-5461.61 3606.74,-5338.83 3592.53,-5320.2 3474.47,-5438.26 "/>
  <polygon class="fil0" points="3493.41,-5484.94 3620.92,-5357.43 3606.74,-5338.83 3483.94,-5461.61 "/>
  <polygon class="fil0" points="3502.87,-5508.27 3635.11,-5376.03 3620.92,-5357.43 3493.41,-5484.94 "/>
  <polygon class="fil0" points="3512.34,-5531.6 3649.29,-5394.64 3635.11,-5376.03 3502.87,-5508.27 "/>
  <polygon class="fil0" points="3521.81,-5554.93 3663.49,-5413.25 3649.29,-5394.64 3512.34,-5531.6 "/>
  <polygon class="fil0" points="3531.27,-5578.24 3677.66,-5431.84 3663.49,-5413.25 3521.81,-5554.93 "/>
  <polygon class="fil0" points="3540.74,-5601.59 3691.86,-5450.46 3677.66,-5431.84 3531.27,-5578.24 "/>
  <polygon class="fil0" points="3550.2,-5624.9 3706.04,-5469.06 3691.86,-5450.46 3540.74,-5601.59 "/>
  <polygon class="fil0" points="3559.67,-5648.24 3720.24,-5487.68 3706.04,-5469.06 3550.2,-5624.9 "/>
  <polygon class="fil0" points="3569.13,-5671.55 3734.41,-5506.26 3720.24,-5487.68 3559.67,-5648.24 "/>
  <path class="fil0" d="M2959.57 -6313.93l12.35 12.35 -22.78 3.01 10.43 -15.36zm619.04 619.02l170.02 170.01 -14.22 18.64 -165.28 -165.29 9.48 -23.36z"/>
  <path class="fil0" d="M2972.83 -6333.48l28.08 28.08 -28.99 3.82 -12.35 -12.35 13.26 -19.55zm615.23 615.26l174.74 174.74 -14.17 18.58 -170.02 -170.01 9.45 -23.31z"/>
  <path class="fil0" d="M2986.08 -6353l43.78 43.78 -28.95 3.82 -28.08 -28.08 13.25 -19.52zm611.45 611.44l179.46 179.46 -14.19 18.62 -174.74 -174.74 9.47 -23.34z"/>
  <path class="fil0" d="M2999.35 -6372.54l59.5 59.5 -28.99 3.82 -43.78 -43.78 13.27 -19.54zm607.65 607.65l184.18 184.18 -14.19 18.61 -179.46 -179.46 9.47 -23.33z"/>
  <path class="fil0" d="M3012.62 -6392.08l75.21 75.21 -28.98 3.83 -59.5 -59.5 13.27 -19.54zm603.85 603.86l188.9 188.91 -14.19 18.6 -184.18 -184.18 9.47 -23.33z"/>
  <path class="fil0" d="M3025.86 -6411.6l90.92 90.91 -28.95 3.82 -75.21 -75.21 13.24 -19.52zm600.06 600.08l193.62 193.63 -14.17 18.58 -188.9 -188.91 9.45 -23.3z"/>
  <path class="fil0" d="M3039.12 -6431.13l106.62 106.62 -28.96 3.82 -90.92 -90.91 13.26 -19.53zm596.28 596.25l198.35 198.35 -14.21 18.64 -193.62 -193.63 9.48 -23.36z"/>
  <path class="fil0" d="M3052.38 -6450.67l122.34 122.34 -28.98 3.82 -106.62 -106.62 13.26 -19.54zm592.48 592.48l203.07 203.07 -14.18 18.59 -198.35 -198.35 9.46 -23.31z"/>
  <path class="fil0" d="M3065.65 -6470.21l138.05 138.05 -28.98 3.83 -122.34 -122.34 13.27 -19.54zm588.68 588.68l207.79 207.8 -14.19 18.61 -203.07 -203.07 9.47 -23.34z"/>
  <path class="fil0" d="M3078.91 -6489.75l153.77 153.77 -28.98 3.82 -138.05 -138.05 13.26 -19.54zm584.88 584.9l212.51 212.53 -14.18 18.59 -207.79 -207.8 9.46 -23.32z"/>
  <path class="fil0" d="M3092.16 -6509.28l169.48 169.48 -28.96 3.82 -153.77 -153.77 13.25 -19.53zm581.09 581.1l217.24 217.24 -14.19 18.62 -212.51 -212.53 9.46 -23.33z"/>
  <path class="fil0" d="M3105.43 -6528.82l185.18 185.2 -28.97 3.82 -169.48 -169.48 13.27 -19.54zm577.29 577.32l221.95 221.97 -14.18 18.59 -217.24 -217.24 9.47 -23.32z"/>
  <path class="fil0" d="M3118.68 -6548.34l200.91 200.9 -28.98 3.82 -185.18 -185.2 13.25 -19.52zm573.51 573.49l226.69 226.69 -14.21 18.63 -221.95 -221.97 9.47 -23.35z"/>
  <path class="fil0" d="M3131.94 -6567.88l216.62 216.61 -28.97 3.83 -200.91 -200.9 13.26 -19.54zm569.71 569.71l231.41 231.41 -14.18 18.6 -226.69 -226.69 9.46 -23.32z"/>
  <path class="fil0" d="M3145.19 -6587.41l232.32 232.32 -28.95 3.82 -216.62 -216.61 13.25 -19.53zm565.92 565.92l236.13 236.13 -14.18 18.6 -231.41 -231.41 9.46 -23.32z"/>
  <path class="fil0" d="M3158.46 -6606.95l248.03 248.04 -28.98 3.82 -232.32 -232.32 13.27 -19.54zm562.12 562.13l240.86 240.85 -14.2 18.61 -236.13 -236.13 9.47 -23.33z"/>
  <path class="fil0" d="M3171.73 -6626.5l263.76 263.76 -29 3.83 -248.03 -248.04 13.27 -19.55zm558.33 558.33l245.58 245.57 -14.2 18.63 -240.86 -240.85 9.48 -23.35z"/>
  <path class="fil0" d="M3184.99 -6646.03l279.46 279.47 -28.96 3.82 -263.76 -263.76 13.26 -19.53zm554.53 554.55l250.29 250.3 -14.17 18.58 -245.58 -245.57 9.46 -23.31z"/>
  <path class="fil0" d="M3198.24 -6665.56l295.18 295.18 -28.97 3.82 -279.46 -279.47 13.25 -19.53zm550.74 550.74l255.03 255.03 -14.2 18.61 -250.29 -250.3 9.46 -23.34z"/>
  <path class="fil0" d="M3211.51 -6685.1l310.89 310.9 -28.98 3.82 -295.18 -295.18 13.27 -19.54zm546.94 546.95l259.75 259.75 -14.19 18.61 -255.03 -255.03 9.47 -23.33z"/>
  <path class="fil0" d="M3224.76 -6704.63l326.61 326.6 -28.97 3.83 -310.89 -310.9 13.25 -19.53zm543.16 543.15l264.47 264.47 -14.19 18.61 -259.75 -259.75 9.47 -23.33z"/>
  <path class="fil0" d="M3238.02 -6724.16l342.3 342.31 -28.95 3.82 -326.61 -326.6 13.26 -19.53zm539.35 539.38l269.19 269.19 -14.17 18.58 -264.47 -264.47 9.45 -23.3z"/>
  <path class="fil0" d="M3251.29 -6743.7l358.02 358.03 -28.99 3.82 -342.3 -342.31 13.27 -19.54zm535.56 535.57l273.91 273.92 -14.2 18.62 -269.19 -269.19 9.48 -23.35z"/>
  <path class="fil0" d="M3264.53 -6763.21l373.73 373.72 -28.95 3.82 -358.02 -358.03 13.24 -19.51zm531.78 531.76l278.63 278.64 -14.18 18.6 -273.91 -273.92 9.46 -23.32z"/>
  <path class="fil0" d="M3277.81 -6782.78l389.46 389.46 -29.01 3.83 -373.73 -373.72 13.28 -19.57zm527.97 527.98l283.36 283.36 -14.2 18.63 -278.63 -278.64 9.47 -23.35z"/>
  <path class="fil0" d="M3291.06 -6802.29l405.15 405.15 -28.94 3.82 -389.46 -389.46 13.25 -19.51zm524.18 524.18l288.08 288.08 -14.18 18.59 -283.36 -283.36 9.46 -23.31z"/>
  <path class="fil0" d="M3304.31 -6821.82l420.88 420.86 -28.98 3.82 -405.15 -405.15 13.25 -19.53zm520.4 520.38l292.81 292.8 -14.2 18.61 -288.08 -288.08 9.47 -23.33z"/>
  <path class="fil0" d="M3317.58 -6841.37l436.58 436.59 -28.97 3.82 -420.88 -420.86 13.27 -19.55zm516.59 516.61l297.52 297.53 -14.17 18.59 -292.81 -292.8 9.46 -23.32z"/>
  <path class="fil0" d="M3330.84 -6860.91l452.31 452.3 -28.99 3.83 -436.58 -436.59 13.26 -19.54zm512.81 512.8l302.25 302.24 -14.21 18.64 -297.52 -297.53 9.48 -23.35z"/>
  <path class="fil0" d="M3344.09 -6880.43l468.02 468 -28.96 3.82 -452.31 -452.3 13.25 -19.52zm509.01 509l306.98 306.97 -14.18 18.59 -302.25 -302.24 9.45 -23.32z"/>
  <path class="fil0" d="M3357.35 -6899.96l483.7 483.72 -28.94 3.81 -468.02 -468 13.26 -19.53zm505.21 505.23l311.69 311.69 -14.17 18.58 -306.98 -306.97 9.46 -23.3z"/>
  <path class="fil0" d="M3370.62 -6919.51l499.44 499.44 -29.01 3.83 -483.7 -483.72 13.27 -19.55zm501.42 501.42l316.42 316.42 -14.21 18.63 -311.69 -311.69 9.48 -23.36z"/>
  <polygon class="fil0" points="3383.88,-6939.04 4202.66,-6120.29 4188.46,-6101.67 3872.04,-6418.09 3873,-6420.46 3870.06,-6420.07 3370.62,-6919.51 "/>
  <polygon class="fil0" points="3397.14,-6958.59 4216.83,-6138.88 4202.66,-6120.29 3383.88,-6939.04 "/>
  <polygon class="fil0" points="3410.39,-6978.1 4231.01,-6157.47 4216.83,-6138.88 3397.14,-6958.59 "/>
  <polygon class="fil0" points="3423.66,-6997.65 4245.22,-6176.1 4231.01,-6157.47 3410.39,-6978.1 "/>
  <polygon class="fil0" points="3436.92,-7017.18 4259.4,-6194.7 4245.22,-6176.1 3423.66,-6997.65 "/>
  <polygon class="fil0" points="3450.18,-7036.72 4273.58,-6213.3 4259.4,-6194.7 3436.92,-7017.18 "/>
  <polygon class="fil0" points="3463.43,-7056.24 4287.77,-6231.91 4273.58,-6213.3 3450.18,-7036.72 "/>
  <polygon class="fil0" points="3476.69,-7075.78 4301.96,-6250.52 4287.77,-6231.91 3463.43,-7056.24 "/>
  <polygon class="fil0" points="3489.95,-7095.32 4316.15,-6269.12 4301.96,-6250.52 3476.69,-7075.78 "/>
  <polygon class="fil0" points="3503.22,-7114.85 4330.34,-6287.73 4316.15,-6269.12 3489.95,-7095.32 "/>
  <polygon class="fil0" points="3523.3,-7144.44 4351.83,-6315.91 4330.34,-6287.73 3503.22,-7114.85 "/>
  <polygon class="fil0" points="3543.41,-7174.07 4373.35,-6344.13 4351.83,-6315.91 3523.3,-7144.44 "/>
  <polygon class="fil0" points="3563.51,-7203.67 4394.85,-6372.33 4373.35,-6344.13 3543.41,-7174.07 "/>
  <polygon class="fil0" points="3583.6,-7233.28 4416.36,-6400.53 4394.85,-6372.33 3563.51,-7203.67 "/>
  <polygon class="fil0" points="3603.7,-7262.89 4437.87,-6428.73 4416.36,-6400.53 3583.6,-7233.28 "/>
  <polygon class="fil0" points="3623.8,-7292.5 3913.93,-7002.36 3905.08,-6978.62 3933.18,-6983.11 4459.36,-6456.92 4437.87,-6428.73 3603.7,-7262.89 "/>
  <path class="fil0" d="M3643.91 -7322.13l283.54 283.54 -13.52 36.23 -290.13 -290.14 20.11 -29.63zm332.16 332.17l504.81 504.82 -21.52 28.22 -526.18 -526.19 42.89 -6.85z"/>
  <path class="fil0" d="M3664 -7351.73l276.95 276.95 -13.5 36.19 -283.54 -283.54 20.09 -29.6zm354.93 354.92l483.47 483.45 -21.52 28.22 -504.81 -504.82 42.86 -6.85z"/>
  <path class="fil0" d="M3684.1 -7381.35l270.36 270.35 -13.51 36.22 -276.95 -276.95 20.1 -29.62zm377.71 377.69l462.11 462.09 -21.52 28.21 -483.47 -483.45 42.88 -6.85z"/>
  <path class="fil0" d="M3704.2 -7410.95l263.76 263.76 -13.5 36.19 -270.36 -270.35 20.1 -29.6zm400.45 400.45l440.75 440.75 -21.48 28.18 -462.11 -462.09 42.84 -6.84z"/>
  <path class="fil0" d="M3724.29 -7440.54l257.17 257.16 -13.5 36.19 -263.76 -263.76 20.09 -29.59zm423.2 423.19l419.41 419.41 -21.5 28.19 -440.75 -440.75 42.84 -6.85z"/>
  <path class="fil0" d="M3744.41 -7470.19l250.56 250.58 -13.51 36.23 -257.17 -257.16 20.12 -29.65zm445.97 445.99l398.03 398.05 -21.51 28.21 -419.41 -419.41 42.89 -6.85z"/>
  <path class="fil0" d="M3764.5 -7499.78l243.97 243.98 -13.5 36.19 -250.56 -250.58 20.09 -29.59zm468.72 468.74l376.69 376.7 -21.5 28.19 -398.03 -398.05 42.84 -6.84z"/>
  <path class="fil0" d="M3784.61 -7529.41l237.37 237.38 -13.51 36.23 -243.97 -243.98 20.11 -29.63zm491.5 491.52l355.32 355.33 -21.52 28.22 -376.69 -376.7 42.89 -6.85z"/>
  <path class="fil0" d="M3804.69 -7559l230.79 230.79 -13.5 36.18 -237.37 -237.38 20.08 -29.59zm514.27 514.26l333.97 333.98 -21.5 28.2 -355.32 -355.33 42.85 -6.85z"/>
  <path class="fil0" d="M3824.78 -7588.59l224.2 224.2 -13.5 36.18 -230.79 -230.79 20.09 -29.59zm537.01 537.01l312.63 312.63 -21.49 28.19 -333.97 -333.98 42.83 -6.84z"/>
  <path class="fil0" d="M3844.89 -7618.22l217.6 217.6 -13.51 36.23 -224.2 -224.2 20.11 -29.63zm559.79 559.79l291.26 291.26 -21.52 28.22 -312.63 -312.63 42.89 -6.85z"/>
  <path class="fil0" d="M3864.97 -7647.81l211.01 211.01 -13.49 36.18 -217.6 -217.6 20.08 -29.59zm582.53 582.53l269.93 269.93 -21.49 28.18 -291.26 -291.26 42.82 -6.85z"/>
  <path class="fil0" d="M3885.09 -7677.44l204.41 204.4 -13.52 36.24 -211.01 -211.01 20.12 -29.63zm605.33 605.31l248.55 248.54 -21.54 28.24 -269.93 -269.93 42.92 -6.85z"/>
  <path class="fil0" d="M3905.17 -7707.03l197.83 197.82 -13.5 36.17 -204.41 -204.4 20.08 -29.59zm628.07 628.06l227.22 227.2 -21.49 28.18 -248.55 -248.54 42.82 -6.84z"/>
  <path class="fil0" d="M3925.28 -7736.65l191.22 191.23 -13.5 36.21 -197.83 -197.82 20.11 -29.62zm650.81 650.83l205.86 205.87 -21.49 28.18 -227.22 -227.2 42.85 -6.85z"/>
  <path class="fil0" d="M3945.4 -7766.29l184.62 184.63 -13.52 36.24 -191.22 -191.23 20.12 -29.64zm673.58 673.62l184.49 184.5 -21.52 28.22 -205.86 -205.87 42.89 -6.85z"/>
  <path class="fil0" d="M3965.47 -7795.87l178.04 178.04 -13.49 36.17 -184.62 -184.63 20.07 -29.58zm696.34 696.36l163.15 163.16 -21.49 28.18 -184.49 -184.5 42.83 -6.84z"/>
  <path class="fil0" d="M3985.58 -7825.5l171.44 171.45 -13.51 36.22 -178.04 -178.04 20.11 -29.63zm719.1 719.14l141.79 141.8 -21.51 28.21 -163.15 -163.16 42.87 -6.85z"/>
  <path class="fil0" d="M4005.68 -7855.1l164.85 164.85 -13.51 36.2 -171.44 -171.45 20.1 -29.6zm741.87 741.89l120.44 120.44 -21.52 28.21 -141.79 -141.8 42.87 -6.85z"/>
  <path class="fil0" d="M4025.77 -7884.71l158.26 158.26 -13.5 36.2 -164.85 -164.85 20.09 -29.61zm764.64 764.65l99.08 99.08 -21.5 28.21 -120.44 -120.44 42.86 -6.85z"/>
  <path class="fil0" d="M4045.87 -7914.31l151.66 151.66 -13.5 36.2 -158.26 -158.26 20.1 -29.6zm787.4 787.4l77.73 77.73 -21.51 28.2 -99.08 -99.08 42.86 -6.85z"/>
  <path class="fil0" d="M4065.98 -7943.93l145.06 145.07 -13.51 36.21 -151.66 -151.66 20.11 -29.62zm810.15 810.18l56.37 56.37 -21.5 28.2 -77.73 -77.73 42.86 -6.84z"/>
  <path class="fil0" d="M4086.09 -7973.56l138.46 138.47 -13.51 36.23 -145.06 -145.07 20.11 -29.63zm832.9 832.96l35.02 35.02 -21.51 28.2 -56.37 -56.37 42.86 -6.85z"/>
  <path class="fil0" d="M4106.17 -8003.15l131.88 131.88 -13.5 36.18 -138.46 -138.47 20.08 -29.59zm855.67 855.7l13.67 13.67 -21.5 28.2 -35.02 -35.02 42.85 -6.85z"/>
  <path class="fil0" d="M4126.27 -8032.76l125.28 125.29 -13.5 36.2 -131.88 -131.88 20.1 -29.61zm849.24 898.98l-13.67 -13.67 27.44 -4.38 -13.77 18.05z"/>
  <polygon class="fil0" points="4146.37,-8062.37 4265.06,-7943.68 4251.55,-7907.47 4126.27,-8032.76 "/>
  <polygon class="fil0" points="4166.45,-8091.96 4278.55,-7979.86 4265.06,-7943.68 4146.37,-8062.37 "/>
  <polygon class="fil0" points="4186.56,-8121.58 4292.06,-8016.08 4278.55,-7979.86 4166.45,-8091.96 "/>
  <polygon class="fil0" points="4206.65,-8151.18 4305.56,-8052.27 4292.06,-8016.08 4186.56,-8121.58 "/>
  <polygon class="fil0" points="4226.76,-8180.81 4319.08,-8088.49 4305.56,-8052.27 4206.65,-8151.18 "/>
  <polygon class="fil0" points="4246.85,-8210.4 4332.57,-8124.68 4319.08,-8088.49 4226.76,-8180.81 "/>
  <polygon class="fil0" points="4266.96,-8240.02 4346.08,-8160.89 4332.57,-8124.68 4246.85,-8210.4 "/>
  <polygon class="fil0" points="4287.07,-8269.65 4359.59,-8197.12 4346.08,-8160.89 4266.96,-8240.02 "/>
  <polygon class="fil0" points="4307.14,-8299.22 4373.08,-8233.28 4359.59,-8197.12 4287.07,-8269.65 "/>
  <polygon class="fil0" points="4327.25,-8328.84 4386.59,-8269.5 4373.08,-8233.28 4307.14,-8299.22 "/>
  <polygon class="fil0" points="4347.35,-8358.46 4400.1,-8305.71 4386.59,-8269.5 4327.25,-8328.84 "/>
  <polygon class="fil0" points="4367.46,-8388.09 4413.61,-8341.93 4400.1,-8305.71 4347.35,-8358.46 "/>
  <polygon class="fil0" points="4387.57,-8417.72 4427.12,-8378.16 4413.61,-8341.93 4367.46,-8388.09 "/>
  <polygon class="fil0" points="4407.65,-8447.3 4440.62,-8414.34 4427.12,-8378.16 4387.57,-8417.72 "/>
  <polygon class="fil0" points="4427.75,-8476.92 4454.12,-8450.54 4440.62,-8414.34 4407.65,-8447.3 "/>
  <polygon class="fil0" points="4447.85,-8506.52 4467.63,-8486.74 4454.12,-8450.54 4427.75,-8476.92 "/>
  <polygon class="fil0" points="4467.94,-8536.13 4481.13,-8522.94 4467.63,-8486.74 4447.85,-8506.52 "/>
  <polygon class="fil0" points="4488.05,-8565.74 4494.64,-8559.15 4481.13,-8522.94 4467.94,-8536.13 "/>
  <polygon class="fil0" points="4494.64,-8559.15 4488.05,-8565.74 4508.13,-8595.33 "/>
  <path class="fil1" d="M3303.04 -6595.15c19.76,-29.14 39.26,-58.46 58.62,-87.88l57.31 -88.76 113.35 -178.33 113.82 -178.04 113.91 -177.94 113.68 -178.12 226.27 -356.94 -3.53 -2.33 -238.3 349.04 -118.64 174.83 -118.37 175.05 -118.5 174.94 -118.94 174.67 -58.84 87.73c-19.36,29.42 -38.57,58.91 -57.53,88.58 -19.09,29.6 -37.66,59.55 -56.53,89.29 -18.92,29.71 -37.23,59.8 -55.82,89.71l-18.95 30.48 34.89 -4.51c39.88,-5.15 79.66,-10.76 119.49,-16.2 39.82,-5.39 79.62,-11.07 119.44,-16.79 39.78,-5.61 79.55,-11.6 119.33,-17.5l59.62 -9.1 59.6 -9.49 -0.49 -4.16 -60.2 4.13 -60.15 4.48c-40.08,3.21 -80.18,6.28 -120.22,9.74 -40.05,3.35 -80.11,6.77 -120.13,10.44 -27.87,2.54 -55.74,5.04 -83.57,7.58 13.35,-19.05 26.69,-38.13 39.76,-57.36 19.86,-29.1 40.01,-58 59.62,-87.24z"/>
  <path class="fil1" d="M4749.18 -7045.47l-119.56 15.48 -119.55 15.7c-39.83,5.08 -79.63,10.73 -119.45,16.2l-59.73 8.25 -59.69 8.57 0.28 2.79 60.12 -5.04 60.07 -5.37c40.01,-3.6 80.08,-7.02 120.05,-10.97l120.02 -11.57 94.61 -9.24 -47.87 64.38c-20.78,28.33 -41.8,56.44 -62.37,84.91l-61.77 85.38 -60.93 85.93 -242.28 344.84 -242.57 344.67 -241.76 345.22 2.29 1.63 249.49 -339.66 248.74 -340.25 248.96 -340.04 61.87 -85.27 61.03 -85.9c20.39,-28.61 40.29,-57.54 60.47,-86.29l59.94 -86.64 14.46 -20.92 -24.87 3.21z"/>
  <path class="fil3" d="M3461.01 -4411.3c0,-12.98 6.21,-19.47 18.63,-19.47l223.52 0 0 -19.47c0,-71.69 -14.39,-124.32 -43.18,-157.91 -28.79,-33.58 -69.14,-50.38 -121.07,-50.38 -23.14,0 -43.61,2.4 -61.39,7.2 -17.78,4.8 -33.02,11.43 -45.72,19.9 -12.7,8.46 -22.86,18.34 -30.48,29.63 -7.62,11.29 -13.12,23.14 -16.51,35.56 -1.69,6.77 -3.81,11.43 -6.35,13.97 -2.54,2.54 -6.63,3.81 -12.27,3.81l-16.94 0c-5.08,0 -9.45,-1.55 -13.12,-4.66 -3.67,-3.1 -5.22,-7.19 -4.66,-12.27 2.26,-20.89 8.89,-40.22 19.9,-58 11.01,-17.78 25.4,-33.02 43.18,-45.72 17.78,-12.7 38.81,-22.58 63.08,-29.63 24.27,-7.06 51.36,-10.59 81.28,-10.59 30.48,0 58.7,4.66 84.66,13.97 25.97,9.32 48.55,24.13 67.74,44.45 19.19,20.32 34.57,46.99 46.14,80.01 11.57,33.02 17.92,73.24 19.05,120.66 0.57,16.93 0.85,32.31 0.85,46.14 0,13.83 -0.28,28.93 -0.85,45.3 -1.13,47.41 -7.48,87.63 -19.05,120.65 -11.57,33.02 -26.95,59.69 -46.14,80.01 -19.19,20.32 -41.77,35.13 -67.74,44.45 -25.96,9.31 -54.18,13.97 -84.66,13.97 -29.92,0 -57.01,-3.53 -81.28,-10.59 -24.27,-7.05 -45.3,-16.93 -63.08,-29.63 -17.78,-12.7 -32.17,-27.94 -43.18,-45.72 -11.01,-17.78 -17.64,-37.11 -19.9,-58 -0.56,-5.08 0.99,-9.17 4.66,-12.27 3.67,-3.11 8.04,-4.66 13.12,-4.66l16.94 0c5.64,0 9.73,1.27 12.27,3.81 2.54,2.54 4.66,7.2 6.35,13.97 3.39,12.98 8.89,24.98 16.51,35.98 7.62,11.01 17.78,20.75 30.48,29.21 12.7,8.47 27.94,15.1 45.72,19.9 17.78,4.8 38.25,7.2 61.39,7.2 52.49,0 92.99,-18.49 121.49,-55.46 28.51,-36.97 42.76,-87.91 42.76,-152.82l0 -21.17 -223.52 0c-12.42,0 -18.63,-6.49 -18.63,-19.47l0 -11.86z"/>
  <path id="1" class="fil3" d="M4144.28 -4529.83c0,-12.42 6.21,-18.63 18.63,-18.63l283.63 0c12.42,0 18.63,6.21 18.63,18.63l0 403.01c0,12.42 -6.21,18.63 -18.63,18.63l-14.39 0c-12.42,0 -18.63,-6.21 -18.63,-18.63l0 -372.53 -217.59 0 0 256.54c0,19.76 -1.41,38.38 -4.24,55.88 -2.82,17.5 -8.46,32.74 -16.93,45.72 -8.47,12.98 -20.18,23.14 -35.14,30.48 -14.95,7.34 -34.57,11.01 -58.84,11.01l-16.93 0c-12.42,0 -18.63,-6.21 -18.63,-18.63l0 -11.85c0,-12.42 6.21,-18.63 18.63,-18.63l12.7 0c14.67,0 26.53,-2.4 35.56,-7.2 9.03,-4.79 15.94,-11.43 20.74,-19.89 4.8,-8.47 7.9,-18.35 9.31,-29.64 1.41,-11.29 2.12,-23.42 2.12,-36.4l0 -287.87z"/>
  <path id="2" class="fil3" d="M4798.76 -4362.19c2.25,-28.79 8.04,-55.18 17.35,-79.16 9.32,-23.99 21.73,-44.45 37.26,-61.39 15.52,-16.93 34.29,-30.2 56.3,-39.79 22.01,-9.6 46.85,-14.4 74.51,-14.4 59.26,0 105.27,19.34 138,58 32.74,38.67 49.11,92.15 49.11,160.45l0 12.7c0,5.64 -1.83,10.16 -5.5,13.54 -3.67,3.39 -8.33,5.08 -13.97,5.08l-301.42 0 0 8.47c0.57,19.19 4.1,37.82 10.59,55.88 6.49,18.06 15.38,34.01 26.67,47.84 11.29,13.83 25.12,24.97 41.48,33.44 16.37,8.47 34.72,12.7 55.04,12.7 18.06,0 33.86,-2.26 47.41,-6.77 13.55,-4.52 25.12,-9.74 34.71,-15.67 9.6,-5.92 17.36,-11.99 23.29,-18.2 5.92,-6.21 10.02,-11.01 12.27,-14.39 5.08,-7.34 9.04,-11.72 11.86,-13.13 2.82,-1.41 7.34,-2.11 13.54,-2.11l13.55 0c5.08,0 9.46,1.55 13.12,4.65 3.67,3.11 5.23,7.2 4.66,12.28 -0.56,7.9 -4.94,17.78 -13.12,29.63 -8.19,11.86 -19.76,23.15 -34.72,33.87 -14.95,10.72 -33.16,19.9 -54.61,27.52 -21.44,7.62 -45.43,11.43 -71.96,11.43 -27.1,0 -51.65,-4.66 -73.66,-13.97 -22.02,-9.32 -40.93,-22.58 -56.73,-39.8 -15.8,-17.21 -28.36,-37.81 -37.68,-61.8 -9.31,-23.99 -15.1,-50.38 -17.35,-79.17 -0.57,-8.46 -0.85,-19.75 -0.85,-33.86 0,-14.12 0.28,-25.4 0.85,-33.87zm51.64 7.62l269.24 0 0 -3.39c0,-20.88 -3.1,-40.5 -9.31,-58.84 -6.21,-18.35 -15.1,-34.29 -26.67,-47.84 -11.57,-13.54 -25.82,-24.13 -42.76,-31.75 -16.93,-7.62 -35.84,-11.43 -56.72,-11.43 -21.45,0 -40.36,3.81 -56.73,11.43 -16.37,7.62 -30.34,18.21 -41.91,31.75 -11.57,13.55 -20.32,29.49 -26.25,47.84 -5.92,18.34 -8.89,37.96 -8.89,58.84l0 3.39z"/>
  <path id="3" class="fil3" d="M5583.62 -4328.32l237.06 186.26c7.34,5.65 11.01,11.29 11.01,16.94 0,11.29 -5.64,16.93 -16.93,16.93l-15.24 0c-8.47,0 -14.68,-0.99 -18.63,-2.96 -3.95,-1.98 -9.59,-5.79 -16.93,-11.43l-210.82 -165.1 0 160.86c0,12.42 -6.21,18.63 -18.63,18.63l-14.39 0c-12.42,0 -18.63,-6.21 -18.63,-18.63l0 -403.01c0,-12.42 6.21,-18.63 18.63,-18.63l14.39 0c12.42,0 18.63,6.21 18.63,18.63l0 160.87 195.58 -165.11c7.9,-6.2 13.69,-10.16 17.35,-11.85 3.67,-1.69 9.74,-2.54 18.21,-2.54l13.54 0c11.29,0 16.94,5.65 16.94,16.93 0,2.26 -0.71,4.94 -2.12,8.05 -1.41,3.1 -4.37,6.07 -8.89,8.89l-220.13 186.27z"/>
  <path id="4" class="fil3" d="M6267.72 -4108.19c-12.42,0 -18.63,-6.21 -18.63,-18.63l0 -372.53 -154.94 0c-12.41,0 -18.62,-6.21 -18.62,-18.63l0 -11.85c0,-12.42 6.21,-18.63 18.62,-18.63l361.53 0c12.42,0 18.63,6.21 18.63,18.63l0 11.85c0,12.42 -6.21,18.63 -18.63,18.63l-154.94 0 0 372.53c0,12.42 -6.21,18.63 -18.63,18.63l-14.39 0z"/>
  <path id="5" class="fil3" d="M6967.06 -4099.72c-35.56,0 -64.62,-6.49 -87.2,-19.48 -22.58,-12.98 -40.93,-28.78 -55.04,-47.41l0 200.66c0,12.42 -6.21,18.63 -18.62,18.63l-14.4 0c-12.41,0 -18.62,-6.21 -18.62,-18.63l0 -563.88c0,-12.42 6.21,-18.63 18.62,-18.63l14.4 0c12.41,0 18.62,6.21 18.62,18.63l0 39.79c14.11,-19.19 32.46,-35.13 55.04,-47.84 22.58,-12.7 51.64,-19.05 87.2,-19.05 32.74,0 60.54,5.79 83.4,17.36 22.86,11.57 41.35,26.81 55.46,45.72 14.11,18.91 24.41,40.36 30.9,64.35 6.49,23.99 10.3,48.4 11.43,73.24 0.57,8.46 0.85,17.78 0.85,27.94 0,10.16 -0.28,19.47 -0.85,27.94 -1.13,24.83 -4.94,49.24 -11.43,73.23 -6.49,23.99 -16.79,45.44 -30.9,64.35 -14.11,18.91 -32.6,34.15 -55.46,45.72 -22.86,11.57 -50.66,17.36 -83.4,17.36zm-142.24 -259.08c-0.56,8.46 -0.84,19.47 -0.84,33.02 0,13.54 0.28,24.55 0.84,33.02 0.57,16.93 3.53,34 8.89,51.22 5.37,17.22 13.69,32.6 24.98,46.14 11.29,13.55 25.4,24.7 42.33,33.45 16.94,8.75 37.26,13.12 60.96,13.12 24.84,0 45.58,-4.23 62.23,-12.7 16.66,-8.47 30.2,-19.9 40.64,-34.29 10.45,-14.39 18.07,-31.04 22.86,-49.95 4.8,-18.91 7.77,-38.53 8.89,-58.85 0.57,-15.8 0.57,-31.61 0,-47.41 -1.12,-20.32 -4.09,-39.79 -8.89,-58.42 -4.79,-18.63 -12.41,-35.14 -22.86,-49.53 -10.44,-14.39 -23.98,-25.97 -40.64,-34.71 -16.65,-8.75 -37.39,-13.13 -62.23,-13.13 -24.27,0 -44.87,4.52 -61.8,13.55 -16.94,9.03 -30.91,20.74 -41.91,35.14 -11.01,14.39 -19.19,30.33 -24.56,47.83 -5.36,17.5 -8.32,35 -8.89,52.5z"/>
  <path id="6" class="fil3" d="M7850.15 -4126.82c0,12.42 -6.21,18.63 -18.63,18.63l-14.4 0c-12.41,0 -18.62,-6.21 -18.62,-18.63l0 -331.89 -260.78 337.82c-2.25,2.82 -5.08,5.64 -8.46,8.47 -3.39,2.82 -7.91,4.23 -13.55,4.23l-16.09 0c-4.51,0 -8.46,-1.69 -11.85,-5.08 -3.39,-3.39 -5.08,-7.34 -5.08,-11.85l0 -404.71c0,-12.42 6.21,-18.63 18.63,-18.63l14.39 0c12.42,0 18.63,6.21 18.63,18.63l0 331.89 260.77 -337.82c2.82,-3.39 5.79,-6.35 8.89,-8.89 3.11,-2.54 7.48,-3.81 13.12,-3.81l16.09 0c4.52,0 8.47,1.55 11.86,4.66 3.38,3.1 5.08,6.91 5.08,11.43l0 405.55z"/>
  <path id="7" class="fil3" d="M8287.88 -4328.32l237.06 186.26c7.34,5.65 11.01,11.29 11.01,16.94 0,11.29 -5.64,16.93 -16.93,16.93l-15.24 0c-8.47,0 -14.68,-0.99 -18.63,-2.96 -3.95,-1.98 -9.59,-5.79 -16.93,-11.43l-210.82 -165.1 0 160.86c0,12.42 -6.21,18.63 -18.63,18.63l-14.39 0c-12.42,0 -18.63,-6.21 -18.63,-18.63l0 -403.01c0,-12.42 6.21,-18.63 18.63,-18.63l14.39 0c12.42,0 18.63,6.21 18.63,18.63l0 160.87 195.58 -165.11c7.9,-6.2 13.69,-10.16 17.35,-11.85 3.67,-1.69 9.74,-2.54 18.21,-2.54l13.54 0c11.29,0 16.94,5.65 16.94,16.93 0,2.26 -0.71,4.94 -2.12,8.05 -1.41,3.1 -4.37,6.07 -8.89,8.89l-220.13 186.27z"/>
  <path id="8" class="fil3" d="M9124.38 -4108.19c-12.42,0 -18.63,-6.21 -18.63,-18.63l0 -39.79c-5.08,7.9 -11.71,15.8 -19.89,23.71 -8.19,7.9 -18.21,14.95 -30.06,21.16 -11.85,6.21 -25.96,11.43 -42.33,15.67 -16.37,4.23 -35.56,6.35 -57.58,6.35 -20.32,0 -39.65,-3.25 -57.99,-9.74 -18.35,-6.49 -34.43,-15.38 -48.26,-26.67 -13.83,-11.29 -24.84,-24.55 -33.02,-39.79 -8.19,-15.24 -12.28,-31.89 -12.28,-49.96 0,-19.19 4.09,-36.4 12.28,-51.64 8.18,-15.24 19.61,-28.65 34.29,-40.22 14.67,-11.57 32.31,-21.17 52.91,-28.79 20.61,-7.62 43.33,-13.12 68.16,-16.51l133.77 -18.62 0 -29.64c0,-30.48 -9.17,-54.18 -27.51,-71.12 -18.35,-16.93 -47.56,-25.4 -87.63,-25.4 -31.61,0 -56.02,6.07 -73.24,18.21 -17.22,12.13 -28.08,25.25 -32.6,39.37 -2.25,6.77 -4.94,11.43 -8.04,13.97 -3.1,2.54 -7.2,3.81 -12.28,3.81l-11.85 0c-5.08,0 -9.45,-1.84 -13.12,-5.51 -3.67,-3.67 -5.51,-8.04 -5.51,-13.12 0,-7.9 2.83,-17.78 8.47,-29.63 5.64,-11.86 14.82,-23.43 27.52,-34.72 12.7,-11.29 28.92,-21.02 48.68,-29.21 19.76,-8.18 43.75,-12.28 71.97,-12.28 33.3,0 60.82,4.52 82.55,13.55 21.73,9.03 38.8,20.75 51.22,35.14 12.42,14.39 21.03,30.34 25.82,47.84 4.8,17.49 7.2,34.71 7.2,51.64l0 281.94c0,12.42 -6.21,18.63 -18.63,18.63l-14.39 0zm-160.02 -40.64c19.19,0 37.4,-3.25 54.61,-9.74 17.22,-6.49 32.32,-16.22 45.3,-29.21 12.98,-12.98 23.14,-29.35 30.48,-49.1 7.34,-19.76 11,-42.9 11,-69.43l0 -28.79 -109.22 15.24c-93.69,12.98 -140.54,42.9 -140.54,89.75 0,14.11 3.24,26.25 9.73,36.41 6.49,10.16 14.82,18.62 24.98,25.4 10.16,6.77 21.73,11.71 34.71,14.81 12.99,3.11 25.97,4.66 38.95,4.66z"/>
  <path class="fil3" d="M11202.52 4884.61l0 0c-8.36,-25.15 -35.53,-38.74 -60.68,-30.42 -25.12,8.37 -38.73,35.53 -30.41,60.69 8.36,25.11 35.53,38.72 60.68,30.37 25.15,-8.32 38.73,-35.49 30.41,-60.64zm-60.79 -182.99l0 0c-8.36,-25.15 -35.52,-38.73 -60.67,-30.4 -25.16,8.35 -38.74,35.52 -30.41,60.67 8.36,25.12 35.52,38.74 60.67,30.37 25.12,-8.32 38.74,-35.48 30.41,-60.64zm-60.81 -182.98l0 0c-8.33,-25.16 -35.49,-38.74 -60.65,-30.41 -25.15,8.36 -38.77,35.52 -30.41,60.67 8.36,25.13 35.53,38.74 60.68,30.37 25.12,-8.32 38.74,-35.48 30.38,-60.63zm-60.79 -182.99l0 0c-8.32,-25.15 -35.49,-38.73 -60.64,-30.41 -25.15,8.36 -38.77,35.52 -30.41,60.67 8.36,25.12 35.52,38.74 60.64,30.39 25.16,-8.34 38.77,-35.5 30.41,-60.65zm-60.78 -182.99l0 0c-8.36,-25.15 -35.49,-38.76 -60.64,-30.4 -25.16,8.35 -38.77,35.51 -30.41,60.68 8.36,25.1 35.52,38.73 60.64,30.37 25.15,-8.33 38.77,-35.49 30.41,-60.65zm-60.79 -182.99l0 0c-8.36,-25.15 -35.48,-38.76 -60.64,-30.4 -25.15,8.35 -38.77,35.53 -30.41,60.68 8.36,25.12 35.49,38.74 60.65,30.37 25.15,-8.32 38.77,-35.48 30.4,-60.65zm-60.78 -182.97l0 0c-8.36,-25.17 -35.52,-38.78 -60.64,-30.42 -25.15,8.37 -38.77,35.53 -30.41,60.68 8.36,25.12 35.49,38.73 60.64,30.37 25.15,-8.32 38.77,-35.48 30.41,-60.63zm-60.78 -182.99l0 0c-8.36,-25.15 -35.53,-38.77 -60.65,-30.42 -25.15,8.37 -38.77,35.53 -30.4,60.69 8.36,25.11 35.48,38.72 60.64,30.37 25.15,-8.32 38.77,-35.49 30.41,-60.64zm-60.79 -182.99l0 0c-8.36,-25.15 -35.52,-38.77 -60.67,-30.4 -25.12,8.35 -38.74,35.52 -30.38,60.67 8.33,25.12 35.49,38.74 60.64,30.37 25.16,-8.32 38.77,-35.48 30.41,-60.64zm-60.78 -182.98l0 0c-8.36,-25.16 -35.52,-38.78 -60.68,-30.41 -25.12,8.36 -38.73,35.52 -30.37,60.67 8.32,25.12 35.49,38.74 60.64,30.37 25.15,-8.32 38.74,-35.48 30.41,-60.63zm-60.78 -182.99l0 0c-8.36,-25.15 -35.53,-38.76 -60.68,-30.41 -25.12,8.36 -38.74,35.52 -30.41,60.68 8.36,25.12 35.52,38.73 60.68,30.38 25.15,-8.33 38.73,-35.5 30.41,-60.65zm-60.82 -182.99l0 0c-8.33,-25.15 -35.49,-38.76 -60.64,-30.41 -25.16,8.36 -38.74,35.52 -30.41,60.69 8.36,25.1 35.52,38.73 60.67,30.37 25.12,-8.33 38.74,-35.49 30.38,-60.65zm-60.79 -182.99l0 0c-8.32,-25.15 -35.49,-38.76 -60.64,-30.4 -25.15,8.35 -38.77,35.53 -30.41,60.68 8.36,25.12 35.53,38.73 60.68,30.37 25.12,-8.33 38.73,-35.49 30.37,-60.65zm-60.78 -182.97l0 0c-8.33,-25.15 -35.49,-38.78 -60.64,-30.42 -25.16,8.37 -38.77,35.53 -30.41,60.68 8.36,25.12 35.52,38.74 60.64,30.37 25.15,-8.32 38.77,-35.49 30.41,-60.63z"/>
  <path class="fil0" d="M7320.27 407.54l0 0c-257.74,84.63 -383.43,406.79 -280.74,719.63l1273.9 3880.65 1033.92 0 -1374.48 -4187.07c-102.69,-312.81 -394.86,-497.81 -652.6,-413.21z"/>
  <path class="fil3" d="M3879.21 4781.14c-14.47,-46.5 -63.93,-72.5 -110.42,-58.01 -46.5,14.47 -72.46,63.89 -58,110.39 14.46,46.53 63.89,72.49 110.42,58.02 46.5,-14.49 72.46,-63.91 58,-110.4zm-106.97 -343.68c-14.46,-46.54 -63.88,-72.5 -110.42,-58.04 -46.49,14.5 -72.46,63.93 -57.99,110.43 14.46,46.52 63.92,72.48 110.42,58.02 46.49,-14.49 72.49,-63.92 57.99,-110.41zm-106.92 -343.72c-14.47,-46.49 -63.93,-72.45 -110.42,-58 -46.5,14.47 -72.46,63.93 -58,110.42 14.46,46.5 63.89,72.5 110.42,58.01 46.5,-14.47 72.46,-63.89 58,-110.43zm-106.97 -343.67c-14.46,-46.51 -63.88,-72.47 -110.42,-58 -46.49,14.46 -72.46,63.89 -57.99,110.42 14.46,46.5 63.92,72.46 110.42,57.99 46.49,-14.45 72.49,-63.88 57.99,-110.41zm-106.92 -343.68c-14.47,-46.49 -63.93,-72.46 -110.42,-58 -46.5,14.47 -72.46,63.9 -58,110.42 14.47,46.5 63.89,72.46 110.42,58 46.5,-14.47 72.46,-63.92 58,-110.42zm-106.93 -343.67c-14.5,-46.51 -63.92,-72.5 -110.42,-58.04 -46.53,14.5 -72.49,63.93 -58.03,110.42 14.46,46.54 63.92,72.5 110.42,58.03 46.49,-14.46 72.49,-63.91 58.03,-110.41zm-106.96 -343.68c-14.47,-46.54 -63.93,-72.5 -110.42,-58.03 -46.5,14.46 -72.46,63.93 -58,110.42 14.47,46.5 63.89,72.49 110.42,58.03 46.5,-14.49 72.46,-63.92 58,-110.42zm-106.93 -343.68c-14.5,-46.52 -63.92,-72.49 -110.42,-58.03 -46.53,14.47 -72.49,63.92 -58.03,110.42 14.46,46.5 63.92,72.46 110.42,58 46.5,-14.47 72.5,-63.88 58.03,-110.39zm-106.96 -343.71c-14.46,-46.5 -63.89,-72.46 -110.42,-57.99 -46.5,14.46 -72.46,63.89 -58,110.42 14.47,46.5 63.89,72.46 110.42,57.99 46.5,-14.46 72.46,-63.89 58,-110.42zm-106.96 -343.67c-14.47,-46.5 -63.89,-72.5 -110.39,-58 -46.53,14.47 -72.49,63.88 -58.03,110.42 14.5,46.49 63.92,72.46 110.42,58 46.53,-14.47 72.5,-63.93 58,-110.42zm-106.93 -343.68c-14.46,-46.53 -63.89,-72.49 -110.42,-58.03 -46.5,14.5 -72.46,63.92 -58,110.42 14.47,46.53 63.89,72.5 110.42,58.03 46.5,-14.5 72.46,-63.92 58,-110.42z"/>
  <path class="fil3" d="M2618.62 1115.03c23.22,0 45.94,-9.42 62.38,-25.82 16.4,-16.44 25.82,-39.16 25.82,-62.37 0,-23.25 -9.42,-45.97 -25.82,-62.37 -16.44,-16.44 -39.16,-25.83 -62.38,-25.83 -23.24,0 -45.93,9.39 -62.37,25.83 -16.44,16.4 -25.82,39.12 -25.82,62.37 0,23.21 9.38,45.93 25.82,62.37 16.44,16.4 39.13,25.82 62.37,25.82z"/>
  <g style="clip-path:url(#id0)">
   <image x="2686.46" y="1589.1" width="1238.96" height="3355.62" xlink:href="linesf_Images\linesf_ImgID1.png"/>
  </g>
  <path class="fil0" d="M2948.58 5007.82l-866.42 -2697.12c-22.62,-70.42 16.12,-145.8 86.53,-168.45 70.42,-22.62 145.84,16.15 168.45,86.57l892.74 2779 -281.3 0z"/>
  <path class="fil4" d="M5693.47 5007.82l-111.12 0 -802.61 -2506.3c-41.13,-128.41 -115.78,-234.22 -206.55,-307.42 -90.84,-73.22 -197.17,-113.59 -302.51,-113.59 -0.07,0 -0.14,0 -0.17,0 -41.63,0 -83.26,6.25 -124.22,19.36 -74.96,24.04 -138.78,68.13 -189.33,127.04l0 -145.31c46.42,-35.76 99.06,-63.98 157.05,-82.52 51.51,-16.49 104.18,-24.4 156.43,-24.4 0,0 0.03,0 0.07,0 132.61,0.04 261.76,50.48 369.11,137.06 107.38,86.63 193.57,209.75 240.91,357.5l812.94 2538.58zm-1120.7 0l-111.13 0 -504.68 -1575.92 0 -347.03 615.81 1922.95z"/>
  <g style="clip-path:url(#id1)">
   <image x="3674.24" y="2047.71" width="321.73" height="1415.34" xlink:href="linesf_Images\linesf_ImgID2.png"/>
  </g>
  <path class="fil0" d="M4572.74 5007.82l-708.7 -2213.07c-22.16,-69.18 -32.6,-138.65 -32.6,-205.56 0,-115.37 31.08,-223.11 85.94,-308.86 54.92,-85.84 132.75,-149.61 228.91,-180.46 40.96,-13.11 82.59,-19.36 124.22,-19.36 105.41,-0.04 211.8,40.32 302.68,113.59 90.77,73.25 165.42,179.01 206.55,307.42l802.59 2506.3 111.13 0 -812.93 -2538.58c-47.34,-147.75 -133.53,-270.87 -240.91,-357.5 -107.35,-86.58 -236.5,-137.02 -369.11,-137.06 -52.28,0 -104.95,7.87 -156.5,24.38 -121.39,38.8 -219.39,120.08 -285.85,224.28 -66.57,104.32 -102.52,231.57 -102.55,365.85 0,77.92 12.17,158.25 37.64,237.83l698.36 2180.8 111.13 0z"/>
  <path class="fil3" d="M11546.48 4937.52l0 0c-8.36,-25.15 -35.53,-38.74 -60.68,-30.42 -25.12,8.37 -38.73,35.53 -30.41,60.69 8.36,25.11 35.53,38.72 60.68,30.37 25.15,-8.32 38.73,-35.49 30.41,-60.64zm-60.79 -182.99l0 0c-8.36,-25.15 -35.52,-38.73 -60.67,-30.4 -25.16,8.35 -38.74,35.52 -30.41,60.67 8.36,25.12 35.52,38.74 60.67,30.37 25.12,-8.32 38.74,-35.48 30.41,-60.64zm-60.81 -182.98l0 0c-8.33,-25.16 -35.49,-38.74 -60.65,-30.41 -25.15,8.36 -38.77,35.52 -30.41,60.67 8.36,25.13 35.53,38.74 60.68,30.37 25.12,-8.32 38.74,-35.48 30.38,-60.63zm-60.79 -182.99l0 0c-8.32,-25.15 -35.49,-38.73 -60.64,-30.41 -25.15,8.36 -38.77,35.52 -30.41,60.67 8.36,25.12 35.52,38.74 60.64,30.39 25.16,-8.34 38.77,-35.5 30.41,-60.65zm-60.78 -182.99l0 0c-8.36,-25.15 -35.49,-38.76 -60.64,-30.4 -25.16,8.35 -38.77,35.51 -30.41,60.68 8.36,25.1 35.52,38.73 60.64,30.37 25.15,-8.33 38.77,-35.49 30.41,-60.65zm-60.79 -182.99l0 0c-8.36,-25.15 -35.48,-38.76 -60.64,-30.4 -25.15,8.35 -38.77,35.53 -30.41,60.68 8.36,25.12 35.49,38.74 60.65,30.37 25.15,-8.32 38.77,-35.48 30.4,-60.65zm-60.78 -182.97l0 0c-8.36,-25.17 -35.52,-38.78 -60.64,-30.42 -25.15,8.37 -38.77,35.53 -30.41,60.68 8.36,25.12 35.49,38.73 60.64,30.37 25.15,-8.32 38.77,-35.48 30.41,-60.63zm-60.78 -182.99l0 0c-8.36,-25.15 -35.53,-38.77 -60.65,-30.42 -25.15,8.37 -38.77,35.53 -30.4,60.69 8.36,25.11 35.48,38.72 60.64,30.37 25.15,-8.32 38.77,-35.49 30.41,-60.64zm-60.79 -182.99l0 0c-8.36,-25.15 -35.52,-38.77 -60.67,-30.4 -25.12,8.35 -38.74,35.52 -30.38,60.67 8.33,25.12 35.49,38.74 60.64,30.37 25.16,-8.32 38.77,-35.48 30.41,-60.64zm-60.78 -182.98l0 0c-8.36,-25.16 -35.52,-38.78 -60.68,-30.41 -25.12,8.36 -38.73,35.52 -30.37,60.67 8.32,25.12 35.49,38.74 60.64,30.37 25.15,-8.32 38.74,-35.48 30.41,-60.63zm-60.78 -182.99l0 0c-8.36,-25.15 -35.53,-38.76 -60.68,-30.41 -25.12,8.36 -38.74,35.52 -30.41,60.68 8.36,25.12 35.52,38.73 60.68,30.38 25.15,-8.33 38.73,-35.5 30.41,-60.65zm-60.82 -182.99l0 0c-8.33,-25.15 -35.49,-38.76 -60.64,-30.41 -25.16,8.36 -38.74,35.52 -30.41,60.69 8.36,25.1 35.52,38.73 60.67,30.37 25.12,-8.33 38.74,-35.49 30.38,-60.65zm-60.79 -182.99l0 0c-8.32,-25.15 -35.49,-38.76 -60.64,-30.4 -25.15,8.35 -38.77,35.53 -30.41,60.68 8.36,25.12 35.53,38.73 60.68,30.37 25.12,-8.33 38.73,-35.49 30.37,-60.65zm-60.78 -182.97l0 0c-8.33,-25.15 -35.49,-38.78 -60.64,-30.42 -25.16,8.37 -38.77,35.53 -30.41,60.68 8.36,25.12 35.52,38.74 60.64,30.37 25.15,-8.32 38.77,-35.49 30.41,-60.63z"/>
  <path class="fil3" d="M10649.93 2438.83c12.63,0 24.98,-5.11 33.94,-14.07 8.92,-8.93 14.04,-21.28 14.04,-33.91 0,-12.63 -5.12,-25.02 -14.04,-33.93 -8.96,-8.93 -21.31,-14.04 -33.94,-14.04 -12.63,0 -24.98,5.11 -33.94,14.04 -8.92,8.91 -14.04,21.3 -14.04,33.93 0,12.63 5.12,24.98 14.04,33.91 8.96,8.96 21.31,14.07 33.94,14.07z"/>
  <path class="fil0" d="M1420.23 5007.82c-13.39,-22.25 -24.5,-46.34 -32.91,-72.07l-1011.3 -3093.36c-60.15,-183.94 40.21,-381.78 224.15,-441.89 183.94,-60.15 381.81,40.18 441.93,224.12l1011.3 3093.4c32.93,100.74 17.72,205.64 -32.98,289.8l-600.19 0z"/>
  <path class="fil0" d="M9985.61 5007.82l-928.86 -2841.17c-60.11,-183.92 40.22,-381.79 224.15,-441.92 183.94,-60.11 381.82,40.25 441.93,224.19l1000.05 3058.9 -737.27 0z"/>
 </g>
</svg>
