<?xml version="1.0" encoding="UTF-8"?>
<!DOCTYPE svg PUBLIC "-//W3C//DTD SVG 1.1//EN" "http://www.w3.org/Graphics/SVG/1.1/DTD/svg11.dtd">
<!-- Creator: CorelDRAW 2020 (64-Bit) -->
<svg xmlns="http://www.w3.org/2000/svg" xml:space="preserve" width="68.7916mm" height="52.9166mm" version="1.1" style="shape-rendering:geometricPrecision; text-rendering:geometricPrecision; image-rendering:optimizeQuality; fill-rule:evenodd; clip-rule:evenodd"
viewBox="0 0 6879.16 5291.66"
 xmlns:xlink="http://www.w3.org/1999/xlink"
 xmlns:xodm="http://www.corel.com/coreldraw/odm/2003">
 <defs>
  <style type="text/css">
   <![CDATA[
    .fil3 {fill:#FEFEFE;fill-rule:nonzero}
    .fil0 {fill:#EE8A3D;fill-rule:nonzero}
    .fil1 {fill:#696668;fill-rule:nonzero}
    .fil2 {fill:#4F86C5;fill-rule:nonzero}
   ]]>
  </style>
 </defs>
 <g id="Слой_x0020_1">
  <metadata id="CorelCorpID_0Corel-Layer"/>
  <path class="fil0" d="M-7940.62 -5359.29l422.38 402.56c4.95,4.96 8.25,9.29 9.9,13.01 1.66,3.72 2.48,6.81 2.48,9.29 0,7.43 -2.68,13.83 -8.05,19.2 -5.37,5.37 -11.77,8.05 -19.2,8.05l-76.8 0c-11.56,0 -21.05,-2.27 -28.48,-6.81 -7.44,-4.54 -12.8,-8.47 -16.11,-11.77l-350.53 -334.44 0 319.58c0,9.08 -3.31,16.92 -9.91,23.53 -6.61,6.61 -14.45,9.91 -23.54,9.91l-50.78 0c-9.09,0 -16.93,-3.3 -23.54,-9.91 -6.6,-6.61 -9.91,-14.45 -9.91,-23.53l0 -800.17c0,-9.08 3.31,-16.93 9.91,-23.54 6.61,-6.6 14.45,-9.9 23.54,-9.9l50.78 0c9.09,0 16.93,3.3 23.54,9.9 6.6,6.61 9.91,14.46 9.91,23.54l0 288.6 330.72 -303.47c3.3,-3.3 8.67,-7.22 16.1,-11.76 7.43,-4.54 16.93,-6.81 28.49,-6.81l71.84 0c7.43,0 13.83,2.68 19.2,8.05 5.36,5.36 8.05,11.76 8.05,19.2 0,2.47 -0.83,5.57 -2.48,9.29 -1.65,3.71 -4.95,8.05 -9.91,13l-397.6 365.4z"/>
  <path id="1" class="fil0" d="M-7447.64 -5069.44c0,-33.03 6.6,-61.94 19.82,-86.71 13.21,-24.77 31.38,-45.83 54.5,-63.17 23.12,-17.34 50.16,-31.38 81.13,-42.11 30.97,-10.74 63.79,-19 98.47,-24.78l174.65 -28.49 0 -16.1c0,-42.11 -13.83,-73.7 -41.49,-94.76 -27.67,-21.05 -62.14,-31.58 -103.43,-31.58 -36.33,0 -63.79,6.61 -82.37,19.82 -18.58,13.21 -34.48,28.9 -47.69,47.07 -4.95,6.6 -10.32,11.14 -16.1,13.62 -5.78,2.48 -13.63,3.72 -23.54,3.72l-37.16 0c-9.08,0 -17.13,-3.31 -24.15,-9.91 -7.02,-6.61 -10.11,-14.45 -9.29,-23.54 1.65,-18.16 8.88,-36.74 21.68,-55.74 12.8,-18.99 30.14,-35.92 52.02,-50.78 21.88,-14.86 47.07,-27.04 75.56,-36.54 28.49,-9.5 58.83,-14.24 91.04,-14.24 37.16,0 71.63,5.36 103.43,16.1 31.79,10.73 59.04,26.42 81.75,47.07 22.71,20.64 40.46,46.24 53.26,76.79 12.8,30.56 19.2,65.65 19.2,105.29l0 377.79c0,9.08 -3.3,16.92 -9.91,23.53 -6.61,6.61 -14.45,9.91 -23.53,9.91l-45.83 0c-9.09,0 -16.93,-3.3 -23.54,-9.91 -6.61,-6.61 -9.91,-14.45 -9.91,-23.53l0 -50.79c-7.43,15.69 -18.99,29.52 -34.68,41.5 -15.69,11.97 -33.65,22.09 -53.88,30.34 -20.23,8.26 -41.29,14.45 -63.17,18.58 -21.89,4.13 -42.32,6.2 -61.32,6.2 -32.2,0 -61.72,-4.55 -88.56,-13.63 -26.84,-9.08 -49.55,-21.26 -68.13,-36.54 -18.58,-15.28 -33.03,-33.65 -43.35,-55.12 -10.32,-21.47 -15.48,-44.59 -15.48,-69.36zm227.91 68.12c29.73,0 56.98,-4.54 81.75,-13.62 24.77,-9.09 46.04,-21.68 63.79,-37.78 17.76,-16.1 31.38,-35.3 40.88,-57.6 9.49,-22.29 14.24,-47.07 14.24,-74.32l0 -30.96 -146.16 23.53c-52.02,8.26 -93.31,21.47 -123.86,39.64 -30.56,18.16 -45.83,41.7 -45.83,70.6 0,9.08 2.06,18.17 6.19,27.25 4.13,9.08 10.73,17.75 19.82,26.01 9.08,8.26 20.85,14.87 35.3,19.82 14.45,4.96 32.41,7.43 53.88,7.43z"/>
  <path id="2" class="fil0" d="M-6341.53 -5777.95c0,28.9 -6.4,55.33 -19.2,79.27 -12.8,23.95 -28.9,47.28 -48.31,69.99 -19.4,22.7 -40.87,45.83 -64.41,69.36 -23.53,23.54 -46.45,49.34 -68.74,77.42 20.64,-4.96 43.35,-7.44 68.12,-7.44 41.29,0 79.28,6.61 113.96,19.82 34.68,13.22 64.62,32.62 89.8,58.22 25.19,25.6 44.8,56.77 58.84,93.52 14.04,36.74 21.06,78.65 21.06,125.72 0,43.77 -7.02,84.02 -21.06,120.77 -14.04,36.75 -33.65,68.12 -58.84,94.14 -25.18,26.01 -55.12,46.24 -89.8,60.69 -34.68,14.45 -72.67,21.68 -113.96,21.68 -41.28,0 -79.27,-7.23 -113.95,-21.68 -34.68,-14.45 -64.62,-34.68 -89.8,-60.69 -25.19,-26.02 -44.8,-57.39 -58.84,-94.14 -14.04,-36.75 -21.06,-77 -21.06,-120.77 0,-63.58 7.44,-119.12 22.3,-166.6 14.86,-47.48 33.65,-88.97 56.36,-124.48 22.71,-35.51 47.07,-66.48 73.08,-92.9 26.01,-26.43 50.37,-50.79 73.08,-73.08 22.71,-22.3 41.49,-43.56 56.36,-63.79 14.86,-20.23 22.29,-41.91 22.29,-65.03 0,-9.08 3.31,-16.93 9.91,-23.54 6.61,-6.6 14.45,-9.9 23.54,-9.9l45.83 0c9.08,0 16.92,3.3 23.53,9.9 6.61,6.61 9.91,14.46 9.91,23.54zm-132.54 395.13c-57.8,0 -100.74,17.55 -128.81,52.64 -28.08,35.1 -42.12,81.13 -42.12,138.11 0,56.98 14.04,103.01 42.12,138.11 28.07,35.1 71.01,52.64 128.81,52.64 57.81,0 100.75,-17.54 128.82,-52.64 28.08,-35.1 42.12,-81.13 42.12,-138.11 0,-56.98 -14.04,-103.01 -42.12,-138.11 -28.07,-35.09 -71.01,-52.64 -128.82,-52.64z"/>
  <path id="3" class="fil0" d="M-6069.03 -5291.16c3.3,-37.99 12.39,-73.49 27.25,-106.53 14.87,-33.03 34.27,-61.93 58.22,-86.7 23.95,-24.77 52.64,-44.18 86.08,-58.22 33.45,-14.04 70.81,-21.05 112.1,-21.05 44.59,0 84.44,7.22 119.53,21.67 35.1,14.45 65.03,35.3 89.8,62.55 24.78,27.25 43.77,60.28 56.98,99.1 13.21,38.81 19.82,82.16 19.82,130.05l0 33.45c0,9.08 -3.3,16.93 -9.91,23.53 -6.61,6.61 -14.45,9.91 -23.53,9.91l-426.1 0 0 7.43c1.65,56.16 18.79,99.3 51.4,129.44 32.62,30.14 73.29,45.21 122.01,45.21 45.42,0 79.48,-6.4 102.19,-19.2 22.71,-12.8 41.08,-27.04 55.12,-42.73 6.61,-6.61 12.39,-11.15 17.34,-13.63 4.96,-2.47 12.39,-3.71 22.3,-3.71l37.16 0c9.08,0 17.34,3.3 24.77,9.91 7.43,6.6 10.32,14.45 8.67,23.53 -2.48,14.87 -9.5,31.18 -21.06,48.93 -11.56,17.75 -28.28,34.27 -50.16,49.55 -21.88,15.27 -49.14,28.07 -81.75,38.39 -32.62,10.33 -70.81,15.49 -114.58,15.49 -41.29,0 -78.45,-7.23 -111.48,-21.68 -33.03,-14.45 -61.72,-34.27 -86.08,-59.46 -24.36,-25.18 -43.97,-54.91 -58.84,-89.18 -14.86,-34.27 -23.95,-71.63 -27.25,-112.1 -4.13,-37.98 -4.13,-75.97 0,-113.95zm110.24 3.71l348.06 0 0 -3.71c0,-50.37 -15.89,-90.63 -47.69,-120.77 -31.79,-30.14 -74.11,-45.21 -126.96,-45.21 -23.95,0 -46.24,3.92 -66.89,11.77 -20.64,7.84 -38.81,18.99 -54.5,33.44 -15.69,14.45 -28.07,32 -37.16,52.64 -9.08,20.65 -14.03,43.36 -14.86,68.13l0 3.71z"/>
  <path id="4" class="fil0" d="M-5277.53 -5517.83c0,-9.09 3.3,-16.93 9.91,-23.54 6.61,-6.6 14.45,-9.91 23.53,-9.91l417.43 0c9.08,0 16.93,3.31 23.53,9.91 6.61,6.61 9.91,14.45 9.91,23.54l0 577.21c0,9.08 -3.3,16.92 -9.91,23.53 -6.6,6.61 -14.45,9.91 -23.53,9.91l-45.83 0c-9.08,0 -16.93,-3.3 -23.54,-9.91 -6.6,-6.61 -9.9,-14.45 -9.9,-23.53l0 -504.13 -258.88 0 0 323.28c0,33.86 -3.51,64.62 -10.53,92.28 -7.02,27.67 -18.58,51.41 -34.68,71.23 -16.11,19.81 -37.37,35.3 -63.79,46.44 -26.43,11.15 -59.05,16.73 -97.86,16.73l-14.86 0c-9.08,0 -16.93,-3.31 -23.54,-9.91 -6.6,-6.61 -9.9,-14.45 -9.9,-23.54l0 -39.63c0,-9.09 3.3,-16.93 9.9,-23.54 6.61,-6.6 14.46,-9.91 23.54,-9.91l14.86 0c37.99,0 63.17,-10.94 75.56,-32.82 12.39,-21.88 18.58,-51.41 18.58,-88.57l0 -395.12z"/>
  <path id="5" class="fil0" d="M-4573.98 -4907.18c-9.08,0 -16.93,-3.3 -23.53,-9.91 -6.61,-6.61 -9.91,-14.45 -9.91,-23.53l0 -577.21c0,-9.09 3.3,-16.93 9.91,-23.54 6.6,-6.6 14.45,-9.91 23.53,-9.91l45.83 0c9.09,0 16.93,3.31 23.54,9.91 6.6,6.61 9.91,14.45 9.91,23.54l0 125.1 133.77 0c39.64,0 75.76,5.78 108.38,17.34 32.62,11.56 60.7,27.87 84.23,48.93 23.53,21.05 41.91,46.65 55.12,76.79 13.21,30.14 19.82,63.38 19.82,99.71 0,36.34 -6.61,69.58 -19.82,99.72 -13.21,30.14 -31.59,55.74 -55.12,76.79 -23.53,21.06 -51.61,37.37 -84.23,48.93 -32.62,11.56 -68.74,17.34 -108.38,17.34l-213.05 0zm369.12 -242.78c0,-24.77 -4.34,-45.83 -13.01,-63.17 -8.67,-17.34 -20.64,-31.38 -35.92,-42.11 -15.27,-10.74 -33.65,-18.58 -55.12,-23.53 -21.47,-4.96 -44.59,-7.44 -69.36,-7.44l-116.43 0 0 272.51 116.43 0c24.77,0 47.89,-2.48 69.36,-7.44 21.47,-4.95 39.85,-12.8 55.12,-23.53 15.28,-10.74 27.25,-24.77 35.92,-42.11 8.67,-17.35 13.01,-38.4 13.01,-63.18z"/>
  <path class="fil0" d="M-8144.56 -4040.3c0.94,-52.68 10.11,-102.3 27.51,-148.87 17.41,-46.57 42.57,-87.02 75.5,-121.35 32.92,-34.34 73.38,-61.62 121.35,-81.85 47.98,-20.23 103.01,-30.34 165.1,-30.34 62.09,0 117.13,10.11 165.1,30.34 47.98,20.23 88.43,47.51 121.36,81.85 32.92,34.33 58.09,74.78 75.49,121.35 17.41,46.57 26.58,96.19 27.52,148.87 2.82,83.73 2.82,167.45 0,251.18 -1.88,52.68 -11.52,102.31 -28.93,148.87 -17.4,46.57 -42.57,87.26 -75.49,122.06 -32.93,34.81 -73.15,62.09 -120.65,81.85 -47.51,19.75 -102.31,29.63 -164.4,29.63 -62.09,0 -116.88,-9.88 -164.39,-29.63 -47.51,-19.76 -87.73,-47.04 -120.65,-81.85 -32.93,-34.8 -58.09,-75.49 -75.5,-122.06 -17.4,-46.56 -27.04,-96.19 -28.92,-148.87 -2.83,-83.73 -2.83,-167.45 0,-251.18zm644.87 7.06c-1.88,-44.22 -9.17,-82.79 -21.87,-115.71 -12.7,-32.93 -30.34,-60.21 -52.91,-81.85 -22.58,-21.63 -49.16,-37.86 -79.73,-48.68 -30.58,-10.82 -64.21,-16.23 -100.9,-16.23 -36.69,0 -70.32,5.41 -100.89,16.23 -30.58,10.82 -57.15,27.05 -79.73,48.68 -22.58,21.64 -40.45,48.92 -53.62,81.85 -13.17,32.92 -20.23,71.49 -21.17,115.71 -1.88,42.33 -2.82,81.84 -2.82,118.53 0,36.69 0.94,76.2 2.82,118.53 0.94,44.22 8,82.79 21.17,115.72 13.17,32.92 31.04,60.2 53.62,81.84 22.58,21.64 49.15,37.86 79.73,48.68 30.57,10.82 64.2,16.23 100.89,16.23 36.69,0 70.32,-5.41 100.9,-16.23 30.57,-10.82 57.15,-27.04 79.73,-48.68 22.57,-21.64 40.21,-48.92 52.91,-81.84 12.7,-32.93 19.99,-71.5 21.87,-115.72 1.89,-42.33 2.83,-81.84 2.83,-118.53 0,-36.69 -0.94,-76.2 -2.83,-118.53z"/>
  <path id="1" class="fil0" d="M-6432.88 -4408.6c10.35,0 19.28,3.77 26.81,11.29 7.52,7.53 11.29,16.46 11.29,26.81l0 911.58c0,10.35 -3.77,19.29 -11.29,26.81 -7.53,7.53 -16.46,11.29 -26.81,11.29l-57.86 0c-10.35,0 -19.28,-3.76 -26.81,-11.29 -7.53,-7.52 -11.29,-16.46 -11.29,-26.81l0 -822.68 -496.71 0 0 822.68c0,10.35 -3.76,19.29 -11.29,26.81 -7.52,7.53 -16.46,11.29 -26.81,11.29l-57.85 0c-10.35,0 -19.29,-3.76 -26.82,-11.29 -7.52,-7.52 -11.28,-16.46 -11.28,-26.81l0 -911.58c0,-10.35 3.76,-19.28 11.28,-26.81 7.53,-7.52 16.47,-11.29 26.82,-11.29l688.62 0z"/>
  <path id="2" class="fil0" d="M-5541.06 -4408.6c10.34,0 19.28,3.77 26.81,11.29 7.52,7.53 11.29,16.46 11.29,26.81l0 50.8c0,10.35 -3.77,19.29 -11.29,26.81 -7.53,7.53 -16.47,11.29 -26.81,11.29l-263.88 0 0 822.68c0,10.35 -3.76,19.29 -11.29,26.81 -7.53,7.53 -16.46,11.29 -26.81,11.29l-57.86 0c-10.35,0 -19.28,-3.76 -26.81,-11.29 -7.52,-7.52 -11.29,-16.46 -11.29,-26.81l0 -822.68 -263.87 0c-10.35,0 -19.29,-3.76 -26.82,-11.29 -7.52,-7.52 -11.28,-16.46 -11.28,-26.81l0 -50.8c0,-10.35 3.76,-19.28 11.28,-26.81 7.53,-7.52 16.47,-11.29 26.82,-11.29l661.81 0z"/>
  <path id="3" class="fil0" d="M-4819.99 -4408.6c10.35,0 19.29,3.77 26.81,11.29 7.53,7.53 11.29,16.46 11.29,26.81l0 50.8c0,8.47 -1.41,17.41 -4.23,26.81 -2.82,9.41 -6.59,19.29 -11.29,29.64l-313.27 808.56c-3.76,8.47 -8.7,16.23 -14.81,23.29 -6.12,7.05 -14.82,10.58 -26.11,10.58l-64.91 0c-9.41,0 -17.4,-3.29 -23.99,-9.88 -6.58,-6.58 -9.88,-14.58 -9.88,-23.99 0,-1.88 0.24,-3.99 0.71,-6.35 0.47,-2.35 1.65,-5.88 3.53,-10.58l314.67 -809.98 -462.84 0c-10.35,0 -19.29,-3.76 -26.81,-11.29 -7.53,-7.52 -11.29,-16.46 -11.29,-26.81l0 -50.8c0,-10.35 3.76,-19.28 11.29,-26.81 7.52,-7.52 16.46,-11.29 26.81,-11.29l574.32 0z"/>
  <path id="4" class="fil0" d="M-4254.13 -3458.92c0,10.35 -3.77,19.29 -11.29,26.81 -7.53,7.53 -16.47,11.29 -26.81,11.29l-57.86 0c-10.35,0 -19.29,-3.76 -26.81,-11.29 -7.53,-7.52 -11.29,-16.46 -11.29,-26.81l0 -777.52 -228.6 173.56c-8.47,7.53 -17.87,10.35 -28.22,8.47 -10.35,-1.88 -18.82,-6.58 -25.4,-14.11l-33.87 -43.74c-6.58,-8.47 -9.17,-17.88 -7.76,-28.23 1.41,-10.34 6.35,-18.81 14.82,-25.4l301.97 -231.42c7.53,-5.64 15.06,-8.94 22.58,-9.88 7.53,-0.94 15.05,-1.41 22.58,-1.41l57.86 0c10.34,0 19.28,3.77 26.81,11.29 7.52,7.53 11.29,16.46 11.29,26.81l0 911.58z"/>
  <path id="5" class="fil0" d="M-8144.56 -4040.3c0.94,-52.68 10.11,-102.3 27.51,-148.87 17.41,-46.57 42.57,-87.02 75.5,-121.35 32.92,-34.34 73.38,-61.62 121.35,-81.85 47.98,-20.23 103.01,-30.34 165.1,-30.34 62.09,0 117.13,10.11 165.1,30.34 47.98,20.23 88.43,47.51 121.36,81.85 32.92,34.33 58.09,74.78 75.49,121.35 17.41,46.57 26.58,96.19 27.52,148.87 2.82,83.73 2.82,167.45 0,251.18 -1.88,52.68 -11.52,102.31 -28.93,148.87 -17.4,46.57 -42.57,87.26 -75.49,122.06 -32.93,34.81 -73.15,62.09 -120.65,81.85 -47.51,19.75 -102.31,29.63 -164.4,29.63 -62.09,0 -116.88,-9.88 -164.39,-29.63 -47.51,-19.76 -87.73,-47.04 -120.65,-81.85 -32.93,-34.8 -58.09,-75.49 -75.5,-122.06 -17.4,-46.56 -27.04,-96.19 -28.92,-148.87 -2.83,-83.73 -2.83,-167.45 0,-251.18zm644.87 7.06c-1.88,-44.22 -9.17,-82.79 -21.87,-115.71 -12.7,-32.93 -30.34,-60.21 -52.91,-81.85 -22.58,-21.63 -49.16,-37.86 -79.73,-48.68 -30.58,-10.82 -64.21,-16.23 -100.9,-16.23 -36.69,0 -70.32,5.41 -100.89,16.23 -30.58,10.82 -57.15,27.05 -79.73,48.68 -22.58,21.64 -40.45,48.92 -53.62,81.85 -13.17,32.92 -20.23,71.49 -21.17,115.71 -1.88,42.33 -2.82,81.84 -2.82,118.53 0,36.69 0.94,76.2 2.82,118.53 0.94,44.22 8,82.79 21.17,115.72 13.17,32.92 31.04,60.2 53.62,81.84 22.58,21.64 49.15,37.86 79.73,48.68 30.57,10.82 64.2,16.23 100.89,16.23 36.69,0 70.32,-5.41 100.9,-16.23 30.57,-10.82 57.15,-27.04 79.73,-48.68 22.57,-21.64 40.21,-48.92 52.91,-81.84 12.7,-32.93 19.99,-71.5 21.87,-115.72 1.89,-42.33 2.83,-81.84 2.83,-118.53 0,-36.69 -0.94,-76.2 -2.83,-118.53z"/>
  <path id="6" class="fil0" d="M-6432.88 -4408.6c10.35,0 19.28,3.77 26.81,11.29 7.52,7.53 11.29,16.46 11.29,26.81l0 911.58c0,10.35 -3.77,19.29 -11.29,26.81 -7.53,7.53 -16.46,11.29 -26.81,11.29l-57.86 0c-10.35,0 -19.28,-3.76 -26.81,-11.29 -7.53,-7.52 -11.29,-16.46 -11.29,-26.81l0 -822.68 -496.71 0 0 822.68c0,10.35 -3.76,19.29 -11.29,26.81 -7.52,7.53 -16.46,11.29 -26.81,11.29l-57.85 0c-10.35,0 -19.29,-3.76 -26.82,-11.29 -7.52,-7.52 -11.28,-16.46 -11.28,-26.81l0 -911.58c0,-10.35 3.76,-19.28 11.28,-26.81 7.53,-7.52 16.47,-11.29 26.82,-11.29l688.62 0z"/>
  <polygon class="fil0" points="-8932.7,-6558.04 -10491.69,-4261.28 -9567.83,-4383.17 -10202.99,-2817.75 -8451.55,-5114.54 -9535.75,-4941.33 "/>
  <polygon class="fil0" points="-10165.14,-2911.08 -10146.25,-2892.2 -10160.43,-2873.61 -10174.59,-2887.77 "/>
  <polygon class="fil0" points="-10155.68,-2934.39 -10132.07,-2910.79 -10146.25,-2892.2 -10165.14,-2911.08 "/>
  <polygon class="fil0" points="-10146.21,-2957.73 -10117.88,-2929.4 -10132.07,-2910.79 -10155.68,-2934.39 "/>
  <polygon class="fil0" points="-10136.73,-2981.08 -10103.68,-2948.03 -10117.88,-2929.4 -10146.21,-2957.73 "/>
  <polygon class="fil0" points="-10127.28,-3004.39 -10089.5,-2966.61 -10103.68,-2948.03 -10136.73,-2981.08 "/>
  <polygon class="fil0" points="-10117.82,-3027.71 -10075.32,-2985.21 -10089.5,-2966.61 -10127.28,-3004.39 "/>
  <polygon class="fil0" points="-10108.34,-3051.05 -10061.12,-3003.83 -10075.32,-2985.21 -10117.82,-3027.71 "/>
  <polygon class="fil0" points="-10098.87,-3074.39 -10046.93,-3022.45 -10061.12,-3003.83 -10108.34,-3051.05 "/>
  <polygon class="fil0" points="-10089.41,-3097.71 -10032.75,-3041.04 -10046.93,-3022.45 -10098.87,-3074.39 "/>
  <polygon class="fil0" points="-10079.95,-3121.04 -10018.56,-3059.65 -10032.75,-3041.04 -10089.41,-3097.71 "/>
  <polygon class="fil0" points="-10070.48,-3144.37 -10004.36,-3078.26 -10018.56,-3059.65 -10079.95,-3121.04 "/>
  <polygon class="fil0" points="-10061.01,-3167.71 -9990.17,-3096.87 -10004.36,-3078.26 -10070.48,-3144.37 "/>
  <polygon class="fil0" points="-10051.55,-3191.03 -9975.99,-3115.47 -9990.17,-3096.87 -10061.01,-3167.71 "/>
  <polygon class="fil0" points="-10042.08,-3214.35 -9961.8,-3134.07 -9975.99,-3115.47 -10051.55,-3191.03 "/>
  <polygon class="fil0" points="-10032.62,-3237.68 -9947.61,-3152.68 -9961.8,-3134.07 -10042.08,-3214.35 "/>
  <polygon class="fil0" points="-10023.15,-3261.02 -9933.42,-3171.29 -9947.61,-3152.68 -10032.62,-3237.68 "/>
  <polygon class="fil0" points="-10013.68,-3284.35 -9919.23,-3189.9 -9933.42,-3171.29 -10023.15,-3261.02 "/>
  <polygon class="fil0" points="-10004.22,-3307.66 -9905.05,-3208.49 -9919.23,-3189.9 -10013.68,-3284.35 "/>
  <polygon class="fil0" points="-9994.75,-3331.01 -9890.85,-3227.11 -9905.05,-3208.49 -10004.22,-3307.66 "/>
  <polygon class="fil0" points="-9985.28,-3354.35 -9876.66,-3245.73 -9890.85,-3227.11 -9994.75,-3331.01 "/>
  <polygon class="fil0" points="-9975.82,-3377.66 -9862.48,-3264.32 -9876.66,-3245.73 -9985.28,-3354.35 "/>
  <polygon class="fil0" points="-9966.36,-3400.97 -9848.3,-3282.91 -9862.48,-3264.32 -9975.82,-3377.66 "/>
  <polygon class="fil0" points="-9956.89,-3424.32 -9834.09,-3301.54 -9848.3,-3282.91 -9966.36,-3400.97 "/>
  <polygon class="fil0" points="-9947.42,-3447.65 -9819.91,-3320.14 -9834.09,-3301.54 -9956.89,-3424.32 "/>
  <polygon class="fil0" points="-9937.96,-3470.98 -9805.72,-3338.74 -9819.91,-3320.14 -9947.42,-3447.65 "/>
  <polygon class="fil0" points="-9928.49,-3494.31 -9791.54,-3357.35 -9805.72,-3338.74 -9937.96,-3470.98 "/>
  <polygon class="fil0" points="-9919.02,-3517.64 -9777.34,-3375.96 -9791.54,-3357.35 -9928.49,-3494.31 "/>
  <polygon class="fil0" points="-9909.56,-3540.95 -9763.17,-3394.55 -9777.34,-3375.96 -9919.02,-3517.64 "/>
  <polygon class="fil0" points="-9900.09,-3564.3 -9748.97,-3413.17 -9763.17,-3394.55 -9909.56,-3540.95 "/>
  <polygon class="fil0" points="-9890.63,-3587.61 -9734.79,-3431.77 -9748.97,-3413.17 -9900.09,-3564.3 "/>
  <polygon class="fil0" points="-9881.16,-3610.95 -9720.59,-3450.39 -9734.79,-3431.77 -9890.63,-3587.61 "/>
  <polygon class="fil0" points="-9871.7,-3634.26 -9706.42,-3468.97 -9720.59,-3450.39 -9881.16,-3610.95 "/>
  <path class="fil0" d="M-10481.26 -4276.64l12.35 12.35 -22.78 3.01 10.43 -15.36zm619.04 619.02l170.02 170.01 -14.22 18.64 -165.28 -165.29 9.48 -23.36z"/>
  <path class="fil0" d="M-10468 -4296.19l28.08 28.08 -28.99 3.82 -12.35 -12.35 13.26 -19.55zm615.23 615.26l174.74 174.74 -14.17 18.58 -170.02 -170.01 9.45 -23.31z"/>
  <path class="fil0" d="M-10454.75 -4315.71l43.78 43.78 -28.95 3.82 -28.08 -28.08 13.25 -19.52zm611.45 611.44l179.46 179.46 -14.19 18.62 -174.74 -174.74 9.47 -23.34z"/>
  <path class="fil0" d="M-10441.48 -4335.25l59.5 59.5 -28.99 3.82 -43.78 -43.78 13.27 -19.54zm607.65 607.65l184.18 184.18 -14.19 18.61 -179.46 -179.46 9.47 -23.33z"/>
  <path class="fil0" d="M-10428.21 -4354.79l75.21 75.21 -28.98 3.83 -59.5 -59.5 13.27 -19.54zm603.85 603.86l188.9 188.91 -14.19 18.6 -184.18 -184.18 9.47 -23.33z"/>
  <path class="fil0" d="M-10414.97 -4374.31l90.92 90.91 -28.95 3.82 -75.21 -75.21 13.24 -19.52zm600.06 600.08l193.62 193.63 -14.17 18.58 -188.9 -188.91 9.45 -23.3z"/>
  <path class="fil0" d="M-10401.71 -4393.84l106.62 106.62 -28.96 3.82 -90.92 -90.91 13.26 -19.53zm596.28 596.25l198.35 198.35 -14.21 18.64 -193.62 -193.63 9.48 -23.36z"/>
  <path class="fil0" d="M-10388.45 -4413.38l122.34 122.34 -28.98 3.82 -106.62 -106.62 13.26 -19.54zm592.48 592.48l203.07 203.07 -14.18 18.59 -198.35 -198.35 9.46 -23.31z"/>
  <path class="fil0" d="M-10375.18 -4432.92l138.05 138.05 -28.98 3.83 -122.34 -122.34 13.27 -19.54zm588.68 588.68l207.79 207.8 -14.19 18.61 -203.07 -203.07 9.47 -23.34z"/>
  <path class="fil0" d="M-10361.92 -4452.46l153.77 153.77 -28.98 3.82 -138.05 -138.05 13.26 -19.54zm584.88 584.9l212.51 212.53 -14.18 18.59 -207.79 -207.8 9.46 -23.32z"/>
  <path class="fil0" d="M-10348.67 -4471.99l169.48 169.48 -28.96 3.82 -153.77 -153.77 13.25 -19.53zm581.09 581.1l217.24 217.24 -14.19 18.62 -212.51 -212.53 9.46 -23.33z"/>
  <path class="fil0" d="M-10335.4 -4491.53l185.18 185.2 -28.97 3.82 -169.48 -169.48 13.27 -19.54zm577.29 577.32l221.95 221.97 -14.18 18.59 -217.24 -217.24 9.47 -23.32z"/>
  <path class="fil0" d="M-10322.15 -4511.05l200.91 200.9 -28.98 3.82 -185.18 -185.2 13.25 -19.52zm573.51 573.49l226.69 226.69 -14.21 18.63 -221.95 -221.97 9.47 -23.35z"/>
  <path class="fil0" d="M-10308.89 -4530.59l216.62 216.61 -28.97 3.83 -200.91 -200.9 13.26 -19.54zm569.71 569.71l231.41 231.41 -14.18 18.6 -226.69 -226.69 9.46 -23.32z"/>
  <path class="fil0" d="M-10295.64 -4550.12l232.32 232.32 -28.95 3.82 -216.62 -216.61 13.25 -19.53zm565.92 565.92l236.13 236.13 -14.18 18.6 -231.41 -231.41 9.46 -23.32z"/>
  <path class="fil0" d="M-10282.37 -4569.66l248.03 248.04 -28.98 3.82 -232.32 -232.32 13.27 -19.54zm562.12 562.13l240.86 240.85 -14.2 18.61 -236.13 -236.13 9.47 -23.33z"/>
  <path class="fil0" d="M-10269.1 -4589.21l263.76 263.76 -29 3.83 -248.03 -248.04 13.27 -19.55zm558.33 558.33l245.58 245.57 -14.2 18.63 -240.86 -240.85 9.48 -23.35z"/>
  <path class="fil0" d="M-10255.84 -4608.74l279.46 279.47 -28.96 3.82 -263.76 -263.76 13.26 -19.53zm554.53 554.55l250.29 250.3 -14.17 18.58 -245.58 -245.57 9.46 -23.31z"/>
  <path class="fil0" d="M-10242.59 -4628.27l295.18 295.18 -28.97 3.82 -279.46 -279.47 13.25 -19.53zm550.74 550.74l255.03 255.03 -14.2 18.61 -250.29 -250.3 9.46 -23.34z"/>
  <path class="fil0" d="M-10229.32 -4647.81l310.89 310.9 -28.98 3.82 -295.18 -295.18 13.27 -19.54zm546.94 546.95l259.75 259.75 -14.19 18.61 -255.03 -255.03 9.47 -23.33z"/>
  <path class="fil0" d="M-10216.07 -4667.34l326.61 326.6 -28.97 3.83 -310.89 -310.9 13.25 -19.53zm543.16 543.15l264.47 264.47 -14.19 18.61 -259.75 -259.75 9.47 -23.33z"/>
  <path class="fil0" d="M-10202.81 -4686.87l342.3 342.31 -28.95 3.82 -326.61 -326.6 13.26 -19.53zm539.35 539.38l269.19 269.19 -14.17 18.58 -264.47 -264.47 9.45 -23.3z"/>
  <path class="fil0" d="M-10189.54 -4706.41l358.02 358.03 -28.99 3.82 -342.3 -342.31 13.27 -19.54zm535.56 535.57l273.91 273.92 -14.2 18.62 -269.19 -269.19 9.48 -23.35z"/>
  <path class="fil0" d="M-10176.3 -4725.92l373.73 373.72 -28.95 3.82 -358.02 -358.03 13.24 -19.51zm531.78 531.76l278.63 278.64 -14.18 18.6 -273.91 -273.92 9.46 -23.32z"/>
  <path class="fil0" d="M-10163.02 -4745.49l389.46 389.46 -29.01 3.83 -373.73 -373.72 13.28 -19.57zm527.97 527.98l283.36 283.36 -14.2 18.63 -278.63 -278.64 9.47 -23.35z"/>
  <path class="fil0" d="M-10149.77 -4765l405.15 405.15 -28.94 3.82 -389.46 -389.46 13.25 -19.51zm524.18 524.18l288.08 288.08 -14.18 18.59 -283.36 -283.36 9.46 -23.31z"/>
  <path class="fil0" d="M-10136.52 -4784.53l420.88 420.86 -28.98 3.82 -405.15 -405.15 13.25 -19.53zm520.4 520.38l292.81 292.8 -14.2 18.61 -288.08 -288.08 9.47 -23.33z"/>
  <path class="fil0" d="M-10123.25 -4804.08l436.58 436.59 -28.97 3.82 -420.88 -420.86 13.27 -19.55zm516.59 516.61l297.52 297.53 -14.17 18.59 -292.81 -292.8 9.46 -23.32z"/>
  <path class="fil0" d="M-10109.99 -4823.62l452.31 452.3 -28.99 3.83 -436.58 -436.59 13.26 -19.54zm512.81 512.8l302.25 302.24 -14.21 18.64 -297.52 -297.53 9.48 -23.35z"/>
  <path class="fil0" d="M-10096.74 -4843.14l468.02 468 -28.96 3.82 -452.31 -452.3 13.25 -19.52zm509.01 509l306.98 306.97 -14.18 18.59 -302.25 -302.24 9.45 -23.32z"/>
  <path class="fil0" d="M-10083.48 -4862.67l483.7 483.72 -28.94 3.81 -468.02 -468 13.26 -19.53zm505.21 505.23l311.69 311.69 -14.17 18.58 -306.98 -306.97 9.46 -23.3z"/>
  <path class="fil0" d="M-10070.21 -4882.22l499.44 499.44 -29.01 3.83 -483.7 -483.72 13.27 -19.55zm501.42 501.42l316.42 316.42 -14.21 18.63 -311.69 -311.69 9.48 -23.36z"/>
  <polygon class="fil0" points="-10056.95,-4901.75 -9238.17,-4083 -9252.37,-4064.38 -9568.79,-4380.8 -9567.83,-4383.17 -9570.77,-4382.78 -10070.21,-4882.22 "/>
  <polygon class="fil0" points="-10043.69,-4921.3 -9224,-4101.59 -9238.17,-4083 -10056.95,-4901.75 "/>
  <polygon class="fil0" points="-10030.44,-4940.81 -9209.82,-4120.18 -9224,-4101.59 -10043.69,-4921.3 "/>
  <polygon class="fil0" points="-10017.17,-4960.36 -9195.61,-4138.81 -9209.82,-4120.18 -10030.44,-4940.81 "/>
  <polygon class="fil0" points="-10003.91,-4979.89 -9181.43,-4157.41 -9195.61,-4138.81 -10017.17,-4960.36 "/>
  <polygon class="fil0" points="-9990.65,-4999.43 -9167.25,-4176.01 -9181.43,-4157.41 -10003.91,-4979.89 "/>
  <polygon class="fil0" points="-9977.4,-5018.95 -9153.06,-4194.62 -9167.25,-4176.01 -9990.65,-4999.43 "/>
  <polygon class="fil0" points="-9964.14,-5038.49 -9138.87,-4213.23 -9153.06,-4194.62 -9977.4,-5018.95 "/>
  <polygon class="fil0" points="-9950.88,-5058.03 -9124.68,-4231.83 -9138.87,-4213.23 -9964.14,-5038.49 "/>
  <polygon class="fil0" points="-9937.61,-5077.56 -9110.49,-4250.44 -9124.68,-4231.83 -9950.88,-5058.03 "/>
  <polygon class="fil0" points="-9917.53,-5107.15 -9089,-4278.62 -9110.49,-4250.44 -9937.61,-5077.56 "/>
  <polygon class="fil0" points="-9897.42,-5136.78 -9067.48,-4306.84 -9089,-4278.62 -9917.53,-5107.15 "/>
  <polygon class="fil0" points="-9877.32,-5166.38 -9045.98,-4335.04 -9067.48,-4306.84 -9897.42,-5136.78 "/>
  <polygon class="fil0" points="-9857.23,-5195.99 -9024.47,-4363.24 -9045.98,-4335.04 -9877.32,-5166.38 "/>
  <polygon class="fil0" points="-9837.13,-5225.6 -9002.96,-4391.44 -9024.47,-4363.24 -9857.23,-5195.99 "/>
  <polygon class="fil0" points="-9817.03,-5255.21 -9526.9,-4965.07 -9535.75,-4941.33 -9507.65,-4945.82 -8981.47,-4419.63 -9002.96,-4391.44 -9837.13,-5225.6 "/>
  <path class="fil0" d="M-9796.92 -5284.84l283.54 283.54 -13.52 36.23 -290.13 -290.14 20.11 -29.63zm332.16 332.17l504.81 504.82 -21.52 28.22 -526.18 -526.19 42.89 -6.85z"/>
  <path class="fil0" d="M-9776.83 -5314.44l276.95 276.95 -13.5 36.19 -283.54 -283.54 20.09 -29.6zm354.93 354.92l483.47 483.45 -21.52 28.22 -504.81 -504.82 42.86 -6.85z"/>
  <path class="fil0" d="M-9756.73 -5344.06l270.36 270.35 -13.51 36.22 -276.95 -276.95 20.1 -29.62zm377.71 377.69l462.11 462.09 -21.52 28.21 -483.47 -483.45 42.88 -6.85z"/>
  <path class="fil0" d="M-9736.63 -5373.66l263.76 263.76 -13.5 36.19 -270.36 -270.35 20.1 -29.6zm400.45 400.45l440.75 440.75 -21.48 28.18 -462.11 -462.09 42.84 -6.84z"/>
  <path class="fil0" d="M-9716.54 -5403.25l257.17 257.16 -13.5 36.19 -263.76 -263.76 20.09 -29.59zm423.2 423.19l419.41 419.41 -21.5 28.19 -440.75 -440.75 42.84 -6.85z"/>
  <path class="fil0" d="M-9696.42 -5432.9l250.56 250.58 -13.51 36.23 -257.17 -257.16 20.12 -29.65zm445.97 445.99l398.03 398.05 -21.51 28.21 -419.41 -419.41 42.89 -6.85z"/>
  <path class="fil0" d="M-9676.33 -5462.49l243.97 243.98 -13.5 36.19 -250.56 -250.58 20.09 -29.59zm468.72 468.74l376.69 376.7 -21.5 28.19 -398.03 -398.05 42.84 -6.84z"/>
  <path class="fil0" d="M-9656.22 -5492.12l237.37 237.38 -13.51 36.23 -243.97 -243.98 20.11 -29.63zm491.5 491.52l355.32 355.33 -21.52 28.22 -376.69 -376.7 42.89 -6.85z"/>
  <path class="fil0" d="M-9636.14 -5521.71l230.79 230.79 -13.5 36.18 -237.37 -237.38 20.08 -29.59zm514.27 514.26l333.97 333.98 -21.5 28.2 -355.32 -355.33 42.85 -6.85z"/>
  <path class="fil0" d="M-9616.05 -5551.3l224.2 224.2 -13.5 36.18 -230.79 -230.79 20.09 -29.59zm537.01 537.01l312.63 312.63 -21.49 28.19 -333.97 -333.98 42.83 -6.84z"/>
  <path class="fil0" d="M-9595.94 -5580.93l217.6 217.6 -13.51 36.23 -224.2 -224.2 20.11 -29.63zm559.79 559.79l291.26 291.26 -21.52 28.22 -312.63 -312.63 42.89 -6.85z"/>
  <path class="fil0" d="M-9575.86 -5610.52l211.01 211.01 -13.49 36.18 -217.6 -217.6 20.08 -29.59zm582.53 582.53l269.93 269.93 -21.49 28.18 -291.26 -291.26 42.82 -6.85z"/>
  <path class="fil0" d="M-9555.74 -5640.15l204.41 204.4 -13.52 36.24 -211.01 -211.01 20.12 -29.63zm605.33 605.31l248.55 248.54 -21.54 28.24 -269.93 -269.93 42.92 -6.85z"/>
  <path class="fil0" d="M-9535.66 -5669.74l197.83 197.82 -13.5 36.17 -204.41 -204.4 20.08 -29.59zm628.07 628.06l227.22 227.2 -21.49 28.18 -248.55 -248.54 42.82 -6.84z"/>
  <path class="fil0" d="M-9515.55 -5699.36l191.22 191.23 -13.5 36.21 -197.83 -197.82 20.11 -29.62zm650.81 650.83l205.86 205.87 -21.49 28.18 -227.22 -227.2 42.85 -6.85z"/>
  <path class="fil0" d="M-9495.43 -5729l184.62 184.63 -13.52 36.24 -191.22 -191.23 20.12 -29.64zm673.58 673.62l184.49 184.5 -21.52 28.22 -205.86 -205.87 42.89 -6.85z"/>
  <path class="fil0" d="M-9475.36 -5758.58l178.04 178.04 -13.49 36.17 -184.62 -184.63 20.07 -29.58zm696.34 696.36l163.15 163.16 -21.49 28.18 -184.49 -184.5 42.83 -6.84z"/>
  <path class="fil0" d="M-9455.25 -5788.21l171.44 171.45 -13.51 36.22 -178.04 -178.04 20.11 -29.63zm719.1 719.14l141.79 141.8 -21.51 28.21 -163.15 -163.16 42.87 -6.85z"/>
  <path class="fil0" d="M-9435.15 -5817.81l164.85 164.85 -13.51 36.2 -171.44 -171.45 20.1 -29.6zm741.87 741.89l120.44 120.44 -21.52 28.21 -141.79 -141.8 42.87 -6.85z"/>
  <path class="fil0" d="M-9415.06 -5847.42l158.26 158.26 -13.5 36.2 -164.85 -164.85 20.09 -29.61zm764.64 764.65l99.08 99.08 -21.5 28.21 -120.44 -120.44 42.86 -6.85z"/>
  <path class="fil0" d="M-9394.96 -5877.02l151.66 151.66 -13.5 36.2 -158.26 -158.26 20.1 -29.6zm787.4 787.4l77.73 77.73 -21.51 28.2 -99.08 -99.08 42.86 -6.85z"/>
  <path class="fil0" d="M-9374.85 -5906.64l145.06 145.07 -13.51 36.21 -151.66 -151.66 20.11 -29.62zm810.15 810.18l56.37 56.37 -21.5 28.2 -77.73 -77.73 42.86 -6.84z"/>
  <path class="fil0" d="M-9354.74 -5936.27l138.46 138.47 -13.51 36.23 -145.06 -145.07 20.11 -29.63zm832.9 832.96l35.02 35.02 -21.51 28.2 -56.37 -56.37 42.86 -6.85z"/>
  <path class="fil0" d="M-9334.66 -5965.86l131.88 131.88 -13.5 36.18 -138.46 -138.47 20.08 -29.59zm855.67 855.7l13.67 13.67 -21.5 28.2 -35.02 -35.02 42.85 -6.85z"/>
  <path class="fil0" d="M-9314.56 -5995.47l125.28 125.29 -13.5 36.2 -131.88 -131.88 20.1 -29.61zm849.24 898.98l-13.67 -13.67 27.44 -4.38 -13.77 18.05z"/>
  <polygon class="fil0" points="-9294.46,-6025.08 -9175.77,-5906.39 -9189.28,-5870.18 -9314.56,-5995.47 "/>
  <polygon class="fil0" points="-9274.38,-6054.67 -9162.28,-5942.57 -9175.77,-5906.39 -9294.46,-6025.08 "/>
  <polygon class="fil0" points="-9254.27,-6084.29 -9148.77,-5978.79 -9162.28,-5942.57 -9274.38,-6054.67 "/>
  <polygon class="fil0" points="-9234.18,-6113.89 -9135.27,-6014.98 -9148.77,-5978.79 -9254.27,-6084.29 "/>
  <polygon class="fil0" points="-9214.07,-6143.52 -9121.75,-6051.2 -9135.27,-6014.98 -9234.18,-6113.89 "/>
  <polygon class="fil0" points="-9193.98,-6173.11 -9108.26,-6087.39 -9121.75,-6051.2 -9214.07,-6143.52 "/>
  <polygon class="fil0" points="-9173.87,-6202.73 -9094.75,-6123.6 -9108.26,-6087.39 -9193.98,-6173.11 "/>
  <polygon class="fil0" points="-9153.76,-6232.36 -9081.24,-6159.83 -9094.75,-6123.6 -9173.87,-6202.73 "/>
  <polygon class="fil0" points="-9133.69,-6261.93 -9067.75,-6195.99 -9081.24,-6159.83 -9153.76,-6232.36 "/>
  <polygon class="fil0" points="-9113.58,-6291.55 -9054.24,-6232.21 -9067.75,-6195.99 -9133.69,-6261.93 "/>
  <polygon class="fil0" points="-9093.48,-6321.17 -9040.73,-6268.42 -9054.24,-6232.21 -9113.58,-6291.55 "/>
  <polygon class="fil0" points="-9073.37,-6350.8 -9027.22,-6304.64 -9040.73,-6268.42 -9093.48,-6321.17 "/>
  <polygon class="fil0" points="-9053.26,-6380.43 -9013.71,-6340.87 -9027.22,-6304.64 -9073.37,-6350.8 "/>
  <polygon class="fil0" points="-9033.18,-6410.01 -9000.21,-6377.05 -9013.71,-6340.87 -9053.26,-6380.43 "/>
  <polygon class="fil0" points="-9013.08,-6439.63 -8986.71,-6413.25 -9000.21,-6377.05 -9033.18,-6410.01 "/>
  <polygon class="fil0" points="-8992.98,-6469.23 -8973.2,-6449.45 -8986.71,-6413.25 -9013.08,-6439.63 "/>
  <polygon class="fil0" points="-8972.89,-6498.84 -8959.7,-6485.65 -8973.2,-6449.45 -8992.98,-6469.23 "/>
  <polygon class="fil0" points="-8952.78,-6528.45 -8946.19,-6521.86 -8959.7,-6485.65 -8972.89,-6498.84 "/>
  <polygon class="fil0" points="-8946.19,-6521.86 -8952.78,-6528.45 -8932.7,-6558.04 "/>
  <path class="fil1" d="M-10137.79 -4557.86c19.76,-29.14 39.26,-58.46 58.62,-87.88l57.31 -88.76 113.35 -178.33 113.82 -178.04 113.91 -177.94 113.68 -178.12 226.27 -356.94 -3.53 -2.33 -238.3 349.04 -118.64 174.83 -118.37 175.05 -118.5 174.94 -118.94 174.67 -58.84 87.73c-19.36,29.42 -38.57,58.91 -57.53,88.58 -19.09,29.6 -37.66,59.55 -56.53,89.29 -18.92,29.71 -37.23,59.8 -55.82,89.71l-18.95 30.48 34.89 -4.51c39.88,-5.15 79.66,-10.76 119.49,-16.2 39.82,-5.39 79.62,-11.07 119.44,-16.79 39.78,-5.61 79.55,-11.6 119.33,-17.5l59.62 -9.1 59.6 -9.49 -0.49 -4.16 -60.2 4.13 -60.15 4.48c-40.08,3.21 -80.18,6.28 -120.22,9.74 -40.05,3.35 -80.11,6.77 -120.13,10.44 -27.87,2.54 -55.74,5.04 -83.57,7.58 13.35,-19.05 26.69,-38.13 39.76,-57.36 19.86,-29.1 40.01,-58 59.62,-87.24z"/>
  <path class="fil1" d="M-8691.65 -5008.18l-119.56 15.48 -119.55 15.7c-39.83,5.08 -79.63,10.73 -119.45,16.2l-59.73 8.25 -59.69 8.57 0.28 2.79 60.12 -5.04 60.07 -5.37c40.01,-3.6 80.08,-7.02 120.05,-10.97l120.02 -11.57 94.61 -9.24 -47.87 64.38c-20.78,28.33 -41.8,56.44 -62.37,84.91l-61.77 85.38 -60.93 85.93 -242.28 344.84 -242.57 344.67 -241.76 345.22 2.29 1.63 249.49 -339.66 248.74 -340.25 248.96 -340.04 61.87 -85.27 61.03 -85.9c20.39,-28.61 40.29,-57.54 60.47,-86.29l59.94 -86.64 14.46 -20.92 -24.87 3.21z"/>
  <path class="fil2" d="M9792.77 51.56l49.71 -49.71 77.54 0 -130.44 130.44c0.69,-27.01 1.77,-53.92 3.19,-80.73z"/>
  <path class="fil2" d="M9794.41 382.69l380.84 -380.84 77.54 0 -453.03 453.04c-2.08,-23.98 -3.86,-48.05 -5.35,-72.2z"/>
  <path class="fil2" d="M9828.49 681.39l679.5 -679.54 77.54 0 -745.25 745.26c-4.17,-21.82 -8.11,-43.73 -11.79,-65.72z"/>
  <path class="fil2" d="M9888.07 954.51l952.7 -952.66 77.54 0 -1013.19 1013.2c-5.91,-20.09 -11.58,-40.27 -17.05,-60.54z"/>
  <path class="fil2" d="M9968.8 1206.56l1204.71 -1204.71 77.54 0 -1260.77 1260.81c-7.37,-18.6 -14.48,-37.32 -21.48,-56.1z"/>
  <path class="fil2" d="M10072.09 1449.33l-0.01 0c-1.45,-3.01 -2.79,-6.07 -4.23,-9.08l1438.4 -1438.4 77.58 0 -1490.41 1490.41z"/>
  <path class="fil2" d="M10183.4 1657.47l1655.62 -1655.62 77.55 0 -1704.08 1704.12c-9.87,-16.05 -19.53,-32.24 -29.09,-48.5z"/>
  <path class="fil2" d="M10313.88 1859.77l1857.92 -1857.92 77.54 0 -1902.92 1902.89c-10.96,-14.9 -21.86,-29.85 -32.54,-44.97z"/>
  <path class="fil2" d="M10458.7 2047.69l2045.84 -2045.84 77.54 0 -2087.74 2087.74c-12.04,-13.83 -23.86,-27.84 -35.64,-41.9z"/>
  <path class="fil2" d="M10617.19 2221.97l2220.13 -2220.12 77.54 0 -2258.75 2258.75c-13.08,-12.77 -26.08,-25.62 -38.92,-38.63z"/>
  <path class="fil2" d="M10789.2 2382.7l2380.86 -2380.85 77.54 0 -2416.38 2416.37c-14.13,-11.7 -28.12,-23.56 -42.02,-35.52z"/>
  <path class="fil2" d="M10975.04 2529.65l2527.79 -2527.8 77.54 0 -2560.03 2560.07c-15.21,-10.61 -30.31,-21.37 -45.3,-32.27z"/>
  <path class="fil2" d="M11174.78 2662.64l2660.79 -2660.79 77.58 0 -2689.64 2689.61c-16.34,-9.47 -32.6,-19.04 -48.73,-28.82z"/>
  <path class="fil2" d="M11389.68 2780.49l2778.67 -2778.64 77.54 0 -2803.89 2803.89c-17.54,-8.24 -34.97,-16.67 -52.32,-25.25z"/>
  <path class="fil2" d="M11620.53 2882.41l2880.56 -2880.56 77.57 0 -2901.88 2901.89c-18.86,-6.88 -37.58,-14.06 -56.25,-21.33z"/>
  <path class="fil2" d="M11869.33 2966.35l2964.53 -2964.5 77.54 0 -2981.16 2981.16c-20.38,-5.35 -40.71,-10.87 -60.91,-16.66z"/>
  <path class="fil2" d="M12138.89 3029.56l3027.71 -3027.71 77.54 0 -3039.03 3039.07c-22.16,-3.55 -44.24,-7.31 -66.22,-11.36z"/>
  <path class="fil2" d="M12433.04 3068.19l3066.34 -3066.34 30.15 0c1.03,14.85 1.96,29.72 2.77,44.62l-3026.55 3026.55c-24.32,-1.32 -48.56,-2.92 -72.71,-4.83z"/>
  <path class="fil2" d="M12758.4 3075.57l2776.5 -2776.5c-0.89,27.24 -2.18,54.37 -3.83,81.41l-2691.3 2691.26c-27.03,1.64 -54.15,2.94 -81.37,3.83z"/>
  <path class="fil2" d="M13126.92 3039.82l2372.22 -2372.22c-5.14,31.67 -10.78,63.17 -16.95,94.49l-2260.78 2260.78c-31.31,6.17 -62.82,11.81 -94.49,16.95z"/>
  <path class="fil2" d="M13567.71 2931.77l1823.37 -1823.36c-13.47,40.64 -27.86,80.84 -43.08,120.65l-1659.62 1659.62zm-37.51 14.26l-0.29 0.11c-21.72,7.95 -43.54,15.68 -65.51,23.07l-0.53 0.18 -0.07 0.03 -0.45 0.15c-5.41,1.8 -10.89,3.49 -16.31,5.29z"/>
  <path class="fil2" d="M14200.97 2631.29l889.63 -889.63c-61.71,97.19 -129.09,190.42 -201.68,279.22l-408.89 408.86c-14.15,11.57 -28.33,23.11 -42.7,34.4l-0.27 0.21c-75.7,59.5 -154.54,115.16 -236.09,166.94z"/>
  <path class="fil0" d="M2722.09 1281.75l422.38 402.56c4.95,4.96 8.25,9.29 9.9,13.01 1.66,3.72 2.48,6.81 2.48,9.29 0,7.43 -2.68,13.83 -8.05,19.2 -5.37,5.37 -11.77,8.05 -19.2,8.05l-76.8 0c-11.56,0 -21.05,-2.27 -28.48,-6.81 -7.44,-4.54 -12.8,-8.47 -16.11,-11.77l-350.53 -334.44 0 319.58c0,9.08 -3.31,16.92 -9.91,23.53 -6.61,6.61 -14.45,9.91 -23.54,9.91l-50.78 0c-9.09,0 -16.93,-3.3 -23.54,-9.91 -6.6,-6.61 -9.91,-14.45 -9.91,-23.53l0 -800.17c0,-9.08 3.31,-16.93 9.91,-23.54 6.61,-6.6 14.45,-9.9 23.54,-9.9l50.78 0c9.09,0 16.93,3.3 23.54,9.9 6.6,6.61 9.91,14.46 9.91,23.54l0 288.6 330.72 -303.47c3.3,-3.3 8.67,-7.22 16.1,-11.76 7.43,-4.54 16.93,-6.81 28.49,-6.81l71.84 0c7.43,0 13.83,2.68 19.2,8.05 5.36,5.36 8.05,11.76 8.05,19.2 0,2.47 -0.83,5.57 -2.48,9.29 -1.65,3.71 -4.95,8.05 -9.91,13l-397.6 365.4z"/>
  <path id="1" class="fil0" d="M3215.07 1571.6c0,-33.03 6.6,-61.94 19.82,-86.71 13.21,-24.77 31.38,-45.83 54.5,-63.17 23.12,-17.34 50.16,-31.38 81.13,-42.11 30.97,-10.74 63.79,-19 98.47,-24.78l174.65 -28.49 0 -16.1c0,-42.11 -13.83,-73.7 -41.49,-94.76 -27.67,-21.05 -62.14,-31.58 -103.43,-31.58 -36.33,0 -63.79,6.61 -82.37,19.82 -18.58,13.21 -34.48,28.9 -47.69,47.07 -4.95,6.6 -10.32,11.14 -16.1,13.62 -5.78,2.48 -13.63,3.72 -23.54,3.72l-37.16 0c-9.08,0 -17.13,-3.31 -24.15,-9.91 -7.02,-6.61 -10.11,-14.45 -9.29,-23.54 1.65,-18.16 8.88,-36.74 21.68,-55.74 12.8,-18.99 30.14,-35.92 52.02,-50.78 21.88,-14.86 47.07,-27.04 75.56,-36.54 28.49,-9.5 58.83,-14.24 91.04,-14.24 37.16,0 71.63,5.36 103.43,16.1 31.79,10.73 59.04,26.42 81.75,47.07 22.71,20.64 40.46,46.24 53.26,76.79 12.8,30.56 19.2,65.65 19.2,105.29l0 377.79c0,9.08 -3.3,16.92 -9.91,23.53 -6.61,6.61 -14.45,9.91 -23.53,9.91l-45.83 0c-9.09,0 -16.93,-3.3 -23.54,-9.91 -6.61,-6.61 -9.91,-14.45 -9.91,-23.53l0 -50.79c-7.43,15.69 -18.99,29.52 -34.68,41.5 -15.69,11.97 -33.65,22.09 -53.88,30.34 -20.23,8.26 -41.29,14.45 -63.17,18.58 -21.89,4.13 -42.32,6.2 -61.32,6.2 -32.2,0 -61.72,-4.55 -88.56,-13.63 -26.84,-9.08 -49.55,-21.26 -68.13,-36.54 -18.58,-15.28 -33.03,-33.65 -43.35,-55.12 -10.32,-21.47 -15.48,-44.59 -15.48,-69.36zm227.91 68.12c29.73,0 56.98,-4.54 81.75,-13.62 24.77,-9.09 46.04,-21.68 63.79,-37.78 17.76,-16.1 31.38,-35.3 40.88,-57.6 9.49,-22.29 14.24,-47.07 14.24,-74.32l0 -30.96 -146.16 23.53c-52.02,8.26 -93.31,21.47 -123.86,39.64 -30.56,18.16 -45.83,41.7 -45.83,70.6 0,9.08 2.06,18.17 6.19,27.25 4.13,9.08 10.73,17.75 19.82,26.01 9.08,8.26 20.85,14.87 35.3,19.82 14.45,4.96 32.41,7.43 53.88,7.43z"/>
  <path id="2" class="fil0" d="M4321.18 863.09c0,28.9 -6.4,55.33 -19.2,79.27 -12.8,23.95 -28.9,47.28 -48.31,69.99 -19.4,22.7 -40.87,45.83 -64.41,69.36 -23.53,23.54 -46.45,49.34 -68.74,77.42 20.64,-4.96 43.35,-7.44 68.12,-7.44 41.29,0 79.28,6.61 113.96,19.82 34.68,13.22 64.62,32.62 89.8,58.22 25.19,25.6 44.8,56.77 58.84,93.52 14.04,36.74 21.06,78.65 21.06,125.72 0,43.77 -7.02,84.02 -21.06,120.77 -14.04,36.75 -33.65,68.12 -58.84,94.14 -25.18,26.01 -55.12,46.24 -89.8,60.69 -34.68,14.45 -72.67,21.68 -113.96,21.68 -41.28,0 -79.27,-7.23 -113.95,-21.68 -34.68,-14.45 -64.62,-34.68 -89.8,-60.69 -25.19,-26.02 -44.8,-57.39 -58.84,-94.14 -14.04,-36.75 -21.06,-77 -21.06,-120.77 0,-63.58 7.44,-119.12 22.3,-166.6 14.86,-47.48 33.65,-88.97 56.36,-124.48 22.71,-35.51 47.07,-66.48 73.08,-92.9 26.01,-26.43 50.37,-50.79 73.08,-73.08 22.71,-22.3 41.49,-43.56 56.36,-63.79 14.86,-20.23 22.29,-41.91 22.29,-65.03 0,-9.08 3.31,-16.93 9.91,-23.54 6.61,-6.6 14.45,-9.9 23.54,-9.9l45.83 0c9.08,0 16.92,3.3 23.53,9.9 6.61,6.61 9.91,14.46 9.91,23.54zm-132.54 395.13c-57.8,0 -100.74,17.55 -128.81,52.64 -28.08,35.1 -42.12,81.13 -42.12,138.11 0,56.98 14.04,103.01 42.12,138.11 28.07,35.1 71.01,52.64 128.81,52.64 57.81,0 100.75,-17.54 128.82,-52.64 28.08,-35.1 42.12,-81.13 42.12,-138.11 0,-56.98 -14.04,-103.01 -42.12,-138.11 -28.07,-35.09 -71.01,-52.64 -128.82,-52.64z"/>
  <path id="3" class="fil0" d="M4593.68 1349.88c3.3,-37.99 12.39,-73.49 27.25,-106.53 14.87,-33.03 34.27,-61.93 58.22,-86.7 23.95,-24.77 52.64,-44.18 86.08,-58.22 33.45,-14.04 70.81,-21.05 112.1,-21.05 44.59,0 84.44,7.22 119.53,21.67 35.1,14.45 65.03,35.3 89.8,62.55 24.78,27.25 43.77,60.28 56.98,99.1 13.21,38.81 19.82,82.16 19.82,130.05l0 33.45c0,9.08 -3.3,16.93 -9.91,23.53 -6.61,6.61 -14.45,9.91 -23.53,9.91l-426.1 0 0 7.43c1.65,56.16 18.79,99.3 51.4,129.44 32.62,30.14 73.29,45.21 122.01,45.21 45.42,0 79.48,-6.4 102.19,-19.2 22.71,-12.8 41.08,-27.04 55.12,-42.73 6.61,-6.61 12.39,-11.15 17.34,-13.63 4.96,-2.47 12.39,-3.71 22.3,-3.71l37.16 0c9.08,0 17.34,3.3 24.77,9.91 7.43,6.6 10.32,14.45 8.67,23.53 -2.48,14.87 -9.5,31.18 -21.06,48.93 -11.56,17.75 -28.28,34.27 -50.16,49.55 -21.88,15.27 -49.14,28.07 -81.75,38.39 -32.62,10.33 -70.81,15.49 -114.58,15.49 -41.29,0 -78.45,-7.23 -111.48,-21.68 -33.03,-14.45 -61.72,-34.27 -86.08,-59.46 -24.36,-25.18 -43.97,-54.91 -58.84,-89.18 -14.86,-34.27 -23.95,-71.63 -27.25,-112.1 -4.13,-37.98 -4.13,-75.97 0,-113.95zm110.24 3.71l348.06 0 0 -3.71c0,-50.37 -15.89,-90.63 -47.69,-120.77 -31.79,-30.14 -74.11,-45.21 -126.96,-45.21 -23.95,0 -46.24,3.92 -66.89,11.77 -20.64,7.84 -38.81,18.99 -54.5,33.44 -15.69,14.45 -28.07,32 -37.16,52.64 -9.08,20.65 -14.03,43.36 -14.86,68.13l0 3.71z"/>
  <path id="4" class="fil0" d="M5385.18 1123.21c0,-9.09 3.3,-16.93 9.91,-23.54 6.61,-6.6 14.45,-9.91 23.53,-9.91l417.43 0c9.08,0 16.93,3.31 23.53,9.91 6.61,6.61 9.91,14.45 9.91,23.54l0 577.21c0,9.08 -3.3,16.92 -9.91,23.53 -6.6,6.61 -14.45,9.91 -23.53,9.91l-45.83 0c-9.08,0 -16.93,-3.3 -23.54,-9.91 -6.6,-6.61 -9.9,-14.45 -9.9,-23.53l0 -504.13 -258.88 0 0 323.28c0,33.86 -3.51,64.62 -10.53,92.28 -7.02,27.67 -18.58,51.41 -34.68,71.23 -16.11,19.81 -37.37,35.3 -63.79,46.44 -26.43,11.15 -59.05,16.73 -97.86,16.73l-14.86 0c-9.08,0 -16.93,-3.31 -23.54,-9.91 -6.6,-6.61 -9.9,-14.45 -9.9,-23.54l0 -39.63c0,-9.09 3.3,-16.93 9.9,-23.54 6.61,-6.6 14.46,-9.91 23.54,-9.91l14.86 0c37.99,0 63.17,-10.94 75.56,-32.82 12.39,-21.88 18.58,-51.41 18.58,-88.57l0 -395.12z"/>
  <path id="5" class="fil0" d="M6088.73 1733.86c-9.08,0 -16.93,-3.3 -23.53,-9.91 -6.61,-6.61 -9.91,-14.45 -9.91,-23.53l0 -577.21c0,-9.09 3.3,-16.93 9.91,-23.54 6.6,-6.6 14.45,-9.91 23.53,-9.91l45.83 0c9.09,0 16.93,3.31 23.54,9.91 6.6,6.61 9.91,14.45 9.91,23.54l0 125.1 133.77 0c39.64,0 75.76,5.78 108.38,17.34 32.62,11.56 60.7,27.87 84.23,48.93 23.53,21.05 41.91,46.65 55.12,76.79 13.21,30.14 19.82,63.38 19.82,99.71 0,36.34 -6.61,69.58 -19.82,99.72 -13.21,30.14 -31.59,55.74 -55.12,76.79 -23.53,21.06 -51.61,37.37 -84.23,48.93 -32.62,11.56 -68.74,17.34 -108.38,17.34l-213.05 0zm369.12 -242.78c0,-24.77 -4.34,-45.83 -13.01,-63.17 -8.67,-17.34 -20.64,-31.38 -35.92,-42.11 -15.27,-10.74 -33.65,-18.58 -55.12,-23.53 -21.47,-4.96 -44.59,-7.44 -69.36,-7.44l-116.43 0 0 272.51 116.43 0c24.77,0 47.89,-2.48 69.36,-7.44 21.47,-4.95 39.85,-12.8 55.12,-23.53 15.28,-10.74 27.25,-24.77 35.92,-42.11 8.67,-17.35 13.01,-38.4 13.01,-63.18z"/>
  <path class="fil0" d="M2518.15 2600.74c0.94,-52.68 10.11,-102.3 27.51,-148.87 17.41,-46.57 42.57,-87.02 75.5,-121.35 32.92,-34.34 73.38,-61.62 121.35,-81.85 47.98,-20.23 103.01,-30.34 165.1,-30.34 62.09,0 117.13,10.11 165.1,30.34 47.98,20.23 88.43,47.51 121.36,81.85 32.92,34.33 58.09,74.78 75.49,121.35 17.41,46.57 26.58,96.19 27.52,148.87 2.82,83.73 2.82,167.45 0,251.18 -1.88,52.68 -11.52,102.31 -28.93,148.87 -17.4,46.57 -42.57,87.26 -75.49,122.06 -32.93,34.81 -73.15,62.09 -120.65,81.85 -47.51,19.75 -102.31,29.63 -164.4,29.63 -62.09,0 -116.88,-9.88 -164.39,-29.63 -47.51,-19.76 -87.73,-47.04 -120.65,-81.85 -32.93,-34.8 -58.09,-75.49 -75.5,-122.06 -17.4,-46.56 -27.04,-96.19 -28.92,-148.87 -2.83,-83.73 -2.83,-167.45 0,-251.18zm644.87 7.06c-1.88,-44.22 -9.17,-82.79 -21.87,-115.71 -12.7,-32.93 -30.34,-60.21 -52.91,-81.85 -22.58,-21.63 -49.16,-37.86 -79.73,-48.68 -30.58,-10.82 -64.21,-16.23 -100.9,-16.23 -36.69,0 -70.32,5.41 -100.89,16.23 -30.58,10.82 -57.15,27.05 -79.73,48.68 -22.58,21.64 -40.45,48.92 -53.62,81.85 -13.17,32.92 -20.23,71.49 -21.17,115.71 -1.88,42.33 -2.82,81.84 -2.82,118.53 0,36.69 0.94,76.2 2.82,118.53 0.94,44.22 8,82.79 21.17,115.72 13.17,32.92 31.04,60.2 53.62,81.84 22.58,21.64 49.15,37.86 79.73,48.68 30.57,10.82 64.2,16.23 100.89,16.23 36.69,0 70.32,-5.41 100.9,-16.23 30.57,-10.82 57.15,-27.04 79.73,-48.68 22.57,-21.64 40.21,-48.92 52.91,-81.84 12.7,-32.93 19.99,-71.5 21.87,-115.72 1.89,-42.33 2.83,-81.84 2.83,-118.53 0,-36.69 -0.94,-76.2 -2.83,-118.53z"/>
  <path id="1" class="fil0" d="M4229.83 2232.44c10.35,0 19.28,3.77 26.81,11.29 7.52,7.53 11.29,16.46 11.29,26.81l0 911.58c0,10.35 -3.77,19.29 -11.29,26.81 -7.53,7.53 -16.46,11.29 -26.81,11.29l-57.86 0c-10.35,0 -19.28,-3.76 -26.81,-11.29 -7.53,-7.52 -11.29,-16.46 -11.29,-26.81l0 -822.68 -496.71 0 0 822.68c0,10.35 -3.76,19.29 -11.29,26.81 -7.52,7.53 -16.46,11.29 -26.81,11.29l-57.85 0c-10.35,0 -19.29,-3.76 -26.82,-11.29 -7.52,-7.52 -11.28,-16.46 -11.28,-26.81l0 -911.58c0,-10.35 3.76,-19.28 11.28,-26.81 7.53,-7.52 16.47,-11.29 26.82,-11.29l688.62 0z"/>
  <path id="2" class="fil0" d="M5121.65 2232.44c10.34,0 19.28,3.77 26.81,11.29 7.52,7.53 11.29,16.46 11.29,26.81l0 50.8c0,10.35 -3.77,19.29 -11.29,26.81 -7.53,7.53 -16.47,11.29 -26.81,11.29l-263.88 0 0 822.68c0,10.35 -3.76,19.29 -11.29,26.81 -7.53,7.53 -16.46,11.29 -26.81,11.29l-57.86 0c-10.35,0 -19.28,-3.76 -26.81,-11.29 -7.52,-7.52 -11.29,-16.46 -11.29,-26.81l0 -822.68 -263.87 0c-10.35,0 -19.29,-3.76 -26.82,-11.29 -7.52,-7.52 -11.28,-16.46 -11.28,-26.81l0 -50.8c0,-10.35 3.76,-19.28 11.28,-26.81 7.53,-7.52 16.47,-11.29 26.82,-11.29l661.81 0z"/>
  <path id="3" class="fil0" d="M5842.72 2232.44c10.35,0 19.29,3.77 26.81,11.29 7.53,7.53 11.29,16.46 11.29,26.81l0 50.8c0,8.47 -1.41,17.41 -4.23,26.81 -2.82,9.41 -6.59,19.29 -11.29,29.64l-313.27 808.56c-3.76,8.47 -8.7,16.23 -14.81,23.29 -6.12,7.05 -14.82,10.58 -26.11,10.58l-64.91 0c-9.41,0 -17.4,-3.29 -23.99,-9.88 -6.58,-6.58 -9.88,-14.58 -9.88,-23.99 0,-1.88 0.24,-3.99 0.71,-6.35 0.47,-2.35 1.65,-5.88 3.53,-10.58l314.67 -809.98 -462.84 0c-10.35,0 -19.29,-3.76 -26.81,-11.29 -7.53,-7.52 -11.29,-16.46 -11.29,-26.81l0 -50.8c0,-10.35 3.76,-19.28 11.29,-26.81 7.52,-7.52 16.46,-11.29 26.81,-11.29l574.32 0z"/>
  <path id="4" class="fil0" d="M6408.58 3182.12c0,10.35 -3.77,19.29 -11.29,26.81 -7.53,7.53 -16.47,11.29 -26.81,11.29l-57.86 0c-10.35,0 -19.29,-3.76 -26.81,-11.29 -7.53,-7.52 -11.29,-16.46 -11.29,-26.81l0 -777.52 -228.6 173.56c-8.47,7.53 -17.87,10.35 -28.22,8.47 -10.35,-1.88 -18.82,-6.58 -25.4,-14.11l-33.87 -43.74c-6.58,-8.47 -9.17,-17.88 -7.76,-28.23 1.41,-10.34 6.35,-18.81 14.82,-25.4l301.97 -231.42c7.53,-5.64 15.06,-8.94 22.58,-9.88 7.53,-0.94 15.05,-1.41 22.58,-1.41l57.86 0c10.34,0 19.28,3.77 26.81,11.29 7.52,7.53 11.29,16.46 11.29,26.81l0 911.58z"/>
  <path id="5" class="fil0" d="M2518.15 2600.74c0.94,-52.68 10.11,-102.3 27.51,-148.87 17.41,-46.57 42.57,-87.02 75.5,-121.35 32.92,-34.34 73.38,-61.62 121.35,-81.85 47.98,-20.23 103.01,-30.34 165.1,-30.34 62.09,0 117.13,10.11 165.1,30.34 47.98,20.23 88.43,47.51 121.36,81.85 32.92,34.33 58.09,74.78 75.49,121.35 17.41,46.57 26.58,96.19 27.52,148.87 2.82,83.73 2.82,167.45 0,251.18 -1.88,52.68 -11.52,102.31 -28.93,148.87 -17.4,46.57 -42.57,87.26 -75.49,122.06 -32.93,34.81 -73.15,62.09 -120.65,81.85 -47.51,19.75 -102.31,29.63 -164.4,29.63 -62.09,0 -116.88,-9.88 -164.39,-29.63 -47.51,-19.76 -87.73,-47.04 -120.65,-81.85 -32.93,-34.8 -58.09,-75.49 -75.5,-122.06 -17.4,-46.56 -27.04,-96.19 -28.92,-148.87 -2.83,-83.73 -2.83,-167.45 0,-251.18zm644.87 7.06c-1.88,-44.22 -9.17,-82.79 -21.87,-115.71 -12.7,-32.93 -30.34,-60.21 -52.91,-81.85 -22.58,-21.63 -49.16,-37.86 -79.73,-48.68 -30.58,-10.82 -64.21,-16.23 -100.9,-16.23 -36.69,0 -70.32,5.41 -100.89,16.23 -30.58,10.82 -57.15,27.05 -79.73,48.68 -22.58,21.64 -40.45,48.92 -53.62,81.85 -13.17,32.92 -20.23,71.49 -21.17,115.71 -1.88,42.33 -2.82,81.84 -2.82,118.53 0,36.69 0.94,76.2 2.82,118.53 0.94,44.22 8,82.79 21.17,115.72 13.17,32.92 31.04,60.2 53.62,81.84 22.58,21.64 49.15,37.86 79.73,48.68 30.57,10.82 64.2,16.23 100.89,16.23 36.69,0 70.32,-5.41 100.9,-16.23 30.57,-10.82 57.15,-27.04 79.73,-48.68 22.57,-21.64 40.21,-48.92 52.91,-81.84 12.7,-32.93 19.99,-71.5 21.87,-115.72 1.89,-42.33 2.83,-81.84 2.83,-118.53 0,-36.69 -0.94,-76.2 -2.83,-118.53z"/>
  <path id="6" class="fil0" d="M4229.83 2232.44c10.35,0 19.28,3.77 26.81,11.29 7.52,7.53 11.29,16.46 11.29,26.81l0 911.58c0,10.35 -3.77,19.29 -11.29,26.81 -7.53,7.53 -16.46,11.29 -26.81,11.29l-57.86 0c-10.35,0 -19.28,-3.76 -26.81,-11.29 -7.53,-7.52 -11.29,-16.46 -11.29,-26.81l0 -822.68 -496.71 0 0 822.68c0,10.35 -3.76,19.29 -11.29,26.81 -7.52,7.53 -16.46,11.29 -26.81,11.29l-57.85 0c-10.35,0 -19.29,-3.76 -26.82,-11.29 -7.52,-7.52 -11.28,-16.46 -11.28,-26.81l0 -911.58c0,-10.35 3.76,-19.28 11.28,-26.81 7.53,-7.52 16.47,-11.29 26.82,-11.29l688.62 0z"/>
  <polygon class="fil0" points="1730.01,83 171.02,2379.76 1094.88,2257.87 459.72,3823.29 2211.16,1526.5 1126.96,1699.71 "/>
  <polygon class="fil0" points="469.18,3799.94 473.89,3804.66 459.72,3823.25 "/>
  <polygon class="fil0" points="478.64,3776.61 488.08,3786.05 473.89,3804.66 469.18,3799.94 "/>
  <polygon class="fil0" points="488.12,3753.27 502.28,3767.43 488.08,3786.05 478.64,3776.61 "/>
  <polygon class="fil0" points="497.57,3729.96 516.46,3748.84 502.28,3767.43 488.12,3753.27 "/>
  <polygon class="fil0" points="507.03,3706.65 530.64,3730.25 516.46,3748.84 497.57,3729.96 "/>
  <polygon class="fil0" points="516.5,3683.31 544.83,3711.64 530.64,3730.25 507.03,3706.65 "/>
  <polygon class="fil0" points="525.98,3659.96 559.03,3693.01 544.83,3711.64 516.5,3683.31 "/>
  <polygon class="fil0" points="535.43,3636.65 573.21,3674.43 559.03,3693.01 525.98,3659.96 "/>
  <polygon class="fil0" points="544.89,3613.33 587.39,3655.83 573.21,3674.43 535.43,3636.65 "/>
  <polygon class="fil0" points="554.37,3589.99 601.59,3637.21 587.39,3655.83 544.89,3613.33 "/>
  <polygon class="fil0" points="563.84,3566.65 615.78,3618.59 601.59,3637.21 554.37,3589.99 "/>
  <polygon class="fil0" points="573.3,3543.33 629.96,3600 615.78,3618.59 563.84,3566.65 "/>
  <polygon class="fil0" points="582.76,3520 644.15,3581.39 629.96,3600 573.3,3543.33 "/>
  <polygon class="fil0" points="592.23,3496.67 658.35,3562.78 644.15,3581.39 582.76,3520 "/>
  <polygon class="fil0" points="601.7,3473.33 672.54,3544.17 658.35,3562.78 592.23,3496.67 "/>
  <polygon class="fil0" points="611.16,3450.01 686.72,3525.57 672.54,3544.17 601.7,3473.33 "/>
  <polygon class="fil0" points="620.63,3426.69 700.91,3506.97 686.72,3525.57 611.16,3450.01 "/>
  <polygon class="fil0" points="630.09,3403.36 715.1,3488.36 700.91,3506.97 620.63,3426.69 "/>
  <polygon class="fil0" points="639.56,3380.02 729.29,3469.75 715.1,3488.36 630.09,3403.36 "/>
  <polygon class="fil0" points="649.03,3356.69 743.48,3451.14 729.29,3469.75 639.56,3380.02 "/>
  <polygon class="fil0" points="658.49,3333.38 757.66,3432.55 743.48,3451.14 649.03,3356.69 "/>
  <polygon class="fil0" points="667.96,3310.03 771.86,3413.93 757.66,3432.55 658.49,3333.38 "/>
  <polygon class="fil0" points="677.43,3286.69 786.05,3395.31 771.86,3413.93 667.96,3310.03 "/>
  <polygon class="fil0" points="686.89,3263.38 800.23,3376.72 786.05,3395.31 677.43,3286.69 "/>
  <polygon class="fil0" points="696.35,3240.07 814.41,3358.13 800.23,3376.72 686.89,3263.38 "/>
  <polygon class="fil0" points="705.82,3216.72 828.62,3339.5 814.41,3358.13 696.35,3240.07 "/>
  <polygon class="fil0" points="715.29,3193.39 842.8,3320.9 828.62,3339.5 705.82,3216.72 "/>
  <polygon class="fil0" points="724.75,3170.06 856.99,3302.3 842.8,3320.9 715.29,3193.39 "/>
  <polygon class="fil0" points="734.22,3146.73 871.17,3283.69 856.99,3302.3 724.75,3170.06 "/>
  <polygon class="fil0" points="743.69,3123.4 885.37,3265.08 871.17,3283.69 734.22,3146.73 "/>
  <polygon class="fil0" points="753.15,3100.09 899.54,3246.49 885.37,3265.08 743.69,3123.4 "/>
  <polygon class="fil0" points="762.62,3076.74 913.74,3227.87 899.54,3246.49 753.15,3100.09 "/>
  <polygon class="fil0" points="772.08,3053.43 927.92,3209.27 913.74,3227.87 762.62,3076.74 "/>
  <polygon class="fil0" points="781.55,3030.09 942.12,3190.65 927.92,3209.27 772.08,3053.43 "/>
  <polygon class="fil0" points="791.01,3006.78 956.29,3172.07 942.12,3190.65 781.55,3030.09 "/>
  <path class="fil0" d="M181.45 2364.4l12.35 12.35 -22.78 3.01 10.43 -15.36zm619.04 619.02l170.02 170.01 -14.22 18.64 -165.28 -165.29 9.48 -23.36z"/>
  <path class="fil0" d="M194.71 2344.85l28.08 28.08 -28.99 3.82 -12.35 -12.35 13.26 -19.55zm615.23 615.26l174.74 174.74 -14.17 18.58 -170.02 -170.01 9.45 -23.31z"/>
  <path class="fil0" d="M207.96 2325.33l43.78 43.78 -28.95 3.82 -28.08 -28.08 13.25 -19.52zm611.45 611.44l179.46 179.46 -14.19 18.62 -174.74 -174.74 9.47 -23.34z"/>
  <path class="fil0" d="M221.23 2305.79l59.5 59.5 -28.99 3.82 -43.78 -43.78 13.27 -19.54zm607.65 607.65l184.18 184.18 -14.19 18.61 -179.46 -179.46 9.47 -23.33z"/>
  <path class="fil0" d="M234.5 2286.25l75.21 75.21 -28.98 3.83 -59.5 -59.5 13.27 -19.54zm603.85 603.86l188.9 188.91 -14.19 18.6 -184.18 -184.18 9.47 -23.33z"/>
  <path class="fil0" d="M247.74 2266.73l90.92 90.91 -28.95 3.82 -75.21 -75.21 13.24 -19.52zm600.06 600.08l193.62 193.63 -14.17 18.58 -188.9 -188.91 9.45 -23.3z"/>
  <path class="fil0" d="M261 2247.2l106.62 106.62 -28.96 3.82 -90.92 -90.91 13.26 -19.53zm596.28 596.25l198.35 198.35 -14.21 18.64 -193.62 -193.63 9.48 -23.36z"/>
  <path class="fil0" d="M274.26 2227.66l122.34 122.34 -28.98 3.82 -106.62 -106.62 13.26 -19.54zm592.48 592.48l203.07 203.07 -14.18 18.59 -198.35 -198.35 9.46 -23.31z"/>
  <path class="fil0" d="M287.53 2208.12l138.05 138.05 -28.98 3.83 -122.34 -122.34 13.27 -19.54zm588.68 588.68l207.79 207.8 -14.19 18.61 -203.07 -203.07 9.47 -23.34z"/>
  <path class="fil0" d="M300.79 2188.58l153.77 153.77 -28.98 3.82 -138.05 -138.05 13.26 -19.54zm584.88 584.9l212.51 212.53 -14.18 18.59 -207.79 -207.8 9.46 -23.32z"/>
  <path class="fil0" d="M314.04 2169.05l169.48 169.48 -28.96 3.82 -153.77 -153.77 13.25 -19.53zm581.09 581.1l217.24 217.24 -14.19 18.62 -212.51 -212.53 9.46 -23.33z"/>
  <path class="fil0" d="M327.31 2149.51l185.18 185.2 -28.97 3.82 -169.48 -169.48 13.27 -19.54zm577.29 577.32l221.95 221.97 -14.18 18.59 -217.24 -217.24 9.47 -23.32z"/>
  <path class="fil0" d="M340.56 2129.99l200.91 200.9 -28.98 3.82 -185.18 -185.2 13.25 -19.52zm573.51 573.49l226.69 226.69 -14.21 18.63 -221.95 -221.97 9.47 -23.35z"/>
  <path class="fil0" d="M353.82 2110.45l216.62 216.61 -28.97 3.83 -200.91 -200.9 13.26 -19.54zm569.71 569.71l231.41 231.41 -14.18 18.6 -226.69 -226.69 9.46 -23.32z"/>
  <path class="fil0" d="M367.07 2090.92l232.32 232.32 -28.95 3.82 -216.62 -216.61 13.25 -19.53zm565.92 565.92l236.13 236.13 -14.18 18.6 -231.41 -231.41 9.46 -23.32z"/>
  <path class="fil0" d="M380.34 2071.38l248.03 248.04 -28.98 3.82 -232.32 -232.32 13.27 -19.54zm562.12 562.13l240.86 240.85 -14.2 18.61 -236.13 -236.13 9.47 -23.33z"/>
  <path class="fil0" d="M393.61 2051.83l263.76 263.76 -29 3.83 -248.03 -248.04 13.27 -19.55zm558.33 558.33l245.58 245.57 -14.2 18.63 -240.86 -240.85 9.48 -23.35z"/>
  <path class="fil0" d="M406.87 2032.3l279.46 279.47 -28.96 3.82 -263.76 -263.76 13.26 -19.53zm554.53 554.55l250.29 250.3 -14.17 18.58 -245.58 -245.57 9.46 -23.31z"/>
  <path class="fil0" d="M420.12 2012.77l295.18 295.18 -28.97 3.82 -279.46 -279.47 13.25 -19.53zm550.74 550.74l255.03 255.03 -14.2 18.61 -250.29 -250.3 9.46 -23.34z"/>
  <path class="fil0" d="M433.39 1993.23l310.89 310.9 -28.98 3.82 -295.18 -295.18 13.27 -19.54zm546.94 546.95l259.75 259.75 -14.19 18.61 -255.03 -255.03 9.47 -23.33z"/>
  <path class="fil0" d="M446.64 1973.7l326.61 326.6 -28.97 3.83 -310.89 -310.9 13.25 -19.53zm543.16 543.15l264.47 264.47 -14.19 18.61 -259.75 -259.75 9.47 -23.33z"/>
  <path class="fil0" d="M459.9 1954.17l342.3 342.31 -28.95 3.82 -326.61 -326.6 13.26 -19.53zm539.35 539.38l269.19 269.19 -14.17 18.58 -264.47 -264.47 9.45 -23.3z"/>
  <path class="fil0" d="M473.17 1934.63l358.02 358.03 -28.99 3.82 -342.3 -342.31 13.27 -19.54zm535.56 535.57l273.91 273.92 -14.2 18.62 -269.19 -269.19 9.48 -23.35z"/>
  <path class="fil0" d="M486.41 1915.12l373.73 373.72 -28.95 3.82 -358.02 -358.03 13.24 -19.51zm531.78 531.76l278.63 278.64 -14.18 18.6 -273.91 -273.92 9.46 -23.32z"/>
  <path class="fil0" d="M499.69 1895.55l389.46 389.46 -29.01 3.83 -373.73 -373.72 13.28 -19.57zm527.97 527.98l283.36 283.36 -14.2 18.63 -278.63 -278.64 9.47 -23.35z"/>
  <path class="fil0" d="M512.94 1876.04l405.15 405.15 -28.94 3.82 -389.46 -389.46 13.25 -19.51zm524.18 524.18l288.08 288.08 -14.18 18.59 -283.36 -283.36 9.46 -23.31z"/>
  <path class="fil0" d="M526.19 1856.51l420.88 420.86 -28.98 3.82 -405.15 -405.15 13.25 -19.53zm520.4 520.38l292.81 292.8 -14.2 18.61 -288.08 -288.08 9.47 -23.33z"/>
  <path class="fil0" d="M539.46 1836.96l436.58 436.59 -28.97 3.82 -420.88 -420.86 13.27 -19.55zm516.59 516.61l297.52 297.53 -14.17 18.59 -292.81 -292.8 9.46 -23.32z"/>
  <path class="fil0" d="M552.72 1817.42l452.31 452.3 -28.99 3.83 -436.58 -436.59 13.26 -19.54zm512.81 512.8l302.25 302.24 -14.21 18.64 -297.52 -297.53 9.48 -23.35z"/>
  <path class="fil0" d="M565.97 1797.9l468.02 468 -28.96 3.82 -452.31 -452.3 13.25 -19.52zm509.01 509l306.98 306.97 -14.18 18.59 -302.25 -302.24 9.45 -23.32z"/>
  <path class="fil0" d="M579.23 1778.37l483.7 483.72 -28.94 3.81 -468.02 -468 13.26 -19.53zm505.21 505.23l311.69 311.69 -14.17 18.58 -306.98 -306.97 9.46 -23.3z"/>
  <path class="fil0" d="M592.5 1758.82l499.44 499.44 -29.01 3.83 -483.7 -483.72 13.27 -19.55zm501.42 501.42l316.42 316.42 -14.21 18.63 -311.69 -311.69 9.48 -23.36z"/>
  <polygon class="fil0" points="605.76,1739.29 1424.54,2558.04 1410.34,2576.66 1093.92,2260.24 1094.88,2257.87 1091.94,2258.26 592.5,1758.82 "/>
  <polygon class="fil0" points="619.02,1719.74 1438.71,2539.45 1424.54,2558.04 605.76,1739.29 "/>
  <polygon class="fil0" points="632.27,1700.23 1452.89,2520.86 1438.71,2539.45 619.02,1719.74 "/>
  <polygon class="fil0" points="645.54,1680.68 1467.1,2502.23 1452.89,2520.86 632.27,1700.23 "/>
  <polygon class="fil0" points="658.8,1661.15 1481.28,2483.63 1467.1,2502.23 645.54,1680.68 "/>
  <polygon class="fil0" points="672.06,1641.61 1495.46,2465.03 1481.28,2483.63 658.8,1661.15 "/>
  <polygon class="fil0" points="685.31,1622.09 1509.65,2446.42 1495.46,2465.03 672.06,1641.61 "/>
  <polygon class="fil0" points="698.57,1602.55 1523.84,2427.81 1509.65,2446.42 685.31,1622.09 "/>
  <polygon class="fil0" points="711.83,1583.01 1538.03,2409.21 1523.84,2427.81 698.57,1602.55 "/>
  <polygon class="fil0" points="725.1,1563.48 1552.22,2390.6 1538.03,2409.21 711.83,1583.01 "/>
  <polygon class="fil0" points="745.18,1533.89 1573.71,2362.42 1552.22,2390.6 725.1,1563.48 "/>
  <polygon class="fil0" points="765.29,1504.26 1595.23,2334.2 1573.71,2362.42 745.18,1533.89 "/>
  <polygon class="fil0" points="785.39,1474.66 1616.73,2306 1595.23,2334.2 765.29,1504.26 "/>
  <polygon class="fil0" points="805.48,1445.05 1638.24,2277.8 1616.73,2306 785.39,1474.66 "/>
  <polygon class="fil0" points="825.58,1415.44 1659.75,2249.6 1638.24,2277.8 805.48,1445.05 "/>
  <polygon class="fil0" points="845.68,1385.83 1135.81,1675.97 1126.96,1699.71 1155.06,1695.22 1681.24,2221.41 1659.75,2249.6 825.58,1415.44 "/>
  <path class="fil0" d="M865.79 1356.2l283.54 283.54 -13.52 36.23 -290.13 -290.14 20.11 -29.63zm332.16 332.17l504.81 504.82 -21.52 28.22 -526.18 -526.19 42.89 -6.85z"/>
  <path class="fil0" d="M885.88 1326.6l276.95 276.95 -13.5 36.19 -283.54 -283.54 20.09 -29.6zm354.93 354.92l483.47 483.45 -21.52 28.22 -504.81 -504.82 42.86 -6.85z"/>
  <path class="fil0" d="M905.98 1296.98l270.36 270.35 -13.51 36.22 -276.95 -276.95 20.1 -29.62zm377.71 377.69l462.11 462.09 -21.52 28.21 -483.47 -483.45 42.88 -6.85z"/>
  <path class="fil0" d="M926.08 1267.38l263.76 263.76 -13.5 36.19 -270.36 -270.35 20.1 -29.6zm400.45 400.45l440.75 440.75 -21.48 28.18 -462.11 -462.09 42.84 -6.84z"/>
  <path class="fil0" d="M946.17 1237.79l257.17 257.16 -13.5 36.19 -263.76 -263.76 20.09 -29.59zm423.2 423.19l419.41 419.41 -21.5 28.19 -440.75 -440.75 42.84 -6.85z"/>
  <path class="fil0" d="M966.29 1208.14l250.56 250.58 -13.51 36.23 -257.17 -257.16 20.12 -29.65zm445.97 445.99l398.03 398.05 -21.51 28.21 -419.41 -419.41 42.89 -6.85z"/>
  <path class="fil0" d="M986.38 1178.55l243.97 243.98 -13.5 36.19 -250.56 -250.58 20.09 -29.59zm468.72 468.74l376.69 376.7 -21.5 28.19 -398.03 -398.05 42.84 -6.84z"/>
  <path class="fil0" d="M1006.49 1148.92l237.37 237.38 -13.51 36.23 -243.97 -243.98 20.11 -29.63zm491.5 491.52l355.32 355.33 -21.52 28.22 -376.69 -376.7 42.89 -6.85z"/>
  <path class="fil0" d="M1026.57 1119.33l230.79 230.79 -13.5 36.18 -237.37 -237.38 20.08 -29.59zm514.27 514.26l333.97 333.98 -21.5 28.2 -355.32 -355.33 42.85 -6.85z"/>
  <path class="fil0" d="M1046.66 1089.74l224.2 224.2 -13.5 36.18 -230.79 -230.79 20.09 -29.59zm537.01 537.01l312.63 312.63 -21.49 28.19 -333.97 -333.98 42.83 -6.84z"/>
  <path class="fil0" d="M1066.77 1060.11l217.6 217.6 -13.51 36.23 -224.2 -224.2 20.11 -29.63zm559.79 559.79l291.26 291.26 -21.52 28.22 -312.63 -312.63 42.89 -6.85z"/>
  <path class="fil0" d="M1086.85 1030.52l211.01 211.01 -13.49 36.18 -217.6 -217.6 20.08 -29.59zm582.53 582.53l269.93 269.93 -21.49 28.18 -291.26 -291.26 42.82 -6.85z"/>
  <path class="fil0" d="M1106.97 1000.89l204.41 204.4 -13.52 36.24 -211.01 -211.01 20.12 -29.63zm605.33 605.31l248.55 248.54 -21.54 28.24 -269.93 -269.93 42.92 -6.85z"/>
  <path class="fil0" d="M1127.05 971.3l197.83 197.82 -13.5 36.17 -204.41 -204.4 20.08 -29.59zm628.07 628.06l227.22 227.2 -21.49 28.18 -248.55 -248.54 42.82 -6.84z"/>
  <path class="fil0" d="M1147.16 941.68l191.22 191.23 -13.5 36.21 -197.83 -197.82 20.11 -29.62zm650.81 650.83l205.86 205.87 -21.49 28.18 -227.22 -227.2 42.85 -6.85z"/>
  <path class="fil0" d="M1167.28 912.04l184.62 184.63 -13.52 36.24 -191.22 -191.23 20.12 -29.64zm673.58 673.62l184.49 184.5 -21.52 28.22 -205.86 -205.87 42.89 -6.85z"/>
  <path class="fil0" d="M1187.35 882.46l178.04 178.04 -13.49 36.17 -184.62 -184.63 20.07 -29.58zm696.34 696.36l163.15 163.16 -21.49 28.18 -184.49 -184.5 42.83 -6.84z"/>
  <path class="fil0" d="M1207.46 852.83l171.44 171.45 -13.51 36.22 -178.04 -178.04 20.11 -29.63zm719.1 719.14l141.79 141.8 -21.51 28.21 -163.15 -163.16 42.87 -6.85z"/>
  <path class="fil0" d="M1227.56 823.23l164.85 164.85 -13.51 36.2 -171.44 -171.45 20.1 -29.6zm741.87 741.89l120.44 120.44 -21.52 28.21 -141.79 -141.8 42.87 -6.85z"/>
  <path class="fil0" d="M1247.65 793.62l158.26 158.26 -13.5 36.2 -164.85 -164.85 20.09 -29.61zm764.64 764.65l99.08 99.08 -21.5 28.21 -120.44 -120.44 42.86 -6.85z"/>
  <path class="fil0" d="M1267.75 764.02l151.66 151.66 -13.5 36.2 -158.26 -158.26 20.1 -29.6zm787.4 787.4l77.73 77.73 -21.51 28.2 -99.08 -99.08 42.86 -6.85z"/>
  <path class="fil0" d="M1287.86 734.4l145.06 145.07 -13.51 36.21 -151.66 -151.66 20.11 -29.62zm810.15 810.18l56.37 56.37 -21.5 28.2 -77.73 -77.73 42.86 -6.84z"/>
  <path class="fil0" d="M1307.97 704.77l138.46 138.47 -13.51 36.23 -145.06 -145.07 20.11 -29.63zm832.9 832.96l35.02 35.02 -21.51 28.2 -56.37 -56.37 42.86 -6.85z"/>
  <path class="fil0" d="M1328.05 675.18l131.88 131.88 -13.5 36.18 -138.46 -138.47 20.08 -29.59zm855.67 855.7l13.67 13.67 -21.5 28.2 -35.02 -35.02 42.85 -6.85z"/>
  <path class="fil0" d="M1348.15 645.57l125.28 125.29 -13.5 36.2 -131.88 -131.88 20.1 -29.61zm849.24 898.98l-13.67 -13.67 27.44 -4.38 -13.77 18.05z"/>
  <polygon class="fil0" points="1368.25,615.96 1486.94,734.65 1473.43,770.86 1348.15,645.57 "/>
  <polygon class="fil0" points="1388.33,586.37 1500.43,698.47 1486.94,734.65 1368.25,615.96 "/>
  <polygon class="fil0" points="1408.44,556.75 1513.94,662.25 1500.43,698.47 1388.33,586.37 "/>
  <polygon class="fil0" points="1428.53,527.15 1527.44,626.06 1513.94,662.25 1408.44,556.75 "/>
  <polygon class="fil0" points="1448.64,497.52 1540.96,589.84 1527.44,626.06 1428.53,527.15 "/>
  <polygon class="fil0" points="1468.73,467.93 1554.45,553.65 1540.96,589.84 1448.64,497.52 "/>
  <polygon class="fil0" points="1488.84,438.31 1567.96,517.44 1554.45,553.65 1468.73,467.93 "/>
  <polygon class="fil0" points="1508.95,408.68 1581.47,481.21 1567.96,517.44 1488.84,438.31 "/>
  <polygon class="fil0" points="1529.02,379.11 1594.96,445.05 1581.47,481.21 1508.95,408.68 "/>
  <polygon class="fil0" points="1549.13,349.49 1608.47,408.83 1594.96,445.05 1529.02,379.11 "/>
  <polygon class="fil0" points="1569.23,319.87 1621.98,372.62 1608.47,408.83 1549.13,349.49 "/>
  <polygon class="fil0" points="1589.34,290.24 1635.49,336.4 1621.98,372.62 1569.23,319.87 "/>
  <polygon class="fil0" points="1609.45,260.61 1649,300.17 1635.49,336.4 1589.34,290.24 "/>
  <polygon class="fil0" points="1629.53,231.03 1662.5,263.99 1649,300.17 1609.45,260.61 "/>
  <polygon class="fil0" points="1649.63,201.41 1676,227.79 1662.5,263.99 1629.53,231.03 "/>
  <polygon class="fil0" points="1669.73,171.81 1689.51,191.59 1676,227.79 1649.63,201.41 "/>
  <polygon class="fil0" points="1689.82,142.2 1703.01,155.39 1689.51,191.59 1669.73,171.81 "/>
  <polygon class="fil0" points="1709.93,112.59 1716.52,119.18 1703.01,155.39 1689.82,142.2 "/>
  <polygon class="fil0" points="1716.52,119.18 1709.93,112.59 1730.01,83 "/>
  <path class="fil1" d="M524.92 2083.18c19.76,-29.14 39.26,-58.46 58.62,-87.88l57.31 -88.76 113.35 -178.33 113.82 -178.04 113.91 -177.94 113.68 -178.12 226.27 -356.94 -3.53 -2.33 -238.3 349.04 -118.64 174.83 -118.37 175.05 -118.5 174.94 -118.94 174.67 -58.84 87.73c-19.36,29.42 -38.57,58.91 -57.53,88.58 -19.09,29.6 -37.66,59.55 -56.53,89.29 -18.92,29.71 -37.23,59.8 -55.82,89.71l-18.95 30.48 34.89 -4.51c39.88,-5.15 79.66,-10.76 119.49,-16.2 39.82,-5.39 79.62,-11.07 119.44,-16.79 39.78,-5.61 79.55,-11.6 119.33,-17.5l59.62 -9.1 59.6 -9.49 -0.49 -4.16 -60.2 4.13 -60.15 4.48c-40.08,3.21 -80.18,6.28 -120.22,9.74 -40.05,3.35 -80.11,6.77 -120.13,10.44 -27.87,2.54 -55.74,5.04 -83.57,7.58 13.35,-19.05 26.69,-38.13 39.76,-57.36 19.86,-29.1 40.01,-58 59.62,-87.24z"/>
  <path class="fil1" d="M1971.06 1632.86l-119.56 15.48 -119.55 15.7c-39.83,5.08 -79.63,10.73 -119.45,16.2l-59.73 8.25 -59.69 8.57 0.28 2.79 60.12 -5.04 60.07 -5.37c40.01,-3.6 80.08,-7.02 120.05,-10.97l120.02 -11.57 94.61 -9.24 -47.87 64.38c-20.78,28.33 -41.8,56.44 -62.37,84.91l-61.77 85.38 -60.93 85.93 -242.28 344.84 -242.57 344.67 -241.76 345.22 2.29 1.63 249.49 -339.66 248.74 -340.25 248.96 -340.04 61.87 -85.27 61.03 -85.9c20.39,-28.61 40.29,-57.54 60.47,-86.29l59.94 -86.64 14.46 -20.92 -24.87 3.21z"/>
  <path class="fil3" d="M682.89 4267.03c0,-12.98 6.21,-19.47 18.63,-19.47l223.52 0 0 -19.47c0,-71.69 -14.39,-124.32 -43.18,-157.91 -28.79,-33.58 -69.14,-50.38 -121.07,-50.38 -23.14,0 -43.61,2.4 -61.39,7.2 -17.78,4.8 -33.02,11.43 -45.72,19.9 -12.7,8.46 -22.86,18.34 -30.48,29.63 -7.62,11.29 -13.12,23.14 -16.51,35.56 -1.69,6.77 -3.81,11.43 -6.35,13.97 -2.54,2.54 -6.63,3.81 -12.27,3.81l-16.94 0c-5.08,0 -9.45,-1.55 -13.12,-4.66 -3.67,-3.1 -5.22,-7.19 -4.66,-12.27 2.26,-20.89 8.89,-40.22 19.9,-58 11.01,-17.78 25.4,-33.02 43.18,-45.72 17.78,-12.7 38.81,-22.58 63.08,-29.63 24.27,-7.06 51.36,-10.59 81.28,-10.59 30.48,0 58.7,4.66 84.66,13.97 25.97,9.32 48.55,24.13 67.74,44.45 19.19,20.32 34.57,46.99 46.14,80.01 11.57,33.02 17.92,73.24 19.05,120.66 0.57,16.93 0.85,32.31 0.85,46.14 0,13.83 -0.28,28.93 -0.85,45.3 -1.13,47.41 -7.48,87.63 -19.05,120.65 -11.57,33.02 -26.95,59.69 -46.14,80.01 -19.19,20.32 -41.77,35.13 -67.74,44.45 -25.96,9.31 -54.18,13.97 -84.66,13.97 -29.92,0 -57.01,-3.53 -81.28,-10.59 -24.27,-7.05 -45.3,-16.93 -63.08,-29.63 -17.78,-12.7 -32.17,-27.94 -43.18,-45.72 -11.01,-17.78 -17.64,-37.11 -19.9,-58 -0.56,-5.08 0.99,-9.17 4.66,-12.27 3.67,-3.11 8.04,-4.66 13.12,-4.66l16.94 0c5.64,0 9.73,1.27 12.27,3.81 2.54,2.54 4.66,7.2 6.35,13.97 3.39,12.98 8.89,24.98 16.51,35.98 7.62,11.01 17.78,20.75 30.48,29.21 12.7,8.47 27.94,15.1 45.72,19.9 17.78,4.8 38.25,7.2 61.39,7.2 52.49,0 92.99,-18.49 121.49,-55.46 28.51,-36.97 42.76,-87.91 42.76,-152.82l0 -21.17 -223.52 0c-12.42,0 -18.63,-6.49 -18.63,-19.47l0 -11.86z"/>
  <path id="1" class="fil3" d="M1366.16 4148.5c0,-12.42 6.21,-18.63 18.63,-18.63l283.63 0c12.42,0 18.63,6.21 18.63,18.63l0 403.01c0,12.42 -6.21,18.63 -18.63,18.63l-14.39 0c-12.42,0 -18.63,-6.21 -18.63,-18.63l0 -372.53 -217.59 0 0 256.54c0,19.76 -1.41,38.38 -4.24,55.88 -2.82,17.5 -8.46,32.74 -16.93,45.72 -8.47,12.98 -20.18,23.14 -35.14,30.48 -14.95,7.34 -34.57,11.01 -58.84,11.01l-16.93 0c-12.42,0 -18.63,-6.21 -18.63,-18.63l0 -11.85c0,-12.42 6.21,-18.63 18.63,-18.63l12.7 0c14.67,0 26.53,-2.4 35.56,-7.2 9.03,-4.79 15.94,-11.43 20.74,-19.89 4.8,-8.47 7.9,-18.35 9.31,-29.64 1.41,-11.29 2.12,-23.42 2.12,-36.4l0 -287.87z"/>
  <path id="2" class="fil3" d="M2020.64 4316.14c2.25,-28.79 8.04,-55.18 17.35,-79.16 9.32,-23.99 21.73,-44.45 37.26,-61.39 15.52,-16.93 34.29,-30.2 56.3,-39.79 22.01,-9.6 46.85,-14.4 74.51,-14.4 59.26,0 105.27,19.34 138,58 32.74,38.67 49.11,92.15 49.11,160.45l0 12.7c0,5.64 -1.83,10.16 -5.5,13.54 -3.67,3.39 -8.33,5.08 -13.97,5.08l-301.42 0 0 8.47c0.57,19.19 4.1,37.82 10.59,55.88 6.49,18.06 15.38,34.01 26.67,47.84 11.29,13.83 25.12,24.97 41.48,33.44 16.37,8.47 34.72,12.7 55.04,12.7 18.06,0 33.86,-2.26 47.41,-6.77 13.55,-4.52 25.12,-9.74 34.71,-15.67 9.6,-5.92 17.36,-11.99 23.29,-18.2 5.92,-6.21 10.02,-11.01 12.27,-14.39 5.08,-7.34 9.04,-11.72 11.86,-13.13 2.82,-1.41 7.34,-2.11 13.54,-2.11l13.55 0c5.08,0 9.46,1.55 13.12,4.65 3.67,3.11 5.23,7.2 4.66,12.28 -0.56,7.9 -4.94,17.78 -13.12,29.63 -8.19,11.86 -19.76,23.15 -34.72,33.87 -14.95,10.72 -33.16,19.9 -54.61,27.52 -21.44,7.62 -45.43,11.43 -71.96,11.43 -27.1,0 -51.65,-4.66 -73.66,-13.97 -22.02,-9.32 -40.93,-22.58 -56.73,-39.8 -15.8,-17.21 -28.36,-37.81 -37.68,-61.8 -9.31,-23.99 -15.1,-50.38 -17.35,-79.17 -0.57,-8.46 -0.85,-19.75 -0.85,-33.86 0,-14.12 0.28,-25.4 0.85,-33.87zm51.64 7.62l269.24 0 0 -3.39c0,-20.88 -3.1,-40.5 -9.31,-58.84 -6.21,-18.35 -15.1,-34.29 -26.67,-47.84 -11.57,-13.54 -25.82,-24.13 -42.76,-31.75 -16.93,-7.62 -35.84,-11.43 -56.72,-11.43 -21.45,0 -40.36,3.81 -56.73,11.43 -16.37,7.62 -30.34,18.21 -41.91,31.75 -11.57,13.55 -20.32,29.49 -26.25,47.84 -5.92,18.34 -8.89,37.96 -8.89,58.84l0 3.39z"/>
  <path id="3" class="fil3" d="M2805.5 4350.01l237.06 186.26c7.34,5.65 11.01,11.29 11.01,16.94 0,11.29 -5.64,16.93 -16.93,16.93l-15.24 0c-8.47,0 -14.68,-0.99 -18.63,-2.96 -3.95,-1.98 -9.59,-5.79 -16.93,-11.43l-210.82 -165.1 0 160.86c0,12.42 -6.21,18.63 -18.63,18.63l-14.39 0c-12.42,0 -18.63,-6.21 -18.63,-18.63l0 -403.01c0,-12.42 6.21,-18.63 18.63,-18.63l14.39 0c12.42,0 18.63,6.21 18.63,18.63l0 160.87 195.58 -165.11c7.9,-6.2 13.69,-10.16 17.35,-11.85 3.67,-1.69 9.74,-2.54 18.21,-2.54l13.54 0c11.29,0 16.94,5.65 16.94,16.93 0,2.26 -0.71,4.94 -2.12,8.05 -1.41,3.1 -4.37,6.07 -8.89,8.89l-220.13 186.27z"/>
  <path id="4" class="fil3" d="M3489.6 4570.14c-12.42,0 -18.63,-6.21 -18.63,-18.63l0 -372.53 -154.94 0c-12.41,0 -18.62,-6.21 -18.62,-18.63l0 -11.85c0,-12.42 6.21,-18.63 18.62,-18.63l361.53 0c12.42,0 18.63,6.21 18.63,18.63l0 11.85c0,12.42 -6.21,18.63 -18.63,18.63l-154.94 0 0 372.53c0,12.42 -6.21,18.63 -18.63,18.63l-14.39 0z"/>
  <path id="5" class="fil3" d="M4188.94 4578.61c-35.56,0 -64.62,-6.49 -87.2,-19.48 -22.58,-12.98 -40.93,-28.78 -55.04,-47.41l0 200.66c0,12.42 -6.21,18.63 -18.62,18.63l-14.4 0c-12.41,0 -18.62,-6.21 -18.62,-18.63l0 -563.88c0,-12.42 6.21,-18.63 18.62,-18.63l14.4 0c12.41,0 18.62,6.21 18.62,18.63l0 39.79c14.11,-19.19 32.46,-35.13 55.04,-47.84 22.58,-12.7 51.64,-19.05 87.2,-19.05 32.74,0 60.54,5.79 83.4,17.36 22.86,11.57 41.35,26.81 55.46,45.72 14.11,18.91 24.41,40.36 30.9,64.35 6.49,23.99 10.3,48.4 11.43,73.24 0.57,8.46 0.85,17.78 0.85,27.94 0,10.16 -0.28,19.47 -0.85,27.94 -1.13,24.83 -4.94,49.24 -11.43,73.23 -6.49,23.99 -16.79,45.44 -30.9,64.35 -14.11,18.91 -32.6,34.15 -55.46,45.72 -22.86,11.57 -50.66,17.36 -83.4,17.36zm-142.24 -259.08c-0.56,8.46 -0.84,19.47 -0.84,33.02 0,13.54 0.28,24.55 0.84,33.02 0.57,16.93 3.53,34 8.89,51.22 5.37,17.22 13.69,32.6 24.98,46.14 11.29,13.55 25.4,24.7 42.33,33.45 16.94,8.75 37.26,13.12 60.96,13.12 24.84,0 45.58,-4.23 62.23,-12.7 16.66,-8.47 30.2,-19.9 40.64,-34.29 10.45,-14.39 18.07,-31.04 22.86,-49.95 4.8,-18.91 7.77,-38.53 8.89,-58.85 0.57,-15.8 0.57,-31.61 0,-47.41 -1.12,-20.32 -4.09,-39.79 -8.89,-58.42 -4.79,-18.63 -12.41,-35.14 -22.86,-49.53 -10.44,-14.39 -23.98,-25.97 -40.64,-34.71 -16.65,-8.75 -37.39,-13.13 -62.23,-13.13 -24.27,0 -44.87,4.52 -61.8,13.55 -16.94,9.03 -30.91,20.74 -41.91,35.14 -11.01,14.39 -19.19,30.33 -24.56,47.83 -5.36,17.5 -8.32,35 -8.89,52.5z"/>
  <path id="6" class="fil3" d="M5072.03 4551.51c0,12.42 -6.21,18.63 -18.63,18.63l-14.4 0c-12.41,0 -18.62,-6.21 -18.62,-18.63l0 -331.89 -260.78 337.82c-2.25,2.82 -5.08,5.64 -8.46,8.47 -3.39,2.82 -7.91,4.23 -13.55,4.23l-16.09 0c-4.51,0 -8.46,-1.69 -11.85,-5.08 -3.39,-3.39 -5.08,-7.34 -5.08,-11.85l0 -404.71c0,-12.42 6.21,-18.63 18.63,-18.63l14.39 0c12.42,0 18.63,6.21 18.63,18.63l0 331.89 260.77 -337.82c2.82,-3.39 5.79,-6.35 8.89,-8.89 3.11,-2.54 7.48,-3.81 13.12,-3.81l16.09 0c4.52,0 8.47,1.55 11.86,4.66 3.38,3.1 5.08,6.91 5.08,11.43l0 405.55z"/>
  <path id="7" class="fil3" d="M5509.76 4350.01l237.06 186.26c7.34,5.65 11.01,11.29 11.01,16.94 0,11.29 -5.64,16.93 -16.93,16.93l-15.24 0c-8.47,0 -14.68,-0.99 -18.63,-2.96 -3.95,-1.98 -9.59,-5.79 -16.93,-11.43l-210.82 -165.1 0 160.86c0,12.42 -6.21,18.63 -18.63,18.63l-14.39 0c-12.42,0 -18.63,-6.21 -18.63,-18.63l0 -403.01c0,-12.42 6.21,-18.63 18.63,-18.63l14.39 0c12.42,0 18.63,6.21 18.63,18.63l0 160.87 195.58 -165.11c7.9,-6.2 13.69,-10.16 17.35,-11.85 3.67,-1.69 9.74,-2.54 18.21,-2.54l13.54 0c11.29,0 16.94,5.65 16.94,16.93 0,2.26 -0.71,4.94 -2.12,8.05 -1.41,3.1 -4.37,6.07 -8.89,8.89l-220.13 186.27z"/>
  <path id="8" class="fil3" d="M6346.26 4570.14c-12.42,0 -18.63,-6.21 -18.63,-18.63l0 -39.79c-5.08,7.9 -11.71,15.8 -19.89,23.71 -8.19,7.9 -18.21,14.95 -30.06,21.16 -11.85,6.21 -25.96,11.43 -42.33,15.67 -16.37,4.23 -35.56,6.35 -57.58,6.35 -20.32,0 -39.65,-3.25 -57.99,-9.74 -18.35,-6.49 -34.43,-15.38 -48.26,-26.67 -13.83,-11.29 -24.84,-24.55 -33.02,-39.79 -8.19,-15.24 -12.28,-31.89 -12.28,-49.96 0,-19.19 4.09,-36.4 12.28,-51.64 8.18,-15.24 19.61,-28.65 34.29,-40.22 14.67,-11.57 32.31,-21.17 52.91,-28.79 20.61,-7.62 43.33,-13.12 68.16,-16.51l133.77 -18.62 0 -29.64c0,-30.48 -9.17,-54.18 -27.51,-71.12 -18.35,-16.93 -47.56,-25.4 -87.63,-25.4 -31.61,0 -56.02,6.07 -73.24,18.21 -17.22,12.13 -28.08,25.25 -32.6,39.37 -2.25,6.77 -4.94,11.43 -8.04,13.97 -3.1,2.54 -7.2,3.81 -12.28,3.81l-11.85 0c-5.08,0 -9.45,-1.84 -13.12,-5.51 -3.67,-3.67 -5.51,-8.04 -5.51,-13.12 0,-7.9 2.83,-17.78 8.47,-29.63 5.64,-11.86 14.82,-23.43 27.52,-34.72 12.7,-11.29 28.92,-21.02 48.68,-29.21 19.76,-8.18 43.75,-12.28 71.97,-12.28 33.3,0 60.82,4.52 82.55,13.55 21.73,9.03 38.8,20.75 51.22,35.14 12.42,14.39 21.03,30.34 25.82,47.84 4.8,17.49 7.2,34.71 7.2,51.64l0 281.94c0,12.42 -6.21,18.63 -18.63,18.63l-14.39 0zm-160.02 -40.64c19.19,0 37.4,-3.25 54.61,-9.74 17.22,-6.49 32.32,-16.22 45.3,-29.21 12.98,-12.98 23.14,-29.35 30.48,-49.1 7.34,-19.76 11,-42.9 11,-69.43l0 -28.79 -109.22 15.24c-93.69,12.98 -140.54,42.9 -140.54,89.75 0,14.11 3.24,26.25 9.73,36.41 6.49,10.16 14.82,18.62 24.98,25.4 10.16,6.77 21.73,11.71 34.71,14.81 12.99,3.11 25.97,4.66 38.95,4.66z"/>
 </g>
</svg>
