<?xml version="1.0" encoding="UTF-8"?>
<!DOCTYPE svg PUBLIC "-//W3C//DTD SVG 1.1//EN" "http://www.w3.org/Graphics/SVG/1.1/DTD/svg11.dtd">
<!-- Creator: CorelDRAW 2020 (64-Bit) -->
<svg xmlns="http://www.w3.org/2000/svg" xml:space="preserve" width="79.375mm" height="39.6874mm" version="1.1" style="shape-rendering:geometricPrecision; text-rendering:geometricPrecision; image-rendering:optimizeQuality; fill-rule:evenodd; clip-rule:evenodd"
viewBox="0 0 7937.5 3968.74"
 xmlns:xlink="http://www.w3.org/1999/xlink"
 xmlns:xodm="http://www.corel.com/coreldraw/odm/2003">
 <defs>
  <style type="text/css">
   <![CDATA[
    .fil0 {fill:#EE8A3D;fill-rule:nonzero}
    .fil1 {fill:#696668;fill-rule:nonzero}
    .fil2 {fill:#4F86C5;fill-rule:nonzero}
   ]]>
  </style>
 </defs>
 <g id="Слой_x0020_1">
  <metadata id="CorelCorpID_0Corel-Layer"/>
  <path class="fil0" d="M3118.97 1387.51l422.38 402.56c4.95,4.96 8.25,9.29 9.9,13.01 1.66,3.72 2.48,6.81 2.48,9.29 0,7.43 -2.68,13.83 -8.05,19.2 -5.37,5.37 -11.77,8.05 -19.2,8.05l-76.8 0c-11.56,0 -21.05,-2.27 -28.48,-6.81 -7.44,-4.54 -12.8,-8.47 -16.11,-11.77l-350.53 -334.44 0 319.58c0,9.08 -3.31,16.92 -9.91,23.53 -6.61,6.61 -14.45,9.91 -23.54,9.91l-50.78 0c-9.09,0 -16.93,-3.3 -23.54,-9.91 -6.6,-6.61 -9.91,-14.45 -9.91,-23.53l0 -800.17c0,-9.08 3.31,-16.93 9.91,-23.54 6.61,-6.6 14.45,-9.9 23.54,-9.9l50.78 0c9.09,0 16.93,3.3 23.54,9.9 6.6,6.61 9.91,14.46 9.91,23.54l0 288.6 330.72 -303.47c3.3,-3.3 8.67,-7.22 16.1,-11.76 7.43,-4.54 16.93,-6.81 28.49,-6.81l71.84 0c7.43,0 13.83,2.68 19.2,8.05 5.36,5.36 8.05,11.76 8.05,19.2 0,2.47 -0.83,5.57 -2.48,9.29 -1.65,3.71 -4.95,8.05 -9.91,13l-397.6 365.4z"/>
  <path id="1" class="fil0" d="M3611.95 1677.36c0,-33.03 6.6,-61.94 19.82,-86.71 13.21,-24.77 31.38,-45.83 54.5,-63.17 23.12,-17.34 50.16,-31.38 81.13,-42.11 30.97,-10.74 63.79,-19 98.47,-24.78l174.65 -28.49 0 -16.1c0,-42.11 -13.83,-73.7 -41.49,-94.76 -27.67,-21.05 -62.14,-31.58 -103.43,-31.58 -36.33,0 -63.79,6.61 -82.37,19.82 -18.58,13.21 -34.48,28.9 -47.69,47.07 -4.95,6.6 -10.32,11.14 -16.1,13.62 -5.78,2.48 -13.63,3.72 -23.54,3.72l-37.16 0c-9.08,0 -17.13,-3.31 -24.15,-9.91 -7.02,-6.61 -10.11,-14.45 -9.29,-23.54 1.65,-18.16 8.88,-36.74 21.68,-55.74 12.8,-18.99 30.14,-35.92 52.02,-50.78 21.88,-14.86 47.07,-27.04 75.56,-36.54 28.49,-9.5 58.83,-14.24 91.04,-14.24 37.16,0 71.63,5.36 103.43,16.1 31.79,10.73 59.04,26.42 81.75,47.07 22.71,20.64 40.46,46.24 53.26,76.79 12.8,30.56 19.2,65.65 19.2,105.29l0 377.79c0,9.08 -3.3,16.92 -9.91,23.53 -6.61,6.61 -14.45,9.91 -23.53,9.91l-45.83 0c-9.09,0 -16.93,-3.3 -23.54,-9.91 -6.61,-6.61 -9.91,-14.45 -9.91,-23.53l0 -50.79c-7.43,15.69 -18.99,29.52 -34.68,41.5 -15.69,11.97 -33.65,22.09 -53.88,30.34 -20.23,8.26 -41.29,14.45 -63.17,18.58 -21.89,4.13 -42.32,6.2 -61.32,6.2 -32.2,0 -61.72,-4.55 -88.56,-13.63 -26.84,-9.08 -49.55,-21.26 -68.13,-36.54 -18.58,-15.28 -33.03,-33.65 -43.35,-55.12 -10.32,-21.47 -15.48,-44.59 -15.48,-69.36zm227.91 68.12c29.73,0 56.98,-4.54 81.75,-13.62 24.77,-9.09 46.04,-21.68 63.79,-37.78 17.76,-16.1 31.38,-35.3 40.88,-57.6 9.49,-22.29 14.24,-47.07 14.24,-74.32l0 -30.96 -146.16 23.53c-52.02,8.26 -93.31,21.47 -123.86,39.64 -30.56,18.16 -45.83,41.7 -45.83,70.6 0,9.08 2.06,18.17 6.19,27.25 4.13,9.08 10.73,17.75 19.82,26.01 9.08,8.26 20.85,14.87 35.3,19.82 14.45,4.96 32.41,7.43 53.88,7.43z"/>
  <path id="2" class="fil0" d="M4718.06 968.85c0,28.9 -6.4,55.33 -19.2,79.27 -12.8,23.95 -28.9,47.28 -48.31,69.99 -19.4,22.7 -40.87,45.83 -64.41,69.36 -23.53,23.54 -46.45,49.34 -68.74,77.42 20.64,-4.96 43.35,-7.44 68.12,-7.44 41.29,0 79.28,6.61 113.96,19.82 34.68,13.22 64.62,32.62 89.8,58.22 25.19,25.6 44.8,56.77 58.84,93.52 14.04,36.74 21.06,78.65 21.06,125.72 0,43.77 -7.02,84.02 -21.06,120.77 -14.04,36.75 -33.65,68.12 -58.84,94.14 -25.18,26.01 -55.12,46.24 -89.8,60.69 -34.68,14.45 -72.67,21.68 -113.96,21.68 -41.28,0 -79.27,-7.23 -113.95,-21.68 -34.68,-14.45 -64.62,-34.68 -89.8,-60.69 -25.19,-26.02 -44.8,-57.39 -58.84,-94.14 -14.04,-36.75 -21.06,-77 -21.06,-120.77 0,-63.58 7.44,-119.12 22.3,-166.6 14.86,-47.48 33.65,-88.97 56.36,-124.48 22.71,-35.51 47.07,-66.48 73.08,-92.9 26.01,-26.43 50.37,-50.79 73.08,-73.08 22.71,-22.3 41.49,-43.56 56.36,-63.79 14.86,-20.23 22.29,-41.91 22.29,-65.03 0,-9.08 3.31,-16.93 9.91,-23.54 6.61,-6.6 14.45,-9.9 23.54,-9.9l45.83 0c9.08,0 16.92,3.3 23.53,9.9 6.61,6.61 9.91,14.46 9.91,23.54zm-132.54 395.13c-57.8,0 -100.74,17.55 -128.81,52.64 -28.08,35.1 -42.12,81.13 -42.12,138.11 0,56.98 14.04,103.01 42.12,138.11 28.07,35.1 71.01,52.64 128.81,52.64 57.81,0 100.75,-17.54 128.82,-52.64 28.08,-35.1 42.12,-81.13 42.12,-138.11 0,-56.98 -14.04,-103.01 -42.12,-138.11 -28.07,-35.09 -71.01,-52.64 -128.82,-52.64z"/>
  <path id="3" class="fil0" d="M4990.56 1455.64c3.3,-37.99 12.39,-73.49 27.25,-106.53 14.87,-33.03 34.27,-61.93 58.22,-86.7 23.95,-24.77 52.64,-44.18 86.08,-58.22 33.45,-14.04 70.81,-21.05 112.1,-21.05 44.59,0 84.44,7.22 119.53,21.67 35.1,14.45 65.03,35.3 89.8,62.55 24.78,27.25 43.77,60.28 56.98,99.1 13.21,38.81 19.82,82.16 19.82,130.05l0 33.45c0,9.08 -3.3,16.93 -9.91,23.53 -6.61,6.61 -14.45,9.91 -23.53,9.91l-426.1 0 0 7.43c1.65,56.16 18.79,99.3 51.4,129.44 32.62,30.14 73.29,45.21 122.01,45.21 45.42,0 79.48,-6.4 102.19,-19.2 22.71,-12.8 41.08,-27.04 55.12,-42.73 6.61,-6.61 12.39,-11.15 17.34,-13.63 4.96,-2.47 12.39,-3.71 22.3,-3.71l37.16 0c9.08,0 17.34,3.3 24.77,9.91 7.43,6.6 10.32,14.45 8.67,23.53 -2.48,14.87 -9.5,31.18 -21.06,48.93 -11.56,17.75 -28.28,34.27 -50.16,49.55 -21.88,15.27 -49.14,28.07 -81.75,38.39 -32.62,10.33 -70.81,15.49 -114.58,15.49 -41.29,0 -78.45,-7.23 -111.48,-21.68 -33.03,-14.45 -61.72,-34.27 -86.08,-59.46 -24.36,-25.18 -43.97,-54.91 -58.84,-89.18 -14.86,-34.27 -23.95,-71.63 -27.25,-112.1 -4.13,-37.98 -4.13,-75.97 0,-113.95zm110.24 3.71l348.06 0 0 -3.71c0,-50.37 -15.89,-90.63 -47.69,-120.77 -31.79,-30.14 -74.11,-45.21 -126.96,-45.21 -23.95,0 -46.24,3.92 -66.89,11.77 -20.64,7.84 -38.81,18.99 -54.5,33.44 -15.69,14.45 -28.07,32 -37.16,52.64 -9.08,20.65 -14.03,43.36 -14.86,68.13l0 3.71z"/>
  <path id="4" class="fil0" d="M5782.06 1228.97c0,-9.09 3.3,-16.93 9.91,-23.54 6.61,-6.6 14.45,-9.91 23.53,-9.91l417.43 0c9.08,0 16.93,3.31 23.53,9.91 6.61,6.61 9.91,14.45 9.91,23.54l0 577.21c0,9.08 -3.3,16.92 -9.91,23.53 -6.6,6.61 -14.45,9.91 -23.53,9.91l-45.83 0c-9.08,0 -16.93,-3.3 -23.54,-9.91 -6.6,-6.61 -9.9,-14.45 -9.9,-23.53l0 -504.13 -258.88 0 0 323.28c0,33.86 -3.51,64.62 -10.53,92.28 -7.02,27.67 -18.58,51.41 -34.68,71.23 -16.11,19.81 -37.37,35.3 -63.79,46.44 -26.43,11.15 -59.05,16.73 -97.86,16.73l-14.86 0c-9.08,0 -16.93,-3.31 -23.54,-9.91 -6.6,-6.61 -9.9,-14.45 -9.9,-23.54l0 -39.63c0,-9.09 3.3,-16.93 9.9,-23.54 6.61,-6.6 14.46,-9.91 23.54,-9.91l14.86 0c37.99,0 63.17,-10.94 75.56,-32.82 12.39,-21.88 18.58,-51.41 18.58,-88.57l0 -395.12z"/>
  <path id="5" class="fil0" d="M6485.61 1839.62c-9.08,0 -16.93,-3.3 -23.53,-9.91 -6.61,-6.61 -9.91,-14.45 -9.91,-23.53l0 -577.21c0,-9.09 3.3,-16.93 9.91,-23.54 6.6,-6.6 14.45,-9.91 23.53,-9.91l45.83 0c9.09,0 16.93,3.31 23.54,9.91 6.6,6.61 9.91,14.45 9.91,23.54l0 125.1 133.77 0c39.64,0 75.76,5.78 108.38,17.34 32.62,11.56 60.7,27.87 84.23,48.93 23.53,21.05 41.91,46.65 55.12,76.79 13.21,30.14 19.82,63.38 19.82,99.71 0,36.34 -6.61,69.58 -19.82,99.72 -13.21,30.14 -31.59,55.74 -55.12,76.79 -23.53,21.06 -51.61,37.37 -84.23,48.93 -32.62,11.56 -68.74,17.34 -108.38,17.34l-213.05 0zm369.12 -242.78c0,-24.77 -4.34,-45.83 -13.01,-63.17 -8.67,-17.34 -20.64,-31.38 -35.92,-42.11 -15.27,-10.74 -33.65,-18.58 -55.12,-23.53 -21.47,-4.96 -44.59,-7.44 -69.36,-7.44l-116.43 0 0 272.51 116.43 0c24.77,0 47.89,-2.48 69.36,-7.44 21.47,-4.95 39.85,-12.8 55.12,-23.53 15.28,-10.74 27.25,-24.77 35.92,-42.11 8.67,-17.35 13.01,-38.4 13.01,-63.18z"/>
  <path class="fil0" d="M2915.03 2706.5c0.94,-52.68 10.11,-102.3 27.51,-148.87 17.41,-46.57 42.57,-87.02 75.5,-121.35 32.92,-34.34 73.38,-61.62 121.35,-81.85 47.98,-20.23 103.01,-30.34 165.1,-30.34 62.09,0 117.13,10.11 165.1,30.34 47.98,20.23 88.43,47.51 121.36,81.85 32.92,34.33 58.09,74.78 75.49,121.35 17.41,46.57 26.58,96.19 27.52,148.87 2.82,83.73 2.82,167.45 0,251.18 -1.88,52.68 -11.52,102.31 -28.93,148.87 -17.4,46.57 -42.57,87.26 -75.49,122.06 -32.93,34.81 -73.15,62.09 -120.65,81.85 -47.51,19.75 -102.31,29.63 -164.4,29.63 -62.09,0 -116.88,-9.88 -164.39,-29.63 -47.51,-19.76 -87.73,-47.04 -120.65,-81.85 -32.93,-34.8 -58.09,-75.49 -75.5,-122.06 -17.4,-46.56 -27.04,-96.19 -28.92,-148.87 -2.83,-83.73 -2.83,-167.45 0,-251.18zm644.87 7.06c-1.88,-44.22 -9.17,-82.79 -21.87,-115.71 -12.7,-32.93 -30.34,-60.21 -52.91,-81.85 -22.58,-21.63 -49.16,-37.86 -79.73,-48.68 -30.58,-10.82 -64.21,-16.23 -100.9,-16.23 -36.69,0 -70.32,5.41 -100.89,16.23 -30.58,10.82 -57.15,27.05 -79.73,48.68 -22.58,21.64 -40.45,48.92 -53.62,81.85 -13.17,32.92 -20.23,71.49 -21.17,115.71 -1.88,42.33 -2.82,81.84 -2.82,118.53 0,36.69 0.94,76.2 2.82,118.53 0.94,44.22 8,82.79 21.17,115.72 13.17,32.92 31.04,60.2 53.62,81.84 22.58,21.64 49.15,37.86 79.73,48.68 30.57,10.82 64.2,16.23 100.89,16.23 36.69,0 70.32,-5.41 100.9,-16.23 30.57,-10.82 57.15,-27.04 79.73,-48.68 22.57,-21.64 40.21,-48.92 52.91,-81.84 12.7,-32.93 19.99,-71.5 21.87,-115.72 1.89,-42.33 2.83,-81.84 2.83,-118.53 0,-36.69 -0.94,-76.2 -2.83,-118.53z"/>
  <path id="1" class="fil0" d="M4626.71 2338.2c10.35,0 19.28,3.77 26.81,11.29 7.52,7.53 11.29,16.46 11.29,26.81l0 911.58c0,10.35 -3.77,19.29 -11.29,26.81 -7.53,7.53 -16.46,11.29 -26.81,11.29l-57.86 0c-10.35,0 -19.28,-3.76 -26.81,-11.29 -7.53,-7.52 -11.29,-16.46 -11.29,-26.81l0 -822.68 -496.71 0 0 822.68c0,10.35 -3.76,19.29 -11.29,26.81 -7.52,7.53 -16.46,11.29 -26.81,11.29l-57.85 0c-10.35,0 -19.29,-3.76 -26.82,-11.29 -7.52,-7.52 -11.28,-16.46 -11.28,-26.81l0 -911.58c0,-10.35 3.76,-19.28 11.28,-26.81 7.53,-7.52 16.47,-11.29 26.82,-11.29l688.62 0z"/>
  <path id="2" class="fil0" d="M5518.53 2338.2c10.34,0 19.28,3.77 26.81,11.29 7.52,7.53 11.29,16.46 11.29,26.81l0 50.8c0,10.35 -3.77,19.29 -11.29,26.81 -7.53,7.53 -16.47,11.29 -26.81,11.29l-263.88 0 0 822.68c0,10.35 -3.76,19.29 -11.29,26.81 -7.53,7.53 -16.46,11.29 -26.81,11.29l-57.86 0c-10.35,0 -19.28,-3.76 -26.81,-11.29 -7.52,-7.52 -11.29,-16.46 -11.29,-26.81l0 -822.68 -263.87 0c-10.35,0 -19.29,-3.76 -26.82,-11.29 -7.52,-7.52 -11.28,-16.46 -11.28,-26.81l0 -50.8c0,-10.35 3.76,-19.28 11.28,-26.81 7.53,-7.52 16.47,-11.29 26.82,-11.29l661.81 0z"/>
  <path id="3" class="fil0" d="M6239.6 2338.2c10.35,0 19.29,3.77 26.81,11.29 7.53,7.53 11.29,16.46 11.29,26.81l0 50.8c0,8.47 -1.41,17.41 -4.23,26.81 -2.82,9.41 -6.59,19.29 -11.29,29.64l-313.27 808.56c-3.76,8.47 -8.7,16.23 -14.81,23.29 -6.12,7.05 -14.82,10.58 -26.11,10.58l-64.91 0c-9.41,0 -17.4,-3.29 -23.99,-9.88 -6.58,-6.58 -9.88,-14.58 -9.88,-23.99 0,-1.88 0.24,-3.99 0.71,-6.35 0.47,-2.35 1.65,-5.88 3.53,-10.58l314.67 -809.98 -462.84 0c-10.35,0 -19.29,-3.76 -26.81,-11.29 -7.53,-7.52 -11.29,-16.46 -11.29,-26.81l0 -50.8c0,-10.35 3.76,-19.28 11.29,-26.81 7.52,-7.52 16.46,-11.29 26.81,-11.29l574.32 0z"/>
  <path id="4" class="fil0" d="M6805.46 3287.88c0,10.35 -3.77,19.29 -11.29,26.81 -7.53,7.53 -16.47,11.29 -26.81,11.29l-57.86 0c-10.35,0 -19.29,-3.76 -26.81,-11.29 -7.53,-7.52 -11.29,-16.46 -11.29,-26.81l0 -777.52 -228.6 173.56c-8.47,7.53 -17.87,10.35 -28.22,8.47 -10.35,-1.88 -18.82,-6.58 -25.4,-14.11l-33.87 -43.74c-6.58,-8.47 -9.17,-17.88 -7.76,-28.23 1.41,-10.34 6.35,-18.81 14.82,-25.4l301.97 -231.42c7.53,-5.64 15.06,-8.94 22.58,-9.88 7.53,-0.94 15.05,-1.41 22.58,-1.41l57.86 0c10.34,0 19.28,3.77 26.81,11.29 7.52,7.53 11.29,16.46 11.29,26.81l0 911.58z"/>
  <path id="5" class="fil0" d="M2915.03 2706.5c0.94,-52.68 10.11,-102.3 27.51,-148.87 17.41,-46.57 42.57,-87.02 75.5,-121.35 32.92,-34.34 73.38,-61.62 121.35,-81.85 47.98,-20.23 103.01,-30.34 165.1,-30.34 62.09,0 117.13,10.11 165.1,30.34 47.98,20.23 88.43,47.51 121.36,81.85 32.92,34.33 58.09,74.78 75.49,121.35 17.41,46.57 26.58,96.19 27.52,148.87 2.82,83.73 2.82,167.45 0,251.18 -1.88,52.68 -11.52,102.31 -28.93,148.87 -17.4,46.57 -42.57,87.26 -75.49,122.06 -32.93,34.81 -73.15,62.09 -120.65,81.85 -47.51,19.75 -102.31,29.63 -164.4,29.63 -62.09,0 -116.88,-9.88 -164.39,-29.63 -47.51,-19.76 -87.73,-47.04 -120.65,-81.85 -32.93,-34.8 -58.09,-75.49 -75.5,-122.06 -17.4,-46.56 -27.04,-96.19 -28.92,-148.87 -2.83,-83.73 -2.83,-167.45 0,-251.18zm644.87 7.06c-1.88,-44.22 -9.17,-82.79 -21.87,-115.71 -12.7,-32.93 -30.34,-60.21 -52.91,-81.85 -22.58,-21.63 -49.16,-37.86 -79.73,-48.68 -30.58,-10.82 -64.21,-16.23 -100.9,-16.23 -36.69,0 -70.32,5.41 -100.89,16.23 -30.58,10.82 -57.15,27.05 -79.73,48.68 -22.58,21.64 -40.45,48.92 -53.62,81.85 -13.17,32.92 -20.23,71.49 -21.17,115.71 -1.88,42.33 -2.82,81.84 -2.82,118.53 0,36.69 0.94,76.2 2.82,118.53 0.94,44.22 8,82.79 21.17,115.72 13.17,32.92 31.04,60.2 53.62,81.84 22.58,21.64 49.15,37.86 79.73,48.68 30.57,10.82 64.2,16.23 100.89,16.23 36.69,0 70.32,-5.41 100.9,-16.23 30.57,-10.82 57.15,-27.04 79.73,-48.68 22.57,-21.64 40.21,-48.92 52.91,-81.84 12.7,-32.93 19.99,-71.5 21.87,-115.72 1.89,-42.33 2.83,-81.84 2.83,-118.53 0,-36.69 -0.94,-76.2 -2.83,-118.53z"/>
  <path id="6" class="fil0" d="M4626.71 2338.2c10.35,0 19.28,3.77 26.81,11.29 7.52,7.53 11.29,16.46 11.29,26.81l0 911.58c0,10.35 -3.77,19.29 -11.29,26.81 -7.53,7.53 -16.46,11.29 -26.81,11.29l-57.86 0c-10.35,0 -19.28,-3.76 -26.81,-11.29 -7.53,-7.52 -11.29,-16.46 -11.29,-26.81l0 -822.68 -496.71 0 0 822.68c0,10.35 -3.76,19.29 -11.29,26.81 -7.52,7.53 -16.46,11.29 -26.81,11.29l-57.85 0c-10.35,0 -19.29,-3.76 -26.82,-11.29 -7.52,-7.52 -11.28,-16.46 -11.28,-26.81l0 -911.58c0,-10.35 3.76,-19.28 11.28,-26.81 7.53,-7.52 16.47,-11.29 26.82,-11.29l688.62 0z"/>
  <polygon class="fil0" points="2126.89,188.76 567.9,2485.52 1491.76,2363.63 856.6,3929.05 2608.04,1632.26 1523.84,1805.47 "/>
  <polygon class="fil0" points="894.45,3835.72 913.34,3854.6 899.16,3873.19 885,3859.03 "/>
  <polygon class="fil0" points="903.91,3812.41 927.52,3836.01 913.34,3854.6 894.45,3835.72 "/>
  <polygon class="fil0" points="913.38,3789.07 941.71,3817.4 927.52,3836.01 903.91,3812.41 "/>
  <polygon class="fil0" points="922.86,3765.72 955.91,3798.77 941.71,3817.4 913.38,3789.07 "/>
  <polygon class="fil0" points="932.31,3742.41 970.09,3780.19 955.91,3798.77 922.86,3765.72 "/>
  <polygon class="fil0" points="941.77,3719.09 984.27,3761.59 970.09,3780.19 932.31,3742.41 "/>
  <polygon class="fil0" points="951.25,3695.75 998.47,3742.97 984.27,3761.59 941.77,3719.09 "/>
  <polygon class="fil0" points="960.72,3672.41 1012.66,3724.35 998.47,3742.97 951.25,3695.75 "/>
  <polygon class="fil0" points="970.18,3649.09 1026.84,3705.76 1012.66,3724.35 960.72,3672.41 "/>
  <polygon class="fil0" points="979.64,3625.76 1041.03,3687.15 1026.84,3705.76 970.18,3649.09 "/>
  <polygon class="fil0" points="989.11,3602.43 1055.23,3668.54 1041.03,3687.15 979.64,3625.76 "/>
  <polygon class="fil0" points="998.58,3579.09 1069.42,3649.93 1055.23,3668.54 989.11,3602.43 "/>
  <polygon class="fil0" points="1008.04,3555.77 1083.6,3631.33 1069.42,3649.93 998.58,3579.09 "/>
  <polygon class="fil0" points="1017.51,3532.45 1097.79,3612.73 1083.6,3631.33 1008.04,3555.77 "/>
  <polygon class="fil0" points="1026.97,3509.12 1111.98,3594.12 1097.79,3612.73 1017.51,3532.45 "/>
  <polygon class="fil0" points="1036.44,3485.78 1126.17,3575.51 1111.98,3594.12 1026.97,3509.12 "/>
  <polygon class="fil0" points="1045.91,3462.45 1140.36,3556.9 1126.17,3575.51 1036.44,3485.78 "/>
  <polygon class="fil0" points="1055.37,3439.14 1154.54,3538.31 1140.36,3556.9 1045.91,3462.45 "/>
  <polygon class="fil0" points="1064.84,3415.79 1168.74,3519.69 1154.54,3538.31 1055.37,3439.14 "/>
  <polygon class="fil0" points="1074.31,3392.45 1182.93,3501.07 1168.74,3519.69 1064.84,3415.79 "/>
  <polygon class="fil0" points="1083.77,3369.14 1197.11,3482.48 1182.93,3501.07 1074.31,3392.45 "/>
  <polygon class="fil0" points="1093.23,3345.83 1211.29,3463.89 1197.11,3482.48 1083.77,3369.14 "/>
  <polygon class="fil0" points="1102.7,3322.48 1225.5,3445.26 1211.29,3463.89 1093.23,3345.83 "/>
  <polygon class="fil0" points="1112.17,3299.15 1239.68,3426.66 1225.5,3445.26 1102.7,3322.48 "/>
  <polygon class="fil0" points="1121.63,3275.82 1253.87,3408.06 1239.68,3426.66 1112.17,3299.15 "/>
  <polygon class="fil0" points="1131.1,3252.49 1268.05,3389.45 1253.87,3408.06 1121.63,3275.82 "/>
  <polygon class="fil0" points="1140.57,3229.16 1282.25,3370.84 1268.05,3389.45 1131.1,3252.49 "/>
  <polygon class="fil0" points="1150.03,3205.85 1296.42,3352.25 1282.25,3370.84 1140.57,3229.16 "/>
  <polygon class="fil0" points="1159.5,3182.5 1310.62,3333.63 1296.42,3352.25 1150.03,3205.85 "/>
  <polygon class="fil0" points="1168.96,3159.19 1324.8,3315.03 1310.62,3333.63 1159.5,3182.5 "/>
  <polygon class="fil0" points="1178.43,3135.85 1339,3296.41 1324.8,3315.03 1168.96,3159.19 "/>
  <polygon class="fil0" points="1187.89,3112.54 1353.17,3277.83 1339,3296.41 1178.43,3135.85 "/>
  <path class="fil0" d="M578.33 2470.16l12.35 12.35 -22.78 3.01 10.43 -15.36zm619.04 619.02l170.02 170.01 -14.22 18.64 -165.28 -165.29 9.48 -23.36z"/>
  <path class="fil0" d="M591.59 2450.61l28.08 28.08 -28.99 3.82 -12.35 -12.35 13.26 -19.55zm615.23 615.26l174.74 174.74 -14.17 18.58 -170.02 -170.01 9.45 -23.31z"/>
  <path class="fil0" d="M604.84 2431.09l43.78 43.78 -28.95 3.82 -28.08 -28.08 13.25 -19.52zm611.45 611.44l179.46 179.46 -14.19 18.62 -174.74 -174.74 9.47 -23.34z"/>
  <path class="fil0" d="M618.11 2411.55l59.5 59.5 -28.99 3.82 -43.78 -43.78 13.27 -19.54zm607.65 607.65l184.18 184.18 -14.19 18.61 -179.46 -179.46 9.47 -23.33z"/>
  <path class="fil0" d="M631.38 2392.01l75.21 75.21 -28.98 3.83 -59.5 -59.5 13.27 -19.54zm603.85 603.86l188.9 188.91 -14.19 18.6 -184.18 -184.18 9.47 -23.33z"/>
  <path class="fil0" d="M644.62 2372.49l90.92 90.91 -28.95 3.82 -75.21 -75.21 13.24 -19.52zm600.06 600.08l193.62 193.63 -14.17 18.58 -188.9 -188.91 9.45 -23.3z"/>
  <path class="fil0" d="M657.88 2352.96l106.62 106.62 -28.96 3.82 -90.92 -90.91 13.26 -19.53zm596.28 596.25l198.35 198.35 -14.21 18.64 -193.62 -193.63 9.48 -23.36z"/>
  <path class="fil0" d="M671.14 2333.42l122.34 122.34 -28.98 3.82 -106.62 -106.62 13.26 -19.54zm592.48 592.48l203.07 203.07 -14.18 18.59 -198.35 -198.35 9.46 -23.31z"/>
  <path class="fil0" d="M684.41 2313.88l138.05 138.05 -28.98 3.83 -122.34 -122.34 13.27 -19.54zm588.68 588.68l207.79 207.8 -14.19 18.61 -203.07 -203.07 9.47 -23.34z"/>
  <path class="fil0" d="M697.67 2294.34l153.77 153.77 -28.98 3.82 -138.05 -138.05 13.26 -19.54zm584.88 584.9l212.51 212.53 -14.18 18.59 -207.79 -207.8 9.46 -23.32z"/>
  <path class="fil0" d="M710.92 2274.81l169.48 169.48 -28.96 3.82 -153.77 -153.77 13.25 -19.53zm581.09 581.1l217.24 217.24 -14.19 18.62 -212.51 -212.53 9.46 -23.33z"/>
  <path class="fil0" d="M724.19 2255.27l185.18 185.2 -28.97 3.82 -169.48 -169.48 13.27 -19.54zm577.29 577.32l221.95 221.97 -14.18 18.59 -217.24 -217.24 9.47 -23.32z"/>
  <path class="fil0" d="M737.44 2235.75l200.91 200.9 -28.98 3.82 -185.18 -185.2 13.25 -19.52zm573.51 573.49l226.69 226.69 -14.21 18.63 -221.95 -221.97 9.47 -23.35z"/>
  <path class="fil0" d="M750.7 2216.21l216.62 216.61 -28.97 3.83 -200.91 -200.9 13.26 -19.54zm569.71 569.71l231.41 231.41 -14.18 18.6 -226.69 -226.69 9.46 -23.32z"/>
  <path class="fil0" d="M763.95 2196.68l232.32 232.32 -28.95 3.82 -216.62 -216.61 13.25 -19.53zm565.92 565.92l236.13 236.13 -14.18 18.6 -231.41 -231.41 9.46 -23.32z"/>
  <path class="fil0" d="M777.22 2177.14l248.03 248.04 -28.98 3.82 -232.32 -232.32 13.27 -19.54zm562.12 562.13l240.86 240.85 -14.2 18.61 -236.13 -236.13 9.47 -23.33z"/>
  <path class="fil0" d="M790.49 2157.59l263.76 263.76 -29 3.83 -248.03 -248.04 13.27 -19.55zm558.33 558.33l245.58 245.57 -14.2 18.63 -240.86 -240.85 9.48 -23.35z"/>
  <path class="fil0" d="M803.75 2138.06l279.46 279.47 -28.96 3.82 -263.76 -263.76 13.26 -19.53zm554.53 554.55l250.29 250.3 -14.17 18.58 -245.58 -245.57 9.46 -23.31z"/>
  <path class="fil0" d="M817 2118.53l295.18 295.18 -28.97 3.82 -279.46 -279.47 13.25 -19.53zm550.74 550.74l255.03 255.03 -14.2 18.61 -250.29 -250.3 9.46 -23.34z"/>
  <path class="fil0" d="M830.27 2098.99l310.89 310.9 -28.98 3.82 -295.18 -295.18 13.27 -19.54zm546.94 546.95l259.75 259.75 -14.19 18.61 -255.03 -255.03 9.47 -23.33z"/>
  <path class="fil0" d="M843.52 2079.46l326.61 326.6 -28.97 3.83 -310.89 -310.9 13.25 -19.53zm543.16 543.15l264.47 264.47 -14.19 18.61 -259.75 -259.75 9.47 -23.33z"/>
  <path class="fil0" d="M856.78 2059.93l342.3 342.31 -28.95 3.82 -326.61 -326.6 13.26 -19.53zm539.35 539.38l269.19 269.19 -14.17 18.58 -264.47 -264.47 9.45 -23.3z"/>
  <path class="fil0" d="M870.05 2040.39l358.02 358.03 -28.99 3.82 -342.3 -342.31 13.27 -19.54zm535.56 535.57l273.91 273.92 -14.2 18.62 -269.19 -269.19 9.48 -23.35z"/>
  <path class="fil0" d="M883.29 2020.88l373.73 373.72 -28.95 3.82 -358.02 -358.03 13.24 -19.51zm531.78 531.76l278.63 278.64 -14.18 18.6 -273.91 -273.92 9.46 -23.32z"/>
  <path class="fil0" d="M896.57 2001.31l389.46 389.46 -29.01 3.83 -373.73 -373.72 13.28 -19.57zm527.97 527.98l283.36 283.36 -14.2 18.63 -278.63 -278.64 9.47 -23.35z"/>
  <path class="fil0" d="M909.82 1981.8l405.15 405.15 -28.94 3.82 -389.46 -389.46 13.25 -19.51zm524.18 524.18l288.08 288.08 -14.18 18.59 -283.36 -283.36 9.46 -23.31z"/>
  <path class="fil0" d="M923.07 1962.27l420.88 420.86 -28.98 3.82 -405.15 -405.15 13.25 -19.53zm520.4 520.38l292.81 292.8 -14.2 18.61 -288.08 -288.08 9.47 -23.33z"/>
  <path class="fil0" d="M936.34 1942.72l436.58 436.59 -28.97 3.82 -420.88 -420.86 13.27 -19.55zm516.59 516.61l297.52 297.53 -14.17 18.59 -292.81 -292.8 9.46 -23.32z"/>
  <path class="fil0" d="M949.6 1923.18l452.31 452.3 -28.99 3.83 -436.58 -436.59 13.26 -19.54zm512.81 512.8l302.25 302.24 -14.21 18.64 -297.52 -297.53 9.48 -23.35z"/>
  <path class="fil0" d="M962.85 1903.66l468.02 468 -28.96 3.82 -452.31 -452.3 13.25 -19.52zm509.01 509l306.98 306.97 -14.18 18.59 -302.25 -302.24 9.45 -23.32z"/>
  <path class="fil0" d="M976.11 1884.13l483.7 483.72 -28.94 3.81 -468.02 -468 13.26 -19.53zm505.21 505.23l311.69 311.69 -14.17 18.58 -306.98 -306.97 9.46 -23.3z"/>
  <path class="fil0" d="M989.38 1864.58l499.44 499.44 -29.01 3.83 -483.7 -483.72 13.27 -19.55zm501.42 501.42l316.42 316.42 -14.21 18.63 -311.69 -311.69 9.48 -23.36z"/>
  <polygon class="fil0" points="1002.64,1845.05 1821.42,2663.8 1807.22,2682.42 1490.8,2366 1491.76,2363.63 1488.82,2364.02 989.38,1864.58 "/>
  <polygon class="fil0" points="1015.9,1825.5 1835.59,2645.21 1821.42,2663.8 1002.64,1845.05 "/>
  <polygon class="fil0" points="1029.15,1805.99 1849.77,2626.62 1835.59,2645.21 1015.9,1825.5 "/>
  <polygon class="fil0" points="1042.42,1786.44 1863.98,2607.99 1849.77,2626.62 1029.15,1805.99 "/>
  <polygon class="fil0" points="1055.68,1766.91 1878.16,2589.39 1863.98,2607.99 1042.42,1786.44 "/>
  <polygon class="fil0" points="1068.94,1747.37 1892.34,2570.79 1878.16,2589.39 1055.68,1766.91 "/>
  <polygon class="fil0" points="1082.19,1727.85 1906.53,2552.18 1892.34,2570.79 1068.94,1747.37 "/>
  <polygon class="fil0" points="1095.45,1708.31 1920.72,2533.57 1906.53,2552.18 1082.19,1727.85 "/>
  <polygon class="fil0" points="1108.71,1688.77 1934.91,2514.97 1920.72,2533.57 1095.45,1708.31 "/>
  <polygon class="fil0" points="1121.98,1669.24 1949.1,2496.36 1934.91,2514.97 1108.71,1688.77 "/>
  <polygon class="fil0" points="1142.06,1639.65 1970.59,2468.18 1949.1,2496.36 1121.98,1669.24 "/>
  <polygon class="fil0" points="1162.17,1610.02 1992.11,2439.96 1970.59,2468.18 1142.06,1639.65 "/>
  <polygon class="fil0" points="1182.27,1580.42 2013.61,2411.76 1992.11,2439.96 1162.17,1610.02 "/>
  <polygon class="fil0" points="1202.36,1550.81 2035.12,2383.56 2013.61,2411.76 1182.27,1580.42 "/>
  <polygon class="fil0" points="1222.46,1521.2 2056.63,2355.36 2035.12,2383.56 1202.36,1550.81 "/>
  <polygon class="fil0" points="1242.56,1491.59 1532.69,1781.73 1523.84,1805.47 1551.94,1800.98 2078.12,2327.17 2056.63,2355.36 1222.46,1521.2 "/>
  <path class="fil0" d="M1262.67 1461.96l283.54 283.54 -13.52 36.23 -290.13 -290.14 20.11 -29.63zm332.16 332.17l504.81 504.82 -21.52 28.22 -526.18 -526.19 42.89 -6.85z"/>
  <path class="fil0" d="M1282.76 1432.36l276.95 276.95 -13.5 36.19 -283.54 -283.54 20.09 -29.6zm354.93 354.92l483.47 483.45 -21.52 28.22 -504.81 -504.82 42.86 -6.85z"/>
  <path class="fil0" d="M1302.86 1402.74l270.36 270.35 -13.51 36.22 -276.95 -276.95 20.1 -29.62zm377.71 377.69l462.11 462.09 -21.52 28.21 -483.47 -483.45 42.88 -6.85z"/>
  <path class="fil0" d="M1322.96 1373.14l263.76 263.76 -13.5 36.19 -270.36 -270.35 20.1 -29.6zm400.45 400.45l440.75 440.75 -21.48 28.18 -462.11 -462.09 42.84 -6.84z"/>
  <path class="fil0" d="M1343.05 1343.55l257.17 257.16 -13.5 36.19 -263.76 -263.76 20.09 -29.59zm423.2 423.19l419.41 419.41 -21.5 28.19 -440.75 -440.75 42.84 -6.85z"/>
  <path class="fil0" d="M1363.17 1313.9l250.56 250.58 -13.51 36.23 -257.17 -257.16 20.12 -29.65zm445.97 445.99l398.03 398.05 -21.51 28.21 -419.41 -419.41 42.89 -6.85z"/>
  <path class="fil0" d="M1383.26 1284.31l243.97 243.98 -13.5 36.19 -250.56 -250.58 20.09 -29.59zm468.72 468.74l376.69 376.7 -21.5 28.19 -398.03 -398.05 42.84 -6.84z"/>
  <path class="fil0" d="M1403.37 1254.68l237.37 237.38 -13.51 36.23 -243.97 -243.98 20.11 -29.63zm491.5 491.52l355.32 355.33 -21.52 28.22 -376.69 -376.7 42.89 -6.85z"/>
  <path class="fil0" d="M1423.45 1225.09l230.79 230.79 -13.5 36.18 -237.37 -237.38 20.08 -29.59zm514.27 514.26l333.97 333.98 -21.5 28.2 -355.32 -355.33 42.85 -6.85z"/>
  <path class="fil0" d="M1443.54 1195.5l224.2 224.2 -13.5 36.18 -230.79 -230.79 20.09 -29.59zm537.01 537.01l312.63 312.63 -21.49 28.19 -333.97 -333.98 42.83 -6.84z"/>
  <path class="fil0" d="M1463.65 1165.87l217.6 217.6 -13.51 36.23 -224.2 -224.2 20.11 -29.63zm559.79 559.79l291.26 291.26 -21.52 28.22 -312.63 -312.63 42.89 -6.85z"/>
  <path class="fil0" d="M1483.73 1136.28l211.01 211.01 -13.49 36.18 -217.6 -217.6 20.08 -29.59zm582.53 582.53l269.93 269.93 -21.49 28.18 -291.26 -291.26 42.82 -6.85z"/>
  <path class="fil0" d="M1503.85 1106.65l204.41 204.4 -13.52 36.24 -211.01 -211.01 20.12 -29.63zm605.33 605.31l248.55 248.54 -21.54 28.24 -269.93 -269.93 42.92 -6.85z"/>
  <path class="fil0" d="M1523.93 1077.06l197.83 197.82 -13.5 36.17 -204.41 -204.4 20.08 -29.59zm628.07 628.06l227.22 227.2 -21.49 28.18 -248.55 -248.54 42.82 -6.84z"/>
  <path class="fil0" d="M1544.04 1047.44l191.22 191.23 -13.5 36.21 -197.83 -197.82 20.11 -29.62zm650.81 650.83l205.86 205.87 -21.49 28.18 -227.22 -227.2 42.85 -6.85z"/>
  <path class="fil0" d="M1564.16 1017.8l184.62 184.63 -13.52 36.24 -191.22 -191.23 20.12 -29.64zm673.58 673.62l184.49 184.5 -21.52 28.22 -205.86 -205.87 42.89 -6.85z"/>
  <path class="fil0" d="M1584.23 988.22l178.04 178.04 -13.49 36.17 -184.62 -184.63 20.07 -29.58zm696.34 696.36l163.15 163.16 -21.49 28.18 -184.49 -184.5 42.83 -6.84z"/>
  <path class="fil0" d="M1604.34 958.59l171.44 171.45 -13.51 36.22 -178.04 -178.04 20.11 -29.63zm719.1 719.14l141.79 141.8 -21.51 28.21 -163.15 -163.16 42.87 -6.85z"/>
  <path class="fil0" d="M1624.44 928.99l164.85 164.85 -13.51 36.2 -171.44 -171.45 20.1 -29.6zm741.87 741.89l120.44 120.44 -21.52 28.21 -141.79 -141.8 42.87 -6.85z"/>
  <path class="fil0" d="M1644.53 899.38l158.26 158.26 -13.5 36.2 -164.85 -164.85 20.09 -29.61zm764.64 764.65l99.08 99.08 -21.5 28.21 -120.44 -120.44 42.86 -6.85z"/>
  <path class="fil0" d="M1664.63 869.78l151.66 151.66 -13.5 36.2 -158.26 -158.26 20.1 -29.6zm787.4 787.4l77.73 77.73 -21.51 28.2 -99.08 -99.08 42.86 -6.85z"/>
  <path class="fil0" d="M1684.74 840.16l145.06 145.07 -13.51 36.21 -151.66 -151.66 20.11 -29.62zm810.15 810.18l56.37 56.37 -21.5 28.2 -77.73 -77.73 42.86 -6.84z"/>
  <path class="fil0" d="M1704.85 810.53l138.46 138.47 -13.51 36.23 -145.06 -145.07 20.11 -29.63zm832.9 832.96l35.02 35.02 -21.51 28.2 -56.37 -56.37 42.86 -6.85z"/>
  <path class="fil0" d="M1724.93 780.94l131.88 131.88 -13.5 36.18 -138.46 -138.47 20.08 -29.59zm855.67 855.7l13.67 13.67 -21.5 28.2 -35.02 -35.02 42.85 -6.85z"/>
  <path class="fil0" d="M1745.03 751.33l125.28 125.29 -13.5 36.2 -131.88 -131.88 20.1 -29.61zm849.24 898.98l-13.67 -13.67 27.44 -4.38 -13.77 18.05z"/>
  <polygon class="fil0" points="1765.13,721.72 1883.82,840.41 1870.31,876.62 1745.03,751.33 "/>
  <polygon class="fil0" points="1785.21,692.13 1897.31,804.23 1883.82,840.41 1765.13,721.72 "/>
  <polygon class="fil0" points="1805.32,662.51 1910.82,768.01 1897.31,804.23 1785.21,692.13 "/>
  <polygon class="fil0" points="1825.41,632.91 1924.32,731.82 1910.82,768.01 1805.32,662.51 "/>
  <polygon class="fil0" points="1845.52,603.28 1937.84,695.6 1924.32,731.82 1825.41,632.91 "/>
  <polygon class="fil0" points="1865.61,573.69 1951.33,659.41 1937.84,695.6 1845.52,603.28 "/>
  <polygon class="fil0" points="1885.72,544.07 1964.84,623.2 1951.33,659.41 1865.61,573.69 "/>
  <polygon class="fil0" points="1905.83,514.44 1978.35,586.97 1964.84,623.2 1885.72,544.07 "/>
  <polygon class="fil0" points="1925.9,484.87 1991.84,550.81 1978.35,586.97 1905.83,514.44 "/>
  <polygon class="fil0" points="1946.01,455.25 2005.35,514.59 1991.84,550.81 1925.9,484.87 "/>
  <polygon class="fil0" points="1966.11,425.63 2018.86,478.38 2005.35,514.59 1946.01,455.25 "/>
  <polygon class="fil0" points="1986.22,396 2032.37,442.16 2018.86,478.38 1966.11,425.63 "/>
  <polygon class="fil0" points="2006.33,366.37 2045.88,405.93 2032.37,442.16 1986.22,396 "/>
  <polygon class="fil0" points="2026.41,336.79 2059.38,369.75 2045.88,405.93 2006.33,366.37 "/>
  <polygon class="fil0" points="2046.51,307.17 2072.88,333.55 2059.38,369.75 2026.41,336.79 "/>
  <polygon class="fil0" points="2066.61,277.57 2086.39,297.35 2072.88,333.55 2046.51,307.17 "/>
  <polygon class="fil0" points="2086.7,247.96 2099.89,261.15 2086.39,297.35 2066.61,277.57 "/>
  <polygon class="fil0" points="2106.81,218.35 2113.4,224.94 2099.89,261.15 2086.7,247.96 "/>
  <polygon class="fil0" points="2113.4,224.94 2106.81,218.35 2126.89,188.76 "/>
  <path class="fil1" d="M921.8 2188.94c19.76,-29.14 39.26,-58.46 58.62,-87.88l57.31 -88.76 113.35 -178.33 113.82 -178.04 113.91 -177.94 113.68 -178.12 226.27 -356.94 -3.53 -2.33 -238.3 349.04 -118.64 174.83 -118.37 175.05 -118.5 174.94 -118.94 174.67 -58.84 87.73c-19.36,29.42 -38.57,58.91 -57.53,88.58 -19.09,29.6 -37.66,59.55 -56.53,89.29 -18.92,29.71 -37.23,59.8 -55.82,89.71l-18.95 30.48 34.89 -4.51c39.88,-5.15 79.66,-10.76 119.49,-16.2 39.82,-5.39 79.62,-11.07 119.44,-16.79 39.78,-5.61 79.55,-11.6 119.33,-17.5l59.62 -9.1 59.6 -9.49 -0.49 -4.16 -60.2 4.13 -60.15 4.48c-40.08,3.21 -80.18,6.28 -120.22,9.74 -40.05,3.35 -80.11,6.77 -120.13,10.44 -27.87,2.54 -55.74,5.04 -83.57,7.58 13.35,-19.05 26.69,-38.13 39.76,-57.36 19.86,-29.1 40.01,-58 59.62,-87.24z"/>
  <path class="fil1" d="M2367.94 1738.62l-119.56 15.48 -119.55 15.7c-39.83,5.08 -79.63,10.73 -119.45,16.2l-59.73 8.25 -59.69 8.57 0.28 2.79 60.12 -5.04 60.07 -5.37c40.01,-3.6 80.08,-7.02 120.05,-10.97l120.02 -11.57 94.61 -9.24 -47.87 64.38c-20.78,28.33 -41.8,56.44 -62.37,84.91l-61.77 85.38 -60.93 85.93 -242.28 344.84 -242.57 344.67 -241.76 345.22 2.29 1.63 249.49 -339.66 248.74 -340.25 248.96 -340.04 61.87 -85.27 61.03 -85.9c20.39,-28.61 40.29,-57.54 60.47,-86.29l59.94 -86.64 14.46 -20.92 -24.87 3.21z"/>
  <path class="fil2" d="M10321.94 -609.9l49.71 -49.71 77.54 0 -130.44 130.44c0.69,-27.01 1.77,-53.92 3.19,-80.73z"/>
  <path class="fil2" d="M10323.58 -278.77l380.84 -380.84 77.54 0 -453.03 453.04c-2.08,-23.98 -3.86,-48.05 -5.35,-72.2z"/>
  <path class="fil2" d="M10357.66 19.93l679.5 -679.54 77.54 0 -745.25 745.26c-4.17,-21.82 -8.11,-43.73 -11.79,-65.72z"/>
  <path class="fil2" d="M10417.24 293.05l952.7 -952.66 77.54 0 -1013.19 1013.2c-5.91,-20.09 -11.58,-40.27 -17.05,-60.54z"/>
  <path class="fil2" d="M10497.97 545.1l1204.71 -1204.71 77.54 0 -1260.77 1260.81c-7.37,-18.6 -14.48,-37.32 -21.48,-56.1z"/>
  <path class="fil2" d="M10601.26 787.87l-0.01 0c-1.45,-3.01 -2.79,-6.07 -4.23,-9.08l1438.4 -1438.4 77.58 0 -1490.41 1490.41z"/>
  <path class="fil2" d="M10712.57 996.01l1655.62 -1655.62 77.55 0 -1704.08 1704.12c-9.87,-16.05 -19.53,-32.24 -29.09,-48.5z"/>
  <path class="fil2" d="M10843.05 1198.31l1857.92 -1857.92 77.54 0 -1902.92 1902.89c-10.96,-14.9 -21.86,-29.85 -32.54,-44.97z"/>
  <path class="fil2" d="M10987.87 1386.23l2045.84 -2045.84 77.54 0 -2087.74 2087.74c-12.04,-13.83 -23.86,-27.84 -35.64,-41.9z"/>
  <path class="fil2" d="M11146.36 1560.51l2220.13 -2220.12 77.54 0 -2258.75 2258.75c-13.08,-12.77 -26.08,-25.62 -38.92,-38.63z"/>
  <path class="fil2" d="M11318.37 1721.24l2380.86 -2380.85 77.54 0 -2416.38 2416.37c-14.13,-11.7 -28.12,-23.56 -42.02,-35.52z"/>
  <path class="fil2" d="M11504.21 1868.19l2527.79 -2527.8 77.54 0 -2560.03 2560.07c-15.21,-10.61 -30.31,-21.37 -45.3,-32.27z"/>
  <path class="fil2" d="M11703.95 2001.18l2660.79 -2660.79 77.58 0 -2689.64 2689.61c-16.34,-9.47 -32.6,-19.04 -48.73,-28.82z"/>
  <path class="fil2" d="M11918.85 2119.03l2778.67 -2778.64 77.54 0 -2803.89 2803.89c-17.54,-8.24 -34.97,-16.67 -52.32,-25.25z"/>
  <path class="fil2" d="M12149.7 2220.95l2880.56 -2880.56 77.57 0 -2901.88 2901.89c-18.86,-6.88 -37.58,-14.06 -56.25,-21.33z"/>
  <path class="fil2" d="M12398.5 2304.89l2964.53 -2964.5 77.54 0 -2981.16 2981.16c-20.38,-5.35 -40.71,-10.87 -60.91,-16.66z"/>
  <path class="fil2" d="M12668.06 2368.1l3027.71 -3027.71 77.54 0 -3039.03 3039.07c-22.16,-3.55 -44.24,-7.31 -66.22,-11.36z"/>
  <path class="fil2" d="M12962.21 2406.73l3066.34 -3066.34 30.15 0c1.03,14.85 1.96,29.72 2.77,44.62l-3026.55 3026.55c-24.32,-1.32 -48.56,-2.92 -72.71,-4.83z"/>
  <path class="fil2" d="M13287.57 2414.11l2776.5 -2776.5c-0.89,27.24 -2.18,54.37 -3.83,81.41l-2691.3 2691.26c-27.03,1.64 -54.15,2.94 -81.37,3.83z"/>
  <path class="fil2" d="M13656.09 2378.36l2372.22 -2372.22c-5.14,31.67 -10.78,63.17 -16.95,94.49l-2260.78 2260.78c-31.31,6.17 -62.82,11.81 -94.49,16.95z"/>
  <path class="fil2" d="M14096.88 2270.31l1823.37 -1823.36c-13.47,40.64 -27.86,80.84 -43.08,120.65l-1659.62 1659.62zm-37.51 14.26l-0.29 0.11c-21.72,7.95 -43.54,15.68 -65.51,23.07l-0.53 0.18 -0.07 0.03 -0.45 0.15c-5.41,1.8 -10.89,3.49 -16.31,5.29z"/>
  <path class="fil2" d="M14730.14 1969.83l889.63 -889.63c-61.71,97.19 -129.09,190.42 -201.68,279.22l-408.89 408.86c-14.15,11.57 -28.33,23.11 -42.7,34.4l-0.27 0.21c-75.7,59.5 -154.54,115.16 -236.09,166.94z"/>
 </g>
</svg>
