<?xml version="1.0" encoding="UTF-8"?>
<!DOCTYPE svg PUBLIC "-//W3C//DTD SVG 1.1//EN" "http://www.w3.org/Graphics/SVG/1.1/DTD/svg11.dtd">
<svg xmlns="http://www.w3.org/2000/svg" version="1.1" width="120px" height="120px" style="shape-rendering:geometricPrecision; text-rendering:geometricPrecision; image-rendering:optimizeQuality; fill-rule:evenodd; clip-rule:evenodd" xmlns:xlink="http://www.w3.org/1999/xlink">
<g><path style="opacity:0.861" fill="#ec893d" d="M 74.5,1.5 C 75.3764,1.36912 76.0431,1.70245 76.5,2.5C 70.5,18.1667 64.5,33.8333 58.5,49.5C 69.2582,49.4878 79.9249,48.1544 90.5,45.5C 90.8333,45.8333 91.1667,46.1667 91.5,46.5C 73.1914,70.6427 54.6914,94.6427 36,118.5C 41.6427,102.759 47.8093,87.0927 54.5,71.5C 53.3333,71.1667 52.1667,70.8333 51,70.5C 42.8439,71.8095 34.6773,72.6429 26.5,73C 43.1393,49.54 59.1393,25.7067 74.5,1.5 Z"/></g>
<g><path style="opacity:0.004" fill="#ef924b" d="M 119.5,25.5 C 119.5,26.5 119.5,27.5 119.5,28.5C 117.015,27.2601 117.015,26.2601 119.5,25.5 Z"/></g>
<g><path style="opacity:1" fill="#b17951" d="M 50.5,44.5 C 53.3919,39.0569 56.5586,33.7235 60,28.5C 60.7199,26.7448 61.8866,25.9115 63.5,26C 59.3036,32.3465 54.9703,38.5131 50.5,44.5 Z"/></g>
<g><path style="opacity:1" fill="#8e705c" d="M 50.5,44.5 C 50.573,46.0269 49.9063,47.0269 48.5,47.5C 48.427,45.9731 49.0937,44.9731 50.5,44.5 Z"/></g>
<g><path style="opacity:1" fill="#866e5e" d="M 48.5,47.5 C 48.573,49.0269 47.9063,50.0269 46.5,50.5C 46.427,48.9731 47.0937,47.9731 48.5,47.5 Z"/></g>
<g><path style="opacity:1" fill="#a27556" d="M 76.5,59.5 C 77.5566,57.0587 78.89,54.7254 80.5,52.5C 78.2338,51.6858 75.9005,51.1858 73.5,51C 76.1879,50.6076 78.8546,50.1076 81.5,49.5C 82.1667,49.8333 82.8333,50.1667 83.5,50.5C 81.4939,53.8292 79.1606,56.8292 76.5,59.5 Z"/></g>
<g><path style="opacity:1" fill="#7f6b61" d="M 46.5,50.5 C 46.573,52.0269 45.9063,53.0269 44.5,53.5C 44.427,51.9731 45.0937,50.9731 46.5,50.5 Z"/></g>
<g><path style="opacity:1" fill="#856d5f" d="M 44.5,53.5 C 42.4855,58.3567 39.8189,62.8567 36.5,67C 39.5,67.3333 42.5,67.6667 45.5,68C 41.5037,68.8111 37.5037,69.1445 33.5,69C 36.8201,63.5029 40.4868,58.3362 44.5,53.5 Z"/></g>
<g><path style="opacity:1" fill="#977259" d="M 76.5,59.5 C 75.5667,62.3702 73.9,64.7036 71.5,66.5C 72.4333,63.6298 74.1,61.2964 76.5,59.5 Z"/></g>
<g><path style="opacity:1" fill="#9d7457" d="M 71.5,66.5 C 71.2624,68.4044 70.2624,69.7377 68.5,70.5C 68.7376,68.5956 69.7376,67.2623 71.5,66.5 Z"/></g>
<g><path style="opacity:1" fill="#a37555" d="M 68.5,70.5 C 68.573,72.0269 67.9063,73.0269 66.5,73.5C 66.427,71.9731 67.0937,70.9731 68.5,70.5 Z"/></g>
<g><path style="opacity:1" fill="#ac7852" d="M 66.5,73.5 C 66.3146,75.1958 65.4813,76.5291 64,77.5C 63.7207,75.5878 64.5541,74.2544 66.5,73.5 Z"/></g>
</svg>
